%
M48
M72
T01C0.02362
T02C0.03150
T03C0.03200
T04C0.04000
T05C0.04331
T06C0.07480
%
T01
X65550Y71800
X61800Y91800
X40550Y141800
X50550Y151800
X116800Y156800
X171800Y156800
X181800Y121800
X173050Y111800
X198050Y96800
X116800Y51800
T02
X171751Y185471
X174900Y190196
X178050Y185471
X181200Y190196
X184349Y185471
X211800Y189300
X211800Y181426
X211800Y197174
T03
X34300Y34300
X74300Y34300
X84300Y34300
X94300Y34300
X111800Y40550
X121800Y40550
X131800Y51800
X131800Y61800
X131800Y71800
X131800Y81800
X131800Y91800
X131800Y101800
X131800Y111800
X131800Y121800
X131800Y131800
X131800Y141800
X131800Y151800
X131800Y161800
X131800Y171800
X131800Y181800
X129300Y190550
X144300Y181800
X144300Y171800
X145550Y201800
X153050Y206800
X145550Y211800
X129300Y210550
X116800Y211800
X106800Y211800
X106800Y199300
X101800Y181800
X101800Y171800
X101800Y161800
X101800Y151800
X101800Y141800
X101800Y131800
X101800Y121800
X101800Y111800
X101800Y101800
X101800Y91800
X101800Y81800
X101800Y71800
X101800Y61800
X101800Y51800
X144300Y101800
X164300Y101800
X153050Y131800
X143050Y131800
X188050Y170550
X198050Y170550
X85550Y181800
X66800Y199300
X45550Y181800
X46800Y116800
X46800Y76800
T04
X26800Y86800
X26800Y96800
X26800Y106800
X26800Y116800
X26800Y126800
X26800Y136800
X26800Y146800
X26800Y156800
X30550Y210550
X40550Y210550
X50550Y210550
X60550Y210550
X70550Y210550
X80550Y210550
X88050Y106800
X88050Y96800
X88050Y86800
X213050Y86800
X213050Y96800
X213050Y106800
X213050Y116800
X213050Y126800
X213050Y136800
X213050Y146800
X213050Y156800
T05
X36800Y46957
X36800Y66643
X33050Y171957
X33050Y191643
X211800Y205048
X211800Y173552
T06
X163680Y205550
X192420Y205550
M30
