G75*
%MOIN*%
%OFA0B0*%
%FSLAX25Y25*%
%IPPOS*%
%LPD*%
%AMOC8*
5,1,8,0,0,1.08239X$1,22.5*
%
%ADD10C,0.01600*%
%ADD11C,0.06000*%
%ADD12OC8,0.06000*%
%ADD13C,0.08200*%
%ADD14C,0.06000*%
%ADD15C,0.05950*%
%ADD16C,0.12020*%
%ADD17C,0.07296*%
%ADD18C,0.04762*%
D10*
X0021800Y0021800D02*
X0218650Y0021800D01*
X0218650Y0218650D01*
X0021800Y0218650D01*
X0021800Y0021800D01*
D11*
X0144300Y0101800D03*
X0129300Y0210550D03*
D12*
X0116800Y0211800D03*
X0106800Y0211800D03*
X0106800Y0199300D03*
X0129300Y0190550D03*
X0144300Y0181800D03*
X0144300Y0171800D03*
X0145550Y0201800D03*
X0153050Y0206800D03*
X0145550Y0211800D03*
X0188050Y0170550D03*
X0198050Y0170550D03*
X0153050Y0131800D03*
X0143050Y0131800D03*
X0164300Y0101800D03*
X0121800Y0040550D03*
X0111800Y0040550D03*
X0094300Y0034300D03*
X0084300Y0034300D03*
X0074300Y0034300D03*
X0034300Y0034300D03*
X0046800Y0076800D03*
X0046800Y0116800D03*
X0045550Y0181800D03*
X0066800Y0199300D03*
X0085550Y0181800D03*
D13*
X0080550Y0210550D03*
X0070550Y0210550D03*
X0060550Y0210550D03*
X0050550Y0210550D03*
X0040550Y0210550D03*
X0030550Y0210550D03*
X0026800Y0156800D03*
X0026800Y0146800D03*
X0026800Y0136800D03*
X0026800Y0126800D03*
X0026800Y0116800D03*
X0026800Y0106800D03*
X0026800Y0096800D03*
X0026800Y0086800D03*
X0088050Y0086800D03*
X0088050Y0096800D03*
X0088050Y0106800D03*
X0213050Y0106800D03*
X0213050Y0096800D03*
X0213050Y0086800D03*
X0213050Y0116800D03*
X0213050Y0126800D03*
X0213050Y0136800D03*
X0213050Y0146800D03*
X0213050Y0156800D03*
D14*
X0134400Y0151800D02*
X0129200Y0151800D01*
X0129200Y0141800D02*
X0134400Y0141800D01*
X0134400Y0131800D02*
X0129200Y0131800D01*
X0129200Y0121800D02*
X0134400Y0121800D01*
X0134400Y0111800D02*
X0129200Y0111800D01*
X0129200Y0101800D02*
X0134400Y0101800D01*
X0134400Y0091800D02*
X0129200Y0091800D01*
X0129200Y0081800D02*
X0134400Y0081800D01*
X0134400Y0071800D02*
X0129200Y0071800D01*
X0129200Y0061800D02*
X0134400Y0061800D01*
X0134400Y0051800D02*
X0129200Y0051800D01*
X0104400Y0051800D02*
X0099200Y0051800D01*
X0099200Y0061800D02*
X0104400Y0061800D01*
X0104400Y0071800D02*
X0099200Y0071800D01*
X0099200Y0081800D02*
X0104400Y0081800D01*
X0104400Y0091800D02*
X0099200Y0091800D01*
X0099200Y0101800D02*
X0104400Y0101800D01*
X0104400Y0111800D02*
X0099200Y0111800D01*
X0099200Y0121800D02*
X0104400Y0121800D01*
X0104400Y0131800D02*
X0099200Y0131800D01*
X0099200Y0141800D02*
X0104400Y0141800D01*
X0104400Y0151800D02*
X0099200Y0151800D01*
X0099200Y0161800D02*
X0104400Y0161800D01*
X0104400Y0171800D02*
X0099200Y0171800D01*
X0099200Y0181800D02*
X0104400Y0181800D01*
X0129200Y0181800D02*
X0134400Y0181800D01*
X0134400Y0171800D02*
X0129200Y0171800D01*
X0129200Y0161800D02*
X0134400Y0161800D01*
D15*
X0171751Y0185471D03*
X0174900Y0190196D03*
X0178050Y0185471D03*
X0181200Y0190196D03*
X0184349Y0185471D03*
X0211800Y0189300D03*
X0211800Y0181426D03*
X0211800Y0197174D03*
D16*
X0192420Y0205550D03*
X0163680Y0205550D03*
D17*
X0211800Y0205048D03*
X0211800Y0173552D03*
X0036800Y0066643D03*
X0036800Y0046957D03*
X0033050Y0171957D03*
X0033050Y0191643D03*
D18*
X0050550Y0151800D03*
X0040550Y0141800D03*
X0061800Y0091800D03*
X0065550Y0071800D03*
X0116800Y0051800D03*
X0173050Y0111800D03*
X0181800Y0121800D03*
X0198050Y0096800D03*
X0171800Y0156800D03*
X0116800Y0156800D03*
M02*
