G75*
%MOIN*%
%OFA0B0*%
%FSLAX25Y25*%
%IPPOS*%
%LPD*%
%AMOC8*
5,1,8,0,0,1.08239X$1,22.5*
%
%ADD10C,0.01600*%
%ADD11C,0.05200*%
%ADD12OC8,0.05200*%
%ADD13C,0.07400*%
%ADD14C,0.05200*%
%ADD15C,0.05150*%
%ADD16C,0.11220*%
%ADD17C,0.06496*%
%ADD18C,0.03962*%
D10*
X0021800Y0021800D02*
X0218650Y0021800D01*
X0218650Y0218650D01*
X0021800Y0218650D01*
X0021800Y0021800D01*
X0027400Y0027400D02*
X0027400Y0081326D01*
X0028088Y0081435D01*
X0028911Y0081703D01*
X0029683Y0082096D01*
X0030383Y0082605D01*
X0030995Y0083217D01*
X0031504Y0083917D01*
X0031897Y0084689D01*
X0032165Y0085512D01*
X0032300Y0086367D01*
X0032300Y0086600D01*
X0027400Y0086600D01*
X0027400Y0087000D01*
X0032300Y0087000D01*
X0032300Y0087233D01*
X0032165Y0088088D01*
X0031897Y0088911D01*
X0031504Y0089683D01*
X0030995Y0090383D01*
X0030383Y0090995D01*
X0029683Y0091504D01*
X0028911Y0091897D01*
X0028856Y0091915D01*
X0029802Y0092307D01*
X0031293Y0093798D01*
X0032100Y0095746D01*
X0032100Y0097854D01*
X0031293Y0099802D01*
X0029802Y0101293D01*
X0028578Y0101800D01*
X0029802Y0102307D01*
X0031293Y0103798D01*
X0032100Y0105746D01*
X0032100Y0107854D01*
X0031293Y0109802D01*
X0029802Y0111293D01*
X0028578Y0111800D01*
X0029802Y0112307D01*
X0031293Y0113798D01*
X0032100Y0115746D01*
X0032100Y0117854D01*
X0031293Y0119802D01*
X0029802Y0121293D01*
X0028578Y0121800D01*
X0029802Y0122307D01*
X0031293Y0123798D01*
X0032100Y0125746D01*
X0032100Y0127854D01*
X0031293Y0129802D01*
X0029802Y0131293D01*
X0028578Y0131800D01*
X0029802Y0132307D01*
X0031293Y0133798D01*
X0032100Y0135746D01*
X0032100Y0137854D01*
X0031293Y0139802D01*
X0029802Y0141293D01*
X0028578Y0141800D01*
X0029802Y0142307D01*
X0031293Y0143798D01*
X0032100Y0145746D01*
X0032100Y0147854D01*
X0031293Y0149802D01*
X0029802Y0151293D01*
X0028578Y0151800D01*
X0029802Y0152307D01*
X0031293Y0153798D01*
X0032100Y0155746D01*
X0032100Y0157854D01*
X0031293Y0159802D01*
X0029802Y0161293D01*
X0027854Y0162100D01*
X0027400Y0162100D01*
X0027400Y0206205D01*
X0027548Y0206057D01*
X0029496Y0205250D01*
X0031604Y0205250D01*
X0033552Y0206057D01*
X0035043Y0207548D01*
X0035550Y0208772D01*
X0036057Y0207548D01*
X0037548Y0206057D01*
X0038150Y0205807D01*
X0038150Y0144464D01*
X0037514Y0143829D01*
X0036969Y0142512D01*
X0036969Y0141088D01*
X0037514Y0139771D01*
X0038521Y0138764D01*
X0039838Y0138219D01*
X0041262Y0138219D01*
X0042579Y0138764D01*
X0043586Y0139771D01*
X0044131Y0141088D01*
X0044131Y0142512D01*
X0043586Y0143829D01*
X0042950Y0144464D01*
X0042950Y0178460D01*
X0043810Y0177600D01*
X0047290Y0177600D01*
X0048150Y0178460D01*
X0048150Y0154464D01*
X0047514Y0153829D01*
X0046969Y0152512D01*
X0046969Y0151088D01*
X0047514Y0149771D01*
X0048521Y0148764D01*
X0049838Y0148219D01*
X0051262Y0148219D01*
X0052579Y0148764D01*
X0053586Y0149771D01*
X0054131Y0151088D01*
X0054131Y0152512D01*
X0053586Y0153829D01*
X0052950Y0154464D01*
X0052950Y0205807D01*
X0053552Y0206057D01*
X0055043Y0207548D01*
X0055435Y0208494D01*
X0055453Y0208439D01*
X0055846Y0207667D01*
X0056355Y0206967D01*
X0056967Y0206355D01*
X0057667Y0205846D01*
X0058439Y0205453D01*
X0059262Y0205185D01*
X0060117Y0205050D01*
X0060350Y0205050D01*
X0060350Y0210350D01*
X0060750Y0210350D01*
X0060750Y0205050D01*
X0060983Y0205050D01*
X0061838Y0205185D01*
X0062661Y0205453D01*
X0063433Y0205846D01*
X0064133Y0206355D01*
X0064745Y0206967D01*
X0065254Y0207667D01*
X0065647Y0208439D01*
X0065665Y0208494D01*
X0066057Y0207548D01*
X0067548Y0206057D01*
X0069496Y0205250D01*
X0071604Y0205250D01*
X0073552Y0206057D01*
X0075043Y0207548D01*
X0075550Y0208772D01*
X0076057Y0207548D01*
X0077548Y0206057D01*
X0079496Y0205250D01*
X0081604Y0205250D01*
X0083552Y0206057D01*
X0085043Y0207548D01*
X0085850Y0209496D01*
X0085850Y0211604D01*
X0085251Y0213050D01*
X0102600Y0213050D01*
X0102600Y0210060D01*
X0105060Y0207600D01*
X0108540Y0207600D01*
X0111000Y0210060D01*
X0111000Y0213050D01*
X0112600Y0213050D01*
X0112600Y0210060D01*
X0115060Y0207600D01*
X0118540Y0207600D01*
X0121000Y0210060D01*
X0121000Y0213050D01*
X0125861Y0213050D01*
X0125739Y0212929D01*
X0125100Y0211385D01*
X0125100Y0209715D01*
X0125739Y0208171D01*
X0126921Y0206989D01*
X0128465Y0206350D01*
X0130135Y0206350D01*
X0131679Y0206989D01*
X0132861Y0208171D01*
X0133500Y0209715D01*
X0133500Y0211385D01*
X0132861Y0212929D01*
X0132739Y0213050D01*
X0141150Y0213050D01*
X0141150Y0211800D01*
X0145550Y0211800D01*
X0149950Y0211800D01*
X0149950Y0213050D01*
X0213050Y0213050D01*
X0213050Y0209778D01*
X0212764Y0209896D01*
X0210836Y0209896D01*
X0209054Y0209158D01*
X0207690Y0207794D01*
X0206952Y0206012D01*
X0206952Y0204084D01*
X0207690Y0202302D01*
X0209054Y0200938D01*
X0209516Y0200747D01*
X0209435Y0200713D01*
X0208296Y0199574D01*
X0204197Y0199574D01*
X0203315Y0199209D01*
X0198050Y0193944D01*
X0193835Y0198159D01*
X0193654Y0198340D01*
X0193854Y0198340D01*
X0196504Y0199437D01*
X0198533Y0201466D01*
X0199630Y0204116D01*
X0199630Y0206984D01*
X0198533Y0209634D01*
X0196504Y0211663D01*
X0193854Y0212760D01*
X0190986Y0212760D01*
X0188336Y0211663D01*
X0186308Y0209634D01*
X0185210Y0206984D01*
X0185210Y0204116D01*
X0186308Y0201466D01*
X0188336Y0199437D01*
X0188909Y0199200D01*
X0167191Y0199200D01*
X0167764Y0199437D01*
X0169792Y0201466D01*
X0170890Y0204116D01*
X0170890Y0206984D01*
X0169792Y0209634D01*
X0167764Y0211663D01*
X0165114Y0212760D01*
X0162246Y0212760D01*
X0159596Y0211663D01*
X0157567Y0209634D01*
X0157154Y0208636D01*
X0154790Y0211000D01*
X0151310Y0211000D01*
X0148850Y0208540D01*
X0148850Y0205060D01*
X0150650Y0203260D01*
X0150650Y0198823D01*
X0151015Y0197941D01*
X0151691Y0197265D01*
X0154191Y0194765D01*
X0155073Y0194400D01*
X0190806Y0194400D01*
X0195650Y0189556D01*
X0195650Y0174090D01*
X0193850Y0172290D01*
X0193850Y0168810D01*
X0195650Y0167010D01*
X0195650Y0099464D01*
X0195014Y0098829D01*
X0194469Y0097512D01*
X0194469Y0096088D01*
X0195014Y0094771D01*
X0196021Y0093764D01*
X0197338Y0093219D01*
X0198762Y0093219D01*
X0200079Y0093764D01*
X0201086Y0094771D01*
X0201631Y0096088D01*
X0201631Y0097512D01*
X0201086Y0098829D01*
X0200450Y0099464D01*
X0200450Y0167010D01*
X0202250Y0168810D01*
X0202250Y0172290D01*
X0200450Y0174090D01*
X0200450Y0189556D01*
X0205668Y0194774D01*
X0208296Y0194774D01*
X0209435Y0193635D01*
X0210396Y0193237D01*
X0209435Y0192839D01*
X0208261Y0191665D01*
X0207625Y0190130D01*
X0207625Y0188470D01*
X0208261Y0186935D01*
X0209435Y0185761D01*
X0210396Y0185363D01*
X0209435Y0184965D01*
X0208261Y0183791D01*
X0207625Y0182256D01*
X0207625Y0180596D01*
X0208261Y0179061D01*
X0209435Y0177887D01*
X0209516Y0177853D01*
X0209054Y0177662D01*
X0207690Y0176298D01*
X0206952Y0174516D01*
X0206952Y0172588D01*
X0207690Y0170806D01*
X0209054Y0169442D01*
X0210836Y0168704D01*
X0212764Y0168704D01*
X0213050Y0168822D01*
X0213050Y0162100D01*
X0211996Y0162100D01*
X0210048Y0161293D01*
X0208557Y0159802D01*
X0207750Y0157854D01*
X0207750Y0155746D01*
X0208557Y0153798D01*
X0210048Y0152307D01*
X0211272Y0151800D01*
X0210048Y0151293D01*
X0208557Y0149802D01*
X0207750Y0147854D01*
X0207750Y0145746D01*
X0208557Y0143798D01*
X0210048Y0142307D01*
X0211272Y0141800D01*
X0210048Y0141293D01*
X0208557Y0139802D01*
X0207750Y0137854D01*
X0207750Y0135746D01*
X0208557Y0133798D01*
X0210048Y0132307D01*
X0211272Y0131800D01*
X0210048Y0131293D01*
X0208557Y0129802D01*
X0207750Y0127854D01*
X0207750Y0125746D01*
X0208557Y0123798D01*
X0210048Y0122307D01*
X0211272Y0121800D01*
X0210048Y0121293D01*
X0208557Y0119802D01*
X0207750Y0117854D01*
X0207750Y0115746D01*
X0208557Y0113798D01*
X0210048Y0112307D01*
X0211272Y0111800D01*
X0210048Y0111293D01*
X0208557Y0109802D01*
X0207750Y0107854D01*
X0207750Y0105746D01*
X0208557Y0103798D01*
X0210048Y0102307D01*
X0211272Y0101800D01*
X0210048Y0101293D01*
X0208557Y0099802D01*
X0207750Y0097854D01*
X0207750Y0095746D01*
X0208557Y0093798D01*
X0210048Y0092307D01*
X0210994Y0091915D01*
X0210939Y0091897D01*
X0210167Y0091504D01*
X0209467Y0090995D01*
X0208855Y0090383D01*
X0208346Y0089683D01*
X0207953Y0088911D01*
X0207685Y0088088D01*
X0207550Y0087233D01*
X0207550Y0087000D01*
X0212850Y0087000D01*
X0212850Y0086600D01*
X0213050Y0086600D01*
X0213050Y0027400D01*
X0027400Y0027400D01*
X0027400Y0028194D02*
X0213050Y0028194D01*
X0213050Y0029793D02*
X0027400Y0029793D01*
X0027400Y0031391D02*
X0030986Y0031391D01*
X0029900Y0032477D02*
X0029900Y0034300D01*
X0034300Y0034300D01*
X0038700Y0034300D01*
X0038700Y0036123D01*
X0036123Y0038700D01*
X0034300Y0038700D01*
X0034300Y0034300D01*
X0034300Y0034300D01*
X0034300Y0034300D01*
X0038700Y0034300D01*
X0038700Y0032477D01*
X0036123Y0029900D01*
X0034300Y0029900D01*
X0034300Y0034300D01*
X0034300Y0034300D01*
X0034300Y0034300D01*
X0034300Y0038700D01*
X0032477Y0038700D01*
X0029900Y0036123D01*
X0029900Y0034300D01*
X0034300Y0034300D01*
X0034300Y0029900D01*
X0032477Y0029900D01*
X0029900Y0032477D01*
X0029900Y0032990D02*
X0027400Y0032990D01*
X0027400Y0034588D02*
X0029900Y0034588D01*
X0029964Y0036187D02*
X0027400Y0036187D01*
X0027400Y0037785D02*
X0031563Y0037785D01*
X0034300Y0037785D02*
X0034300Y0037785D01*
X0034300Y0036187D02*
X0034300Y0036187D01*
X0034300Y0034588D02*
X0034300Y0034588D01*
X0034300Y0032990D02*
X0034300Y0032990D01*
X0034300Y0031391D02*
X0034300Y0031391D01*
X0037614Y0031391D02*
X0071269Y0031391D01*
X0070100Y0032560D02*
X0072560Y0030100D01*
X0076040Y0030100D01*
X0078500Y0032560D01*
X0078500Y0036040D01*
X0076040Y0038500D01*
X0072560Y0038500D01*
X0070100Y0036040D01*
X0070100Y0032560D01*
X0070100Y0032990D02*
X0038700Y0032990D01*
X0038700Y0034588D02*
X0070100Y0034588D01*
X0070247Y0036187D02*
X0038636Y0036187D01*
X0037037Y0037785D02*
X0071845Y0037785D01*
X0076755Y0037785D02*
X0081845Y0037785D01*
X0082560Y0038500D02*
X0080100Y0036040D01*
X0080100Y0032560D01*
X0082560Y0030100D01*
X0086040Y0030100D01*
X0088500Y0032560D01*
X0088500Y0036040D01*
X0086040Y0038500D01*
X0082560Y0038500D01*
X0080247Y0036187D02*
X0078353Y0036187D01*
X0078500Y0034588D02*
X0080100Y0034588D01*
X0080100Y0032990D02*
X0078500Y0032990D01*
X0077331Y0031391D02*
X0081269Y0031391D01*
X0087331Y0031391D02*
X0091269Y0031391D01*
X0090100Y0032560D02*
X0092560Y0030100D01*
X0096040Y0030100D01*
X0098500Y0032560D01*
X0098500Y0036040D01*
X0096040Y0038500D01*
X0092560Y0038500D01*
X0090100Y0036040D01*
X0090100Y0032560D01*
X0090100Y0032990D02*
X0088500Y0032990D01*
X0088500Y0034588D02*
X0090100Y0034588D01*
X0090247Y0036187D02*
X0088353Y0036187D01*
X0086755Y0037785D02*
X0091845Y0037785D01*
X0096755Y0037785D02*
X0108342Y0037785D01*
X0107400Y0038727D02*
X0109977Y0036150D01*
X0111800Y0036150D01*
X0113623Y0036150D01*
X0116200Y0038727D01*
X0116200Y0040550D01*
X0116200Y0042373D01*
X0113623Y0044950D01*
X0111800Y0044950D01*
X0111800Y0040550D01*
X0116200Y0040550D01*
X0111800Y0040550D01*
X0111800Y0040550D01*
X0111800Y0040550D01*
X0111800Y0036150D01*
X0111800Y0040550D01*
X0111800Y0040550D01*
X0111800Y0040550D01*
X0107400Y0040550D01*
X0107400Y0042373D01*
X0109977Y0044950D01*
X0111800Y0044950D01*
X0111800Y0040550D01*
X0107400Y0040550D01*
X0107400Y0038727D01*
X0107400Y0039384D02*
X0027400Y0039384D01*
X0027400Y0040982D02*
X0107400Y0040982D01*
X0107608Y0042581D02*
X0039329Y0042581D01*
X0039446Y0042640D02*
X0040089Y0043107D01*
X0040650Y0043669D01*
X0041117Y0044312D01*
X0041478Y0045020D01*
X0041724Y0045775D01*
X0041848Y0046560D01*
X0041848Y0046675D01*
X0037083Y0046675D01*
X0037083Y0047240D01*
X0041848Y0047240D01*
X0041848Y0047355D01*
X0041724Y0048140D01*
X0041478Y0048895D01*
X0041117Y0049603D01*
X0040650Y0050246D01*
X0040089Y0050808D01*
X0039446Y0051275D01*
X0038738Y0051636D01*
X0037982Y0051881D01*
X0037197Y0052005D01*
X0037083Y0052005D01*
X0037083Y0047240D01*
X0036517Y0047240D01*
X0036517Y0046675D01*
X0031752Y0046675D01*
X0031752Y0046560D01*
X0031876Y0045775D01*
X0032122Y0045020D01*
X0032483Y0044312D01*
X0032950Y0043669D01*
X0033511Y0043107D01*
X0034154Y0042640D01*
X0034862Y0042279D01*
X0035618Y0042034D01*
X0036403Y0041909D01*
X0036517Y0041909D01*
X0036517Y0046675D01*
X0037083Y0046675D01*
X0037083Y0041909D01*
X0037197Y0041909D01*
X0037982Y0042034D01*
X0038738Y0042279D01*
X0039446Y0042640D01*
X0041021Y0044179D02*
X0109207Y0044179D01*
X0111800Y0044179D02*
X0111800Y0044179D01*
X0111800Y0042581D02*
X0111800Y0042581D01*
X0111800Y0040982D02*
X0111800Y0040982D01*
X0111800Y0039384D02*
X0111800Y0039384D01*
X0111800Y0037785D02*
X0111800Y0037785D01*
X0111800Y0036187D02*
X0111800Y0036187D01*
X0113659Y0036187D02*
X0213050Y0036187D01*
X0213050Y0037785D02*
X0124975Y0037785D01*
X0126000Y0038810D02*
X0123540Y0036350D01*
X0120060Y0036350D01*
X0117600Y0038810D01*
X0117600Y0042290D01*
X0120060Y0044750D01*
X0123540Y0044750D01*
X0126000Y0042290D01*
X0126000Y0038810D01*
X0126000Y0039384D02*
X0213050Y0039384D01*
X0213050Y0040982D02*
X0126000Y0040982D01*
X0125709Y0042581D02*
X0213050Y0042581D01*
X0213050Y0044179D02*
X0124111Y0044179D01*
X0119489Y0044179D02*
X0114393Y0044179D01*
X0115992Y0042581D02*
X0117891Y0042581D01*
X0117600Y0040982D02*
X0116200Y0040982D01*
X0116200Y0039384D02*
X0117600Y0039384D01*
X0118625Y0037785D02*
X0115258Y0037785D01*
X0109941Y0036187D02*
X0098353Y0036187D01*
X0098500Y0034588D02*
X0213050Y0034588D01*
X0213050Y0032990D02*
X0098500Y0032990D01*
X0097331Y0031391D02*
X0213050Y0031391D01*
X0213050Y0045778D02*
X0041724Y0045778D01*
X0041845Y0047376D02*
X0213050Y0047376D01*
X0213050Y0048975D02*
X0137514Y0048975D01*
X0137961Y0049421D02*
X0138600Y0050965D01*
X0138600Y0052635D01*
X0137961Y0054179D01*
X0136779Y0055361D01*
X0135235Y0056000D01*
X0128365Y0056000D01*
X0126821Y0055361D01*
X0125639Y0054179D01*
X0125000Y0052635D01*
X0125000Y0050965D01*
X0125639Y0049421D01*
X0126821Y0048239D01*
X0128365Y0047600D01*
X0135235Y0047600D01*
X0136779Y0048239D01*
X0137961Y0049421D01*
X0138438Y0050573D02*
X0213050Y0050573D01*
X0213050Y0052172D02*
X0138600Y0052172D01*
X0138130Y0053770D02*
X0213050Y0053770D01*
X0213050Y0055369D02*
X0136759Y0055369D01*
X0135235Y0057600D02*
X0136779Y0058239D01*
X0137961Y0059421D01*
X0138600Y0060965D01*
X0138600Y0062635D01*
X0137961Y0064179D01*
X0136779Y0065361D01*
X0135235Y0066000D01*
X0128365Y0066000D01*
X0126821Y0065361D01*
X0125639Y0064179D01*
X0125000Y0062635D01*
X0125000Y0060965D01*
X0125639Y0059421D01*
X0126821Y0058239D01*
X0128365Y0057600D01*
X0135235Y0057600D01*
X0137105Y0058566D02*
X0213050Y0058566D01*
X0213050Y0060164D02*
X0138268Y0060164D01*
X0138600Y0061763D02*
X0213050Y0061763D01*
X0213050Y0063361D02*
X0138299Y0063361D01*
X0137180Y0064960D02*
X0213050Y0064960D01*
X0213050Y0066558D02*
X0119200Y0066558D01*
X0119200Y0064960D02*
X0126420Y0064960D01*
X0125301Y0063361D02*
X0119200Y0063361D01*
X0119200Y0061763D02*
X0125000Y0061763D01*
X0125331Y0060164D02*
X0119200Y0060164D01*
X0119200Y0058566D02*
X0126495Y0058566D01*
X0126841Y0055369D02*
X0119200Y0055369D01*
X0119200Y0054464D02*
X0119200Y0154136D01*
X0119836Y0154771D01*
X0120381Y0156088D01*
X0120381Y0157512D01*
X0119836Y0158829D01*
X0118829Y0159836D01*
X0117512Y0160381D01*
X0116088Y0160381D01*
X0114771Y0159836D01*
X0113764Y0158829D01*
X0113219Y0157512D01*
X0113219Y0156088D01*
X0113764Y0154771D01*
X0114400Y0154136D01*
X0114400Y0054464D01*
X0113764Y0053829D01*
X0113219Y0052512D01*
X0113219Y0051088D01*
X0113764Y0049771D01*
X0114771Y0048764D01*
X0116088Y0048219D01*
X0117512Y0048219D01*
X0118829Y0048764D01*
X0119836Y0049771D01*
X0120381Y0051088D01*
X0120381Y0052512D01*
X0119836Y0053829D01*
X0119200Y0054464D01*
X0119860Y0053770D02*
X0125470Y0053770D01*
X0125000Y0052172D02*
X0120381Y0052172D01*
X0120168Y0050573D02*
X0125162Y0050573D01*
X0126086Y0048975D02*
X0119039Y0048975D01*
X0116800Y0051800D02*
X0116800Y0156800D01*
X0119392Y0159272D02*
X0125788Y0159272D01*
X0125639Y0159421D02*
X0126821Y0158239D01*
X0128365Y0157600D01*
X0135235Y0157600D01*
X0136779Y0158239D01*
X0137961Y0159421D01*
X0138600Y0160965D01*
X0138600Y0162635D01*
X0137961Y0164179D01*
X0136779Y0165361D01*
X0135235Y0166000D01*
X0128365Y0166000D01*
X0126821Y0165361D01*
X0125639Y0164179D01*
X0125000Y0162635D01*
X0125000Y0160965D01*
X0125639Y0159421D01*
X0125039Y0160870D02*
X0108561Y0160870D01*
X0108600Y0160965D02*
X0108600Y0162635D01*
X0107961Y0164179D01*
X0106779Y0165361D01*
X0105235Y0166000D01*
X0098365Y0166000D01*
X0096821Y0165361D01*
X0095639Y0164179D01*
X0095000Y0162635D01*
X0095000Y0160965D01*
X0095639Y0159421D01*
X0096821Y0158239D01*
X0098365Y0157600D01*
X0105235Y0157600D01*
X0106779Y0158239D01*
X0107961Y0159421D01*
X0108600Y0160965D01*
X0108600Y0162469D02*
X0125000Y0162469D01*
X0125593Y0164068D02*
X0108007Y0164068D01*
X0106042Y0165666D02*
X0127558Y0165666D01*
X0128170Y0167508D02*
X0128854Y0167400D01*
X0131800Y0167400D01*
X0134746Y0167400D01*
X0135430Y0167508D01*
X0136089Y0167722D01*
X0136706Y0168037D01*
X0137266Y0168444D01*
X0137756Y0168934D01*
X0138163Y0169494D01*
X0138478Y0170111D01*
X0138692Y0170770D01*
X0138800Y0171454D01*
X0138800Y0171800D01*
X0138800Y0172146D01*
X0138692Y0172830D01*
X0138478Y0173489D01*
X0138163Y0174106D01*
X0137756Y0174666D01*
X0137266Y0175156D01*
X0136706Y0175563D01*
X0136089Y0175878D01*
X0135430Y0176092D01*
X0134746Y0176200D01*
X0131800Y0176200D01*
X0131800Y0171800D01*
X0131800Y0171800D01*
X0138800Y0171800D01*
X0131800Y0171800D01*
X0131800Y0171800D01*
X0131800Y0167400D01*
X0131800Y0171800D01*
X0131800Y0171800D01*
X0131800Y0171800D01*
X0124800Y0171800D01*
X0124800Y0172146D01*
X0124908Y0172830D01*
X0125122Y0173489D01*
X0125437Y0174106D01*
X0125844Y0174666D01*
X0126334Y0175156D01*
X0126894Y0175563D01*
X0127511Y0175878D01*
X0128170Y0176092D01*
X0128854Y0176200D01*
X0131800Y0176200D01*
X0131800Y0171800D01*
X0124800Y0171800D01*
X0124800Y0171454D01*
X0124908Y0170770D01*
X0125122Y0170111D01*
X0125437Y0169494D01*
X0125844Y0168934D01*
X0126334Y0168444D01*
X0126894Y0168037D01*
X0127511Y0167722D01*
X0128170Y0167508D01*
X0125914Y0168863D02*
X0107403Y0168863D01*
X0107961Y0169421D02*
X0108600Y0170965D01*
X0108600Y0172635D01*
X0107961Y0174179D01*
X0106779Y0175361D01*
X0105235Y0176000D01*
X0098365Y0176000D01*
X0096821Y0175361D01*
X0095639Y0174179D01*
X0095000Y0172635D01*
X0095000Y0170965D01*
X0095639Y0169421D01*
X0096821Y0168239D01*
X0098365Y0167600D01*
X0105235Y0167600D01*
X0106779Y0168239D01*
X0107961Y0169421D01*
X0108392Y0170462D02*
X0125008Y0170462D01*
X0124800Y0172060D02*
X0108600Y0172060D01*
X0108176Y0173659D02*
X0125209Y0173659D01*
X0126473Y0175257D02*
X0106883Y0175257D01*
X0105235Y0177600D02*
X0106779Y0178239D01*
X0107961Y0179421D01*
X0108600Y0180965D01*
X0108600Y0182635D01*
X0107961Y0184179D01*
X0106779Y0185361D01*
X0105235Y0186000D01*
X0098365Y0186000D01*
X0096821Y0185361D01*
X0095639Y0184179D01*
X0095000Y0182635D01*
X0095000Y0180965D01*
X0095639Y0179421D01*
X0096821Y0178239D01*
X0098365Y0177600D01*
X0105235Y0177600D01*
X0106994Y0178454D02*
X0126606Y0178454D01*
X0126821Y0178239D02*
X0125639Y0179421D01*
X0125000Y0180965D01*
X0125000Y0182635D01*
X0125639Y0184179D01*
X0126821Y0185361D01*
X0128365Y0186000D01*
X0135235Y0186000D01*
X0136779Y0185361D01*
X0137961Y0184179D01*
X0138600Y0182635D01*
X0138600Y0180965D01*
X0137961Y0179421D01*
X0136779Y0178239D01*
X0135235Y0177600D01*
X0128365Y0177600D01*
X0126821Y0178239D01*
X0125378Y0180053D02*
X0108222Y0180053D01*
X0108600Y0181651D02*
X0125000Y0181651D01*
X0125254Y0183250D02*
X0108346Y0183250D01*
X0107292Y0184848D02*
X0126308Y0184848D01*
X0127477Y0186150D02*
X0124900Y0188727D01*
X0124900Y0190550D01*
X0129300Y0190550D01*
X0129300Y0190550D01*
X0129300Y0194950D01*
X0131123Y0194950D01*
X0133700Y0192373D01*
X0133700Y0190550D01*
X0129300Y0190550D01*
X0129300Y0190550D01*
X0129300Y0190550D01*
X0129300Y0194950D01*
X0127477Y0194950D01*
X0124900Y0192373D01*
X0124900Y0190550D01*
X0129300Y0190550D01*
X0133700Y0190550D01*
X0133700Y0188727D01*
X0131123Y0186150D01*
X0129300Y0186150D01*
X0129300Y0190550D01*
X0129300Y0190550D01*
X0129300Y0186150D01*
X0127477Y0186150D01*
X0127181Y0186447D02*
X0052950Y0186447D01*
X0052950Y0188045D02*
X0125582Y0188045D01*
X0124900Y0189644D02*
X0052950Y0189644D01*
X0052950Y0191242D02*
X0124900Y0191242D01*
X0125368Y0192841D02*
X0052950Y0192841D01*
X0052950Y0194439D02*
X0126967Y0194439D01*
X0129300Y0194439D02*
X0129300Y0194439D01*
X0129300Y0192841D02*
X0129300Y0192841D01*
X0129300Y0191242D02*
X0129300Y0191242D01*
X0129300Y0189644D02*
X0129300Y0189644D01*
X0129300Y0188045D02*
X0129300Y0188045D01*
X0129300Y0186447D02*
X0129300Y0186447D01*
X0131419Y0186447D02*
X0159400Y0186447D01*
X0159400Y0188045D02*
X0133018Y0188045D01*
X0133700Y0189644D02*
X0160000Y0189644D01*
X0159765Y0189409D02*
X0160441Y0190085D01*
X0164191Y0193835D01*
X0165073Y0194200D01*
X0173527Y0194200D01*
X0173593Y0194173D01*
X0174070Y0194370D01*
X0175731Y0194370D01*
X0177265Y0193735D01*
X0178050Y0192950D01*
X0178835Y0193735D01*
X0180369Y0194370D01*
X0182030Y0194370D01*
X0183564Y0193735D01*
X0184704Y0192596D01*
X0188882Y0192596D01*
X0189764Y0192230D01*
X0190439Y0191555D01*
X0190439Y0191555D01*
X0193159Y0188835D01*
X0193159Y0188835D01*
X0193835Y0188159D01*
X0194200Y0187277D01*
X0194200Y0181323D01*
X0193835Y0180441D01*
X0188344Y0174950D01*
X0189873Y0174950D01*
X0192450Y0172373D01*
X0192450Y0170550D01*
X0188050Y0170550D01*
X0188050Y0170550D01*
X0192450Y0170550D01*
X0192450Y0168727D01*
X0189873Y0166150D01*
X0188050Y0166150D01*
X0188050Y0170550D01*
X0188050Y0170550D01*
X0188050Y0166150D01*
X0186227Y0166150D01*
X0184200Y0168177D01*
X0184200Y0124464D01*
X0184836Y0123829D01*
X0185381Y0122512D01*
X0185381Y0121088D01*
X0184836Y0119771D01*
X0183829Y0118764D01*
X0182512Y0118219D01*
X0181088Y0118219D01*
X0180450Y0118483D01*
X0180450Y0116323D01*
X0180085Y0115441D01*
X0176631Y0111987D01*
X0176631Y0111088D01*
X0176086Y0109771D01*
X0175079Y0108764D01*
X0173762Y0108219D01*
X0172338Y0108219D01*
X0171021Y0108764D01*
X0170014Y0109771D01*
X0169469Y0111088D01*
X0169469Y0112512D01*
X0170014Y0113829D01*
X0171021Y0114836D01*
X0172338Y0115381D01*
X0173237Y0115381D01*
X0175650Y0117794D01*
X0175650Y0181967D01*
X0175042Y0182575D01*
X0174601Y0182134D01*
X0174044Y0181730D01*
X0173430Y0181417D01*
X0172775Y0181204D01*
X0172095Y0181096D01*
X0171751Y0181096D01*
X0171751Y0185471D01*
X0171751Y0185471D01*
X0171751Y0181096D01*
X0171406Y0181096D01*
X0170726Y0181204D01*
X0170071Y0181417D01*
X0169458Y0181730D01*
X0168901Y0182134D01*
X0168414Y0182621D01*
X0168009Y0183178D01*
X0167696Y0183792D01*
X0167484Y0184447D01*
X0167376Y0185127D01*
X0167376Y0185471D01*
X0171751Y0185471D01*
X0171751Y0185471D01*
X0167376Y0185471D01*
X0167376Y0185816D01*
X0167484Y0186496D01*
X0167696Y0187151D01*
X0168009Y0187764D01*
X0168414Y0188321D01*
X0168901Y0188808D01*
X0169458Y0189213D01*
X0169825Y0189400D01*
X0166544Y0189400D01*
X0164200Y0187056D01*
X0164200Y0180450D01*
X0168527Y0180450D01*
X0169409Y0180085D01*
X0173159Y0176335D01*
X0173835Y0175659D01*
X0174200Y0174777D01*
X0174200Y0159464D01*
X0174836Y0158829D01*
X0175381Y0157512D01*
X0175381Y0156088D01*
X0174836Y0154771D01*
X0173829Y0153764D01*
X0172512Y0153219D01*
X0171088Y0153219D01*
X0169771Y0153764D01*
X0168764Y0154771D01*
X0168219Y0156088D01*
X0168219Y0157512D01*
X0168764Y0158829D01*
X0169400Y0159464D01*
X0169400Y0173306D01*
X0167056Y0175650D01*
X0162573Y0175650D01*
X0161691Y0176015D01*
X0161015Y0176691D01*
X0159765Y0177941D01*
X0159400Y0178823D01*
X0159400Y0188527D01*
X0159765Y0189409D01*
X0161800Y0188050D02*
X0161800Y0179300D01*
X0163050Y0178050D01*
X0168050Y0178050D01*
X0171800Y0174300D01*
X0171800Y0156800D01*
X0174392Y0159272D02*
X0175650Y0159272D01*
X0175650Y0160870D02*
X0174200Y0160870D01*
X0174200Y0162469D02*
X0175650Y0162469D01*
X0175650Y0164068D02*
X0174200Y0164068D01*
X0174200Y0165666D02*
X0175650Y0165666D01*
X0175650Y0167265D02*
X0174200Y0167265D01*
X0174200Y0168863D02*
X0175650Y0168863D01*
X0175650Y0170462D02*
X0174200Y0170462D01*
X0174200Y0172060D02*
X0175650Y0172060D01*
X0175650Y0173659D02*
X0174200Y0173659D01*
X0174001Y0175257D02*
X0175650Y0175257D01*
X0175650Y0176856D02*
X0172638Y0176856D01*
X0171040Y0178454D02*
X0175650Y0178454D01*
X0175650Y0180053D02*
X0169441Y0180053D01*
X0169612Y0181651D02*
X0164200Y0181651D01*
X0164200Y0183250D02*
X0167973Y0183250D01*
X0167420Y0184848D02*
X0164200Y0184848D01*
X0164200Y0186447D02*
X0167476Y0186447D01*
X0168213Y0188045D02*
X0165189Y0188045D01*
X0161800Y0188050D02*
X0165550Y0191800D01*
X0173050Y0191800D01*
X0174654Y0190196D01*
X0174900Y0190196D01*
X0178050Y0185471D02*
X0178050Y0116800D01*
X0173050Y0111800D01*
X0170699Y0114514D02*
X0137626Y0114514D01*
X0137961Y0114179D02*
X0136779Y0115361D01*
X0135235Y0116000D01*
X0128365Y0116000D01*
X0126821Y0115361D01*
X0125639Y0114179D01*
X0125000Y0112635D01*
X0125000Y0110965D01*
X0125639Y0109421D01*
X0126821Y0108239D01*
X0128365Y0107600D01*
X0135235Y0107600D01*
X0136779Y0108239D01*
X0137961Y0109421D01*
X0138600Y0110965D01*
X0138600Y0112635D01*
X0137961Y0114179D01*
X0138484Y0112915D02*
X0169636Y0112915D01*
X0169469Y0111317D02*
X0138600Y0111317D01*
X0138084Y0109718D02*
X0170067Y0109718D01*
X0166123Y0106200D02*
X0164300Y0106200D01*
X0164300Y0101800D01*
X0168700Y0101800D01*
X0168700Y0103623D01*
X0166123Y0106200D01*
X0167400Y0104923D02*
X0195650Y0104923D01*
X0195650Y0106521D02*
X0119200Y0106521D01*
X0119200Y0104923D02*
X0126383Y0104923D01*
X0126821Y0105361D02*
X0125639Y0104179D01*
X0125000Y0102635D01*
X0125000Y0100965D01*
X0125639Y0099421D01*
X0126821Y0098239D01*
X0128365Y0097600D01*
X0135235Y0097600D01*
X0136779Y0098239D01*
X0137940Y0099400D01*
X0140760Y0099400D01*
X0141921Y0098239D01*
X0143465Y0097600D01*
X0145135Y0097600D01*
X0146679Y0098239D01*
X0147861Y0099421D01*
X0148500Y0100965D01*
X0148500Y0102635D01*
X0147861Y0104179D01*
X0146679Y0105361D01*
X0145135Y0106000D01*
X0143465Y0106000D01*
X0141921Y0105361D01*
X0140760Y0104200D01*
X0137940Y0104200D01*
X0136779Y0105361D01*
X0135235Y0106000D01*
X0128365Y0106000D01*
X0126821Y0105361D01*
X0125285Y0103324D02*
X0119200Y0103324D01*
X0119200Y0101726D02*
X0125000Y0101726D01*
X0125347Y0100127D02*
X0119200Y0100127D01*
X0119200Y0098529D02*
X0126532Y0098529D01*
X0127511Y0095878D02*
X0126894Y0095563D01*
X0126334Y0095156D01*
X0125844Y0094666D01*
X0125437Y0094106D01*
X0125122Y0093489D01*
X0124908Y0092830D01*
X0124800Y0092146D01*
X0124800Y0091800D01*
X0131800Y0091800D01*
X0131800Y0091800D01*
X0131800Y0096200D01*
X0134746Y0096200D01*
X0135430Y0096092D01*
X0136089Y0095878D01*
X0136706Y0095563D01*
X0137266Y0095156D01*
X0137756Y0094666D01*
X0138163Y0094106D01*
X0138478Y0093489D01*
X0138692Y0092830D01*
X0138800Y0092146D01*
X0138800Y0091800D01*
X0131800Y0091800D01*
X0131800Y0091800D01*
X0131800Y0087400D01*
X0134746Y0087400D01*
X0135430Y0087508D01*
X0136089Y0087722D01*
X0136706Y0088037D01*
X0137266Y0088444D01*
X0137756Y0088934D01*
X0138163Y0089494D01*
X0138478Y0090111D01*
X0138692Y0090770D01*
X0138800Y0091454D01*
X0138800Y0091800D01*
X0131800Y0091800D01*
X0131800Y0091800D01*
X0131800Y0091800D01*
X0131800Y0096200D01*
X0128854Y0096200D01*
X0128170Y0096092D01*
X0127511Y0095878D01*
X0126575Y0095332D02*
X0119200Y0095332D01*
X0119200Y0096930D02*
X0194469Y0096930D01*
X0194782Y0095332D02*
X0137025Y0095332D01*
X0138353Y0093733D02*
X0196096Y0093733D01*
X0200003Y0093733D02*
X0208622Y0093733D01*
X0207922Y0095332D02*
X0201318Y0095332D01*
X0201631Y0096930D02*
X0207750Y0096930D01*
X0208029Y0098529D02*
X0201210Y0098529D01*
X0200450Y0100127D02*
X0208882Y0100127D01*
X0211092Y0101726D02*
X0200450Y0101726D01*
X0200450Y0103324D02*
X0209031Y0103324D01*
X0208091Y0104923D02*
X0200450Y0104923D01*
X0200450Y0106521D02*
X0207750Y0106521D01*
X0207860Y0108120D02*
X0200450Y0108120D01*
X0200450Y0109718D02*
X0208522Y0109718D01*
X0210105Y0111317D02*
X0200450Y0111317D01*
X0200450Y0112915D02*
X0209440Y0112915D01*
X0208260Y0114514D02*
X0200450Y0114514D01*
X0200450Y0116112D02*
X0207750Y0116112D01*
X0207750Y0117711D02*
X0200450Y0117711D01*
X0200450Y0119309D02*
X0208353Y0119309D01*
X0209662Y0120908D02*
X0200450Y0120908D01*
X0200450Y0122506D02*
X0209848Y0122506D01*
X0208430Y0124105D02*
X0200450Y0124105D01*
X0200450Y0125703D02*
X0207768Y0125703D01*
X0207750Y0127302D02*
X0200450Y0127302D01*
X0200450Y0128900D02*
X0208183Y0128900D01*
X0209253Y0130499D02*
X0200450Y0130499D01*
X0200450Y0132097D02*
X0210554Y0132097D01*
X0208659Y0133696D02*
X0200450Y0133696D01*
X0200450Y0135294D02*
X0207937Y0135294D01*
X0207750Y0136893D02*
X0200450Y0136893D01*
X0200450Y0138491D02*
X0208014Y0138491D01*
X0208845Y0140090D02*
X0200450Y0140090D01*
X0200450Y0141688D02*
X0211002Y0141688D01*
X0209068Y0143287D02*
X0200450Y0143287D01*
X0200450Y0144885D02*
X0208106Y0144885D01*
X0207750Y0146484D02*
X0200450Y0146484D01*
X0200450Y0148082D02*
X0207845Y0148082D01*
X0208507Y0149681D02*
X0200450Y0149681D01*
X0200450Y0151279D02*
X0210034Y0151279D01*
X0209477Y0152878D02*
X0200450Y0152878D01*
X0200450Y0154476D02*
X0208276Y0154476D01*
X0207750Y0156075D02*
X0200450Y0156075D01*
X0200450Y0157673D02*
X0207750Y0157673D01*
X0208337Y0159272D02*
X0200450Y0159272D01*
X0200450Y0160870D02*
X0209625Y0160870D01*
X0213050Y0162469D02*
X0200450Y0162469D01*
X0200450Y0164068D02*
X0213050Y0164068D01*
X0213050Y0165666D02*
X0200450Y0165666D01*
X0200704Y0167265D02*
X0213050Y0167265D01*
X0210452Y0168863D02*
X0202250Y0168863D01*
X0202250Y0170462D02*
X0208034Y0170462D01*
X0207170Y0172060D02*
X0202250Y0172060D01*
X0200881Y0173659D02*
X0206952Y0173659D01*
X0207259Y0175257D02*
X0200450Y0175257D01*
X0200450Y0176856D02*
X0208247Y0176856D01*
X0208868Y0178454D02*
X0200450Y0178454D01*
X0200450Y0180053D02*
X0207850Y0180053D01*
X0207625Y0181651D02*
X0200450Y0181651D01*
X0200450Y0183250D02*
X0208037Y0183250D01*
X0209318Y0184848D02*
X0200450Y0184848D01*
X0200450Y0186447D02*
X0208749Y0186447D01*
X0207801Y0188045D02*
X0200450Y0188045D01*
X0200538Y0189644D02*
X0207625Y0189644D01*
X0208086Y0191242D02*
X0202136Y0191242D01*
X0203735Y0192841D02*
X0209439Y0192841D01*
X0208631Y0194439D02*
X0205333Y0194439D01*
X0204674Y0197174D02*
X0198050Y0190550D01*
X0191800Y0196800D01*
X0155550Y0196800D01*
X0153050Y0199300D01*
X0153050Y0206800D01*
X0149880Y0204030D02*
X0149259Y0204030D01*
X0149750Y0203540D02*
X0147290Y0206000D01*
X0143810Y0206000D01*
X0141350Y0203540D01*
X0141350Y0200060D01*
X0143810Y0197600D01*
X0147290Y0197600D01*
X0149750Y0200060D01*
X0149750Y0203540D01*
X0149750Y0202432D02*
X0150650Y0202432D01*
X0150650Y0200833D02*
X0149750Y0200833D01*
X0148924Y0199235D02*
X0150650Y0199235D01*
X0151320Y0197636D02*
X0147326Y0197636D01*
X0143774Y0197636D02*
X0111000Y0197636D01*
X0111000Y0197560D02*
X0108540Y0195100D01*
X0105060Y0195100D01*
X0102600Y0197560D01*
X0102600Y0201040D01*
X0105060Y0203500D01*
X0108540Y0203500D01*
X0111000Y0201040D01*
X0111000Y0197560D01*
X0111000Y0199235D02*
X0142176Y0199235D01*
X0141350Y0200833D02*
X0111000Y0200833D01*
X0109608Y0202432D02*
X0141350Y0202432D01*
X0141841Y0204030D02*
X0052950Y0204030D01*
X0052950Y0202432D02*
X0063709Y0202432D01*
X0064977Y0203700D02*
X0062400Y0201123D01*
X0062400Y0199300D01*
X0066800Y0199300D01*
X0071200Y0199300D01*
X0071200Y0201123D01*
X0068623Y0203700D01*
X0066800Y0203700D01*
X0066800Y0199300D01*
X0066800Y0199300D01*
X0066800Y0199300D01*
X0071200Y0199300D01*
X0071200Y0197477D01*
X0068623Y0194900D01*
X0066800Y0194900D01*
X0066800Y0199300D01*
X0066800Y0199300D01*
X0066800Y0199300D01*
X0066800Y0203700D01*
X0064977Y0203700D01*
X0066800Y0202432D02*
X0066800Y0202432D01*
X0066800Y0200833D02*
X0066800Y0200833D01*
X0066800Y0199300D02*
X0062400Y0199300D01*
X0062400Y0197477D01*
X0064977Y0194900D01*
X0066800Y0194900D01*
X0066800Y0199300D01*
X0066800Y0199235D02*
X0066800Y0199235D01*
X0066800Y0197636D02*
X0066800Y0197636D01*
X0066800Y0196038D02*
X0066800Y0196038D01*
X0069760Y0196038D02*
X0104123Y0196038D01*
X0102600Y0197636D02*
X0071200Y0197636D01*
X0071200Y0199235D02*
X0102600Y0199235D01*
X0102600Y0200833D02*
X0071200Y0200833D01*
X0069891Y0202432D02*
X0103992Y0202432D01*
X0109477Y0196038D02*
X0152918Y0196038D01*
X0154978Y0194439D02*
X0131633Y0194439D01*
X0133232Y0192841D02*
X0163197Y0192841D01*
X0161598Y0191242D02*
X0133700Y0191242D01*
X0137292Y0184848D02*
X0141408Y0184848D01*
X0142560Y0186000D02*
X0140100Y0183540D01*
X0140100Y0180060D01*
X0142560Y0177600D01*
X0146040Y0177600D01*
X0148500Y0180060D01*
X0148500Y0183540D01*
X0146040Y0186000D01*
X0142560Y0186000D01*
X0140100Y0183250D02*
X0138346Y0183250D01*
X0138600Y0181651D02*
X0140100Y0181651D01*
X0140108Y0180053D02*
X0138222Y0180053D01*
X0136994Y0178454D02*
X0141706Y0178454D01*
X0142477Y0176200D02*
X0139900Y0173623D01*
X0139900Y0171800D01*
X0144300Y0171800D01*
X0144300Y0171800D01*
X0144300Y0176200D01*
X0146123Y0176200D01*
X0148700Y0173623D01*
X0148700Y0171800D01*
X0144300Y0171800D01*
X0144300Y0171800D01*
X0144300Y0171800D01*
X0144300Y0176200D01*
X0142477Y0176200D01*
X0141535Y0175257D02*
X0137127Y0175257D01*
X0138391Y0173659D02*
X0139936Y0173659D01*
X0139900Y0172060D02*
X0138800Y0172060D01*
X0139900Y0171800D02*
X0139900Y0169977D01*
X0142477Y0167400D01*
X0144300Y0167400D01*
X0146123Y0167400D01*
X0148700Y0169977D01*
X0148700Y0171800D01*
X0144300Y0171800D01*
X0144300Y0167400D01*
X0144300Y0171800D01*
X0144300Y0171800D01*
X0139900Y0171800D01*
X0139900Y0170462D02*
X0138592Y0170462D01*
X0137686Y0168863D02*
X0141014Y0168863D01*
X0144300Y0168863D02*
X0144300Y0168863D01*
X0144300Y0170462D02*
X0144300Y0170462D01*
X0144300Y0172060D02*
X0144300Y0172060D01*
X0144300Y0173659D02*
X0144300Y0173659D01*
X0144300Y0175257D02*
X0144300Y0175257D01*
X0147065Y0175257D02*
X0167449Y0175257D01*
X0169047Y0173659D02*
X0148664Y0173659D01*
X0148700Y0172060D02*
X0169400Y0172060D01*
X0169400Y0170462D02*
X0148700Y0170462D01*
X0147586Y0168863D02*
X0169400Y0168863D01*
X0169400Y0167265D02*
X0052950Y0167265D01*
X0052950Y0168863D02*
X0096197Y0168863D01*
X0095208Y0170462D02*
X0052950Y0170462D01*
X0052950Y0172060D02*
X0095000Y0172060D01*
X0095424Y0173659D02*
X0052950Y0173659D01*
X0052950Y0175257D02*
X0096717Y0175257D01*
X0096606Y0178454D02*
X0088144Y0178454D01*
X0087290Y0177600D02*
X0089750Y0180060D01*
X0089750Y0183540D01*
X0087290Y0186000D01*
X0083810Y0186000D01*
X0081350Y0183540D01*
X0081350Y0180060D01*
X0083810Y0177600D01*
X0087290Y0177600D01*
X0089742Y0180053D02*
X0095378Y0180053D01*
X0095000Y0181651D02*
X0089750Y0181651D01*
X0089750Y0183250D02*
X0095254Y0183250D01*
X0096308Y0184848D02*
X0088442Y0184848D01*
X0082658Y0184848D02*
X0052950Y0184848D01*
X0052950Y0183250D02*
X0081350Y0183250D01*
X0081350Y0181651D02*
X0052950Y0181651D01*
X0052950Y0180053D02*
X0081358Y0180053D01*
X0082956Y0178454D02*
X0052950Y0178454D01*
X0052950Y0176856D02*
X0160850Y0176856D01*
X0159553Y0178454D02*
X0146894Y0178454D01*
X0148492Y0180053D02*
X0159400Y0180053D01*
X0159400Y0181651D02*
X0148500Y0181651D01*
X0148500Y0183250D02*
X0159400Y0183250D01*
X0159400Y0184848D02*
X0147192Y0184848D01*
X0131800Y0175257D02*
X0131800Y0175257D01*
X0131800Y0173659D02*
X0131800Y0173659D01*
X0131800Y0172060D02*
X0131800Y0172060D01*
X0131800Y0170462D02*
X0131800Y0170462D01*
X0131800Y0168863D02*
X0131800Y0168863D01*
X0136042Y0165666D02*
X0169400Y0165666D01*
X0169400Y0164068D02*
X0138007Y0164068D01*
X0138600Y0162469D02*
X0169400Y0162469D01*
X0169400Y0160870D02*
X0138561Y0160870D01*
X0137812Y0159272D02*
X0169208Y0159272D01*
X0168286Y0157673D02*
X0135413Y0157673D01*
X0135235Y0156000D02*
X0136779Y0155361D01*
X0137961Y0154179D01*
X0138600Y0152635D01*
X0138600Y0150965D01*
X0137961Y0149421D01*
X0136779Y0148239D01*
X0135235Y0147600D01*
X0128365Y0147600D01*
X0126821Y0148239D01*
X0125639Y0149421D01*
X0125000Y0150965D01*
X0125000Y0152635D01*
X0125639Y0154179D01*
X0126821Y0155361D01*
X0128365Y0156000D01*
X0135235Y0156000D01*
X0137663Y0154476D02*
X0169059Y0154476D01*
X0168224Y0156075D02*
X0120376Y0156075D01*
X0120314Y0157673D02*
X0128187Y0157673D01*
X0125937Y0154476D02*
X0119541Y0154476D01*
X0119200Y0152878D02*
X0125100Y0152878D01*
X0125000Y0151279D02*
X0119200Y0151279D01*
X0119200Y0149681D02*
X0125532Y0149681D01*
X0127200Y0148082D02*
X0119200Y0148082D01*
X0119200Y0146484D02*
X0175650Y0146484D01*
X0175650Y0148082D02*
X0136400Y0148082D01*
X0138068Y0149681D02*
X0175650Y0149681D01*
X0175650Y0151279D02*
X0138600Y0151279D01*
X0138500Y0152878D02*
X0175650Y0152878D01*
X0175650Y0154476D02*
X0174541Y0154476D01*
X0175376Y0156075D02*
X0175650Y0156075D01*
X0175650Y0157673D02*
X0175314Y0157673D01*
X0184200Y0157673D02*
X0195650Y0157673D01*
X0195650Y0156075D02*
X0184200Y0156075D01*
X0184200Y0154476D02*
X0195650Y0154476D01*
X0195650Y0152878D02*
X0184200Y0152878D01*
X0184200Y0151279D02*
X0195650Y0151279D01*
X0195650Y0149681D02*
X0184200Y0149681D01*
X0184200Y0148082D02*
X0195650Y0148082D01*
X0195650Y0146484D02*
X0184200Y0146484D01*
X0184200Y0144885D02*
X0195650Y0144885D01*
X0195650Y0143287D02*
X0184200Y0143287D01*
X0184200Y0141688D02*
X0195650Y0141688D01*
X0195650Y0140090D02*
X0184200Y0140090D01*
X0184200Y0138491D02*
X0195650Y0138491D01*
X0195650Y0136893D02*
X0184200Y0136893D01*
X0184200Y0135294D02*
X0195650Y0135294D01*
X0195650Y0133696D02*
X0184200Y0133696D01*
X0184200Y0132097D02*
X0195650Y0132097D01*
X0195650Y0130499D02*
X0184200Y0130499D01*
X0184200Y0128900D02*
X0195650Y0128900D01*
X0195650Y0127302D02*
X0184200Y0127302D01*
X0184200Y0125703D02*
X0195650Y0125703D01*
X0195650Y0124105D02*
X0184560Y0124105D01*
X0185381Y0122506D02*
X0195650Y0122506D01*
X0195650Y0120908D02*
X0185307Y0120908D01*
X0184374Y0119309D02*
X0195650Y0119309D01*
X0195650Y0117711D02*
X0180450Y0117711D01*
X0180363Y0116112D02*
X0195650Y0116112D01*
X0195650Y0114514D02*
X0179158Y0114514D01*
X0177559Y0112915D02*
X0195650Y0112915D01*
X0195650Y0111317D02*
X0176631Y0111317D01*
X0176033Y0109718D02*
X0195650Y0109718D01*
X0195650Y0108120D02*
X0136490Y0108120D01*
X0137217Y0104923D02*
X0141483Y0104923D01*
X0144300Y0101800D02*
X0131800Y0101800D01*
X0127110Y0108120D02*
X0119200Y0108120D01*
X0119200Y0109718D02*
X0125516Y0109718D01*
X0125000Y0111317D02*
X0119200Y0111317D01*
X0119200Y0112915D02*
X0125116Y0112915D01*
X0125974Y0114514D02*
X0119200Y0114514D01*
X0119200Y0116112D02*
X0173968Y0116112D01*
X0175567Y0117711D02*
X0135503Y0117711D01*
X0135235Y0117600D02*
X0136779Y0118239D01*
X0137961Y0119421D01*
X0138600Y0120965D01*
X0138600Y0122635D01*
X0137961Y0124179D01*
X0136779Y0125361D01*
X0135235Y0126000D01*
X0128365Y0126000D01*
X0126821Y0125361D01*
X0125639Y0124179D01*
X0125000Y0122635D01*
X0125000Y0120965D01*
X0125639Y0119421D01*
X0126821Y0118239D01*
X0128365Y0117600D01*
X0135235Y0117600D01*
X0137849Y0119309D02*
X0175650Y0119309D01*
X0175650Y0120908D02*
X0138576Y0120908D01*
X0138600Y0122506D02*
X0175650Y0122506D01*
X0175650Y0124105D02*
X0137991Y0124105D01*
X0135952Y0125703D02*
X0175650Y0125703D01*
X0175650Y0127302D02*
X0119200Y0127302D01*
X0119200Y0128900D02*
X0126160Y0128900D01*
X0125639Y0129421D02*
X0126821Y0128239D01*
X0128365Y0127600D01*
X0135235Y0127600D01*
X0136779Y0128239D01*
X0137961Y0129421D01*
X0138600Y0130965D01*
X0138600Y0132635D01*
X0137961Y0134179D01*
X0136779Y0135361D01*
X0135235Y0136000D01*
X0128365Y0136000D01*
X0126821Y0135361D01*
X0125639Y0134179D01*
X0125000Y0132635D01*
X0125000Y0130965D01*
X0125639Y0129421D01*
X0125193Y0130499D02*
X0119200Y0130499D01*
X0119200Y0132097D02*
X0125000Y0132097D01*
X0125439Y0133696D02*
X0119200Y0133696D01*
X0119200Y0135294D02*
X0126755Y0135294D01*
X0128365Y0137600D02*
X0135235Y0137600D01*
X0136779Y0138239D01*
X0137961Y0139421D01*
X0138600Y0140965D01*
X0138600Y0142635D01*
X0137961Y0144179D01*
X0136779Y0145361D01*
X0135235Y0146000D01*
X0128365Y0146000D01*
X0126821Y0145361D01*
X0125639Y0144179D01*
X0125000Y0142635D01*
X0125000Y0140965D01*
X0125639Y0139421D01*
X0126821Y0138239D01*
X0128365Y0137600D01*
X0126569Y0138491D02*
X0119200Y0138491D01*
X0119200Y0136893D02*
X0175650Y0136893D01*
X0175650Y0138491D02*
X0137031Y0138491D01*
X0138238Y0140090D02*
X0175650Y0140090D01*
X0175650Y0141688D02*
X0138600Y0141688D01*
X0138330Y0143287D02*
X0175650Y0143287D01*
X0175650Y0144885D02*
X0137254Y0144885D01*
X0136845Y0135294D02*
X0140605Y0135294D01*
X0141310Y0136000D02*
X0138850Y0133540D01*
X0138850Y0130060D01*
X0141310Y0127600D01*
X0144790Y0127600D01*
X0147250Y0130060D01*
X0147250Y0133540D01*
X0144790Y0136000D01*
X0141310Y0136000D01*
X0139006Y0133696D02*
X0138161Y0133696D01*
X0138600Y0132097D02*
X0138850Y0132097D01*
X0138850Y0130499D02*
X0138407Y0130499D01*
X0137440Y0128900D02*
X0140010Y0128900D01*
X0146090Y0128900D02*
X0149727Y0128900D01*
X0148650Y0129977D02*
X0151227Y0127400D01*
X0153050Y0127400D01*
X0154873Y0127400D01*
X0157450Y0129977D01*
X0157450Y0131800D01*
X0157450Y0133623D01*
X0154873Y0136200D01*
X0153050Y0136200D01*
X0153050Y0131800D01*
X0157450Y0131800D01*
X0153050Y0131800D01*
X0153050Y0131800D01*
X0153050Y0131800D01*
X0153050Y0127400D01*
X0153050Y0131800D01*
X0153050Y0131800D01*
X0153050Y0131800D01*
X0148650Y0131800D01*
X0148650Y0133623D01*
X0151227Y0136200D01*
X0153050Y0136200D01*
X0153050Y0131800D01*
X0148650Y0131800D01*
X0148650Y0129977D01*
X0148650Y0130499D02*
X0147250Y0130499D01*
X0147250Y0132097D02*
X0148650Y0132097D01*
X0148723Y0133696D02*
X0147094Y0133696D01*
X0145495Y0135294D02*
X0150322Y0135294D01*
X0153050Y0135294D02*
X0153050Y0135294D01*
X0153050Y0133696D02*
X0153050Y0133696D01*
X0153050Y0132097D02*
X0153050Y0132097D01*
X0153050Y0130499D02*
X0153050Y0130499D01*
X0153050Y0128900D02*
X0153050Y0128900D01*
X0156373Y0128900D02*
X0175650Y0128900D01*
X0175650Y0130499D02*
X0157450Y0130499D01*
X0157450Y0132097D02*
X0175650Y0132097D01*
X0175650Y0133696D02*
X0157377Y0133696D01*
X0155778Y0135294D02*
X0175650Y0135294D01*
X0181800Y0121800D02*
X0181800Y0171800D01*
X0191800Y0181800D01*
X0191800Y0186800D01*
X0188404Y0190196D01*
X0181200Y0190196D01*
X0184459Y0192841D02*
X0192365Y0192841D01*
X0193964Y0191242D02*
X0190752Y0191242D01*
X0192350Y0189644D02*
X0195562Y0189644D01*
X0195650Y0188045D02*
X0193882Y0188045D01*
X0194200Y0186447D02*
X0195650Y0186447D01*
X0195650Y0184848D02*
X0194200Y0184848D01*
X0194200Y0183250D02*
X0195650Y0183250D01*
X0195650Y0181651D02*
X0194200Y0181651D01*
X0193447Y0180053D02*
X0195650Y0180053D01*
X0195650Y0178454D02*
X0191848Y0178454D01*
X0190250Y0176856D02*
X0195650Y0176856D01*
X0195650Y0175257D02*
X0188651Y0175257D01*
X0191164Y0173659D02*
X0195219Y0173659D01*
X0193850Y0172060D02*
X0192450Y0172060D01*
X0192450Y0170462D02*
X0193850Y0170462D01*
X0193850Y0168863D02*
X0192450Y0168863D01*
X0190987Y0167265D02*
X0195396Y0167265D01*
X0195650Y0165666D02*
X0184200Y0165666D01*
X0184200Y0164068D02*
X0195650Y0164068D01*
X0195650Y0162469D02*
X0184200Y0162469D01*
X0184200Y0160870D02*
X0195650Y0160870D01*
X0195650Y0159272D02*
X0184200Y0159272D01*
X0184200Y0167265D02*
X0185113Y0167265D01*
X0188050Y0167265D02*
X0188050Y0167265D01*
X0188050Y0168863D02*
X0188050Y0168863D01*
X0188050Y0170462D02*
X0188050Y0170462D01*
X0198050Y0170550D02*
X0198050Y0096800D01*
X0195650Y0100127D02*
X0168700Y0100127D01*
X0168700Y0099977D02*
X0168700Y0101800D01*
X0164300Y0101800D01*
X0164300Y0101800D01*
X0164300Y0101800D01*
X0164300Y0097400D01*
X0166123Y0097400D01*
X0168700Y0099977D01*
X0168700Y0101726D02*
X0195650Y0101726D01*
X0195650Y0103324D02*
X0168700Y0103324D01*
X0164300Y0103324D02*
X0164300Y0103324D01*
X0164300Y0101800D02*
X0164300Y0106200D01*
X0162477Y0106200D01*
X0159900Y0103623D01*
X0159900Y0101800D01*
X0164300Y0101800D01*
X0164300Y0101800D01*
X0164300Y0101800D01*
X0164300Y0097400D01*
X0162477Y0097400D01*
X0159900Y0099977D01*
X0159900Y0101800D01*
X0164300Y0101800D01*
X0164300Y0101726D02*
X0164300Y0101726D01*
X0164300Y0100127D02*
X0164300Y0100127D01*
X0164300Y0098529D02*
X0164300Y0098529D01*
X0167251Y0098529D02*
X0194890Y0098529D01*
X0207567Y0087339D02*
X0119200Y0087339D01*
X0119200Y0088937D02*
X0125841Y0088937D01*
X0125844Y0088934D02*
X0126334Y0088444D01*
X0126894Y0088037D01*
X0127511Y0087722D01*
X0128170Y0087508D01*
X0128854Y0087400D01*
X0131800Y0087400D01*
X0131800Y0091800D01*
X0124800Y0091800D01*
X0124800Y0091454D01*
X0124908Y0090770D01*
X0125122Y0090111D01*
X0125437Y0089494D01*
X0125844Y0088934D01*
X0124984Y0090536D02*
X0119200Y0090536D01*
X0119200Y0092134D02*
X0124800Y0092134D01*
X0125247Y0093733D02*
X0119200Y0093733D01*
X0114400Y0093733D02*
X0108145Y0093733D01*
X0107961Y0094179D02*
X0108600Y0092635D01*
X0108600Y0090965D01*
X0107961Y0089421D01*
X0106779Y0088239D01*
X0105235Y0087600D01*
X0098365Y0087600D01*
X0096821Y0088239D01*
X0095660Y0089400D01*
X0094044Y0089400D01*
X0093101Y0088456D01*
X0093350Y0087854D01*
X0093350Y0085746D01*
X0092543Y0083798D01*
X0091052Y0082307D01*
X0089104Y0081500D01*
X0086996Y0081500D01*
X0085048Y0082307D01*
X0083557Y0083798D01*
X0082750Y0085746D01*
X0082750Y0087854D01*
X0083557Y0089802D01*
X0085048Y0091293D01*
X0085994Y0091685D01*
X0085939Y0091703D01*
X0085167Y0092096D01*
X0084467Y0092605D01*
X0083855Y0093217D01*
X0083346Y0093917D01*
X0082953Y0094689D01*
X0082685Y0095512D01*
X0082550Y0096367D01*
X0082550Y0096600D01*
X0087850Y0096600D01*
X0087850Y0097000D01*
X0082550Y0097000D01*
X0082550Y0097233D01*
X0082685Y0098088D01*
X0082953Y0098911D01*
X0083346Y0099683D01*
X0083855Y0100383D01*
X0084467Y0100995D01*
X0085167Y0101504D01*
X0085939Y0101897D01*
X0085994Y0101915D01*
X0085048Y0102307D01*
X0083557Y0103798D01*
X0082750Y0105746D01*
X0082750Y0107854D01*
X0083557Y0109802D01*
X0085048Y0111293D01*
X0086996Y0112100D01*
X0089104Y0112100D01*
X0091052Y0111293D01*
X0092543Y0109802D01*
X0093350Y0107854D01*
X0093350Y0105746D01*
X0093101Y0105144D01*
X0094044Y0104200D01*
X0095660Y0104200D01*
X0096821Y0105361D01*
X0098365Y0106000D01*
X0105235Y0106000D01*
X0106779Y0105361D01*
X0107961Y0104179D01*
X0108600Y0102635D01*
X0108600Y0100965D01*
X0107961Y0099421D01*
X0106779Y0098239D01*
X0105235Y0097600D01*
X0098365Y0097600D01*
X0096821Y0098239D01*
X0095660Y0099400D01*
X0092898Y0099400D01*
X0093147Y0098911D01*
X0093415Y0098088D01*
X0093550Y0097233D01*
X0093550Y0097000D01*
X0088250Y0097000D01*
X0088250Y0096600D01*
X0093550Y0096600D01*
X0093550Y0096367D01*
X0093415Y0095512D01*
X0093147Y0094689D01*
X0092898Y0094200D01*
X0095660Y0094200D01*
X0096821Y0095361D01*
X0098365Y0096000D01*
X0105235Y0096000D01*
X0106779Y0095361D01*
X0107961Y0094179D01*
X0106808Y0095332D02*
X0114400Y0095332D01*
X0114400Y0096930D02*
X0088250Y0096930D01*
X0087850Y0096930D02*
X0032100Y0096930D01*
X0031928Y0095332D02*
X0060968Y0095332D01*
X0061088Y0095381D02*
X0059771Y0094836D01*
X0058764Y0093829D01*
X0058219Y0092512D01*
X0058219Y0091088D01*
X0058764Y0089771D01*
X0059400Y0089136D01*
X0059400Y0075073D01*
X0059765Y0074191D01*
X0061969Y0071987D01*
X0061969Y0071088D01*
X0062514Y0069771D01*
X0063521Y0068764D01*
X0064838Y0068219D01*
X0066262Y0068219D01*
X0067579Y0068764D01*
X0068586Y0069771D01*
X0069131Y0071088D01*
X0069131Y0072512D01*
X0068586Y0073829D01*
X0067579Y0074836D01*
X0066262Y0075381D01*
X0065363Y0075381D01*
X0064200Y0076544D01*
X0064200Y0089136D01*
X0064836Y0089771D01*
X0065381Y0091088D01*
X0065381Y0092512D01*
X0064836Y0093829D01*
X0063829Y0094836D01*
X0062512Y0095381D01*
X0061088Y0095381D01*
X0062632Y0095332D02*
X0082744Y0095332D01*
X0083480Y0093733D02*
X0064875Y0093733D01*
X0065381Y0092134D02*
X0085114Y0092134D01*
X0084291Y0090536D02*
X0065153Y0090536D01*
X0064200Y0088937D02*
X0083199Y0088937D01*
X0082750Y0087339D02*
X0064200Y0087339D01*
X0064200Y0085740D02*
X0082752Y0085740D01*
X0083414Y0084142D02*
X0064200Y0084142D01*
X0064200Y0082543D02*
X0084811Y0082543D01*
X0088050Y0086800D02*
X0093050Y0091800D01*
X0101800Y0091800D01*
X0096792Y0095332D02*
X0093356Y0095332D01*
X0093271Y0098529D02*
X0096532Y0098529D01*
X0093050Y0101800D02*
X0088050Y0106800D01*
X0085105Y0111317D02*
X0029745Y0111317D01*
X0030410Y0112915D02*
X0044745Y0112915D01*
X0045060Y0112600D02*
X0048540Y0112600D01*
X0051000Y0115060D01*
X0051000Y0118540D01*
X0048540Y0121000D01*
X0045060Y0121000D01*
X0042600Y0118540D01*
X0042600Y0115060D01*
X0045060Y0112600D01*
X0043147Y0114514D02*
X0031590Y0114514D01*
X0032100Y0116112D02*
X0042600Y0116112D01*
X0042600Y0117711D02*
X0032100Y0117711D01*
X0031497Y0119309D02*
X0043370Y0119309D01*
X0044968Y0120908D02*
X0030188Y0120908D01*
X0030002Y0122506D02*
X0095000Y0122506D01*
X0095000Y0122635D02*
X0095000Y0120965D01*
X0095639Y0119421D01*
X0096821Y0118239D01*
X0098365Y0117600D01*
X0105235Y0117600D01*
X0106779Y0118239D01*
X0107961Y0119421D01*
X0108600Y0120965D01*
X0108600Y0122635D01*
X0107961Y0124179D01*
X0106779Y0125361D01*
X0105235Y0126000D01*
X0098365Y0126000D01*
X0096821Y0125361D01*
X0095639Y0124179D01*
X0095000Y0122635D01*
X0095609Y0124105D02*
X0031420Y0124105D01*
X0032082Y0125703D02*
X0097648Y0125703D01*
X0098365Y0127600D02*
X0105235Y0127600D01*
X0106779Y0128239D01*
X0107961Y0129421D01*
X0108600Y0130965D01*
X0108600Y0132635D01*
X0107961Y0134179D01*
X0106779Y0135361D01*
X0105235Y0136000D01*
X0098365Y0136000D01*
X0096821Y0135361D01*
X0095639Y0134179D01*
X0095000Y0132635D01*
X0095000Y0130965D01*
X0095639Y0129421D01*
X0096821Y0128239D01*
X0098365Y0127600D01*
X0096160Y0128900D02*
X0031667Y0128900D01*
X0032100Y0127302D02*
X0114400Y0127302D01*
X0114400Y0128900D02*
X0107440Y0128900D01*
X0108407Y0130499D02*
X0114400Y0130499D01*
X0114400Y0132097D02*
X0108600Y0132097D01*
X0108161Y0133696D02*
X0114400Y0133696D01*
X0114400Y0135294D02*
X0106845Y0135294D01*
X0105235Y0137600D02*
X0106779Y0138239D01*
X0107961Y0139421D01*
X0108600Y0140965D01*
X0108600Y0142635D01*
X0107961Y0144179D01*
X0106779Y0145361D01*
X0105235Y0146000D01*
X0098365Y0146000D01*
X0096821Y0145361D01*
X0095639Y0144179D01*
X0095000Y0142635D01*
X0095000Y0140965D01*
X0095639Y0139421D01*
X0096821Y0138239D01*
X0098365Y0137600D01*
X0105235Y0137600D01*
X0107031Y0138491D02*
X0114400Y0138491D01*
X0114400Y0136893D02*
X0032100Y0136893D01*
X0031913Y0135294D02*
X0096755Y0135294D01*
X0095439Y0133696D02*
X0031191Y0133696D01*
X0029296Y0132097D02*
X0095000Y0132097D01*
X0095193Y0130499D02*
X0030597Y0130499D01*
X0031836Y0138491D02*
X0039180Y0138491D01*
X0037382Y0140090D02*
X0031005Y0140090D01*
X0028848Y0141688D02*
X0036969Y0141688D01*
X0037290Y0143287D02*
X0030782Y0143287D01*
X0031744Y0144885D02*
X0038150Y0144885D01*
X0038150Y0146484D02*
X0032100Y0146484D01*
X0032005Y0148082D02*
X0038150Y0148082D01*
X0038150Y0149681D02*
X0031343Y0149681D01*
X0029816Y0151279D02*
X0038150Y0151279D01*
X0038150Y0152878D02*
X0030373Y0152878D01*
X0031574Y0154476D02*
X0038150Y0154476D01*
X0038150Y0156075D02*
X0032100Y0156075D01*
X0032100Y0157673D02*
X0038150Y0157673D01*
X0038150Y0159272D02*
X0031513Y0159272D01*
X0030225Y0160870D02*
X0038150Y0160870D01*
X0038150Y0162469D02*
X0027400Y0162469D01*
X0027400Y0164068D02*
X0038150Y0164068D01*
X0038150Y0165666D02*
X0027400Y0165666D01*
X0027400Y0167265D02*
X0031158Y0167265D01*
X0031112Y0167279D02*
X0031868Y0167034D01*
X0032653Y0166909D01*
X0032767Y0166909D01*
X0032767Y0171675D01*
X0028002Y0171675D01*
X0028002Y0171560D01*
X0028126Y0170775D01*
X0028372Y0170020D01*
X0028733Y0169312D01*
X0029200Y0168669D01*
X0029761Y0168107D01*
X0030404Y0167640D01*
X0031112Y0167279D01*
X0032767Y0167265D02*
X0033333Y0167265D01*
X0033333Y0166909D02*
X0033447Y0166909D01*
X0034232Y0167034D01*
X0034988Y0167279D01*
X0035696Y0167640D01*
X0036339Y0168107D01*
X0036900Y0168669D01*
X0037367Y0169312D01*
X0037728Y0170020D01*
X0037974Y0170775D01*
X0038098Y0171560D01*
X0038098Y0171675D01*
X0033333Y0171675D01*
X0033333Y0172240D01*
X0038098Y0172240D01*
X0038098Y0172355D01*
X0037974Y0173140D01*
X0037728Y0173895D01*
X0037367Y0174603D01*
X0036900Y0175246D01*
X0036339Y0175808D01*
X0035696Y0176275D01*
X0034988Y0176636D01*
X0034232Y0176881D01*
X0033447Y0177005D01*
X0033333Y0177005D01*
X0033333Y0172240D01*
X0032767Y0172240D01*
X0032767Y0171675D01*
X0033333Y0171675D01*
X0033333Y0166909D01*
X0034942Y0167265D02*
X0038150Y0167265D01*
X0038150Y0168863D02*
X0037041Y0168863D01*
X0037872Y0170462D02*
X0038150Y0170462D01*
X0038150Y0172060D02*
X0033333Y0172060D01*
X0032767Y0172060D02*
X0027400Y0172060D01*
X0028002Y0172240D02*
X0032767Y0172240D01*
X0032767Y0177005D01*
X0032653Y0177005D01*
X0031868Y0176881D01*
X0031112Y0176636D01*
X0030404Y0176275D01*
X0029761Y0175808D01*
X0029200Y0175246D01*
X0028733Y0174603D01*
X0028372Y0173895D01*
X0028126Y0173140D01*
X0028002Y0172355D01*
X0028002Y0172240D01*
X0028295Y0173659D02*
X0027400Y0173659D01*
X0027400Y0175257D02*
X0029211Y0175257D01*
X0027400Y0176856D02*
X0031789Y0176856D01*
X0032767Y0176856D02*
X0033333Y0176856D01*
X0034311Y0176856D02*
X0038150Y0176856D01*
X0038150Y0178454D02*
X0027400Y0178454D01*
X0027400Y0180053D02*
X0038150Y0180053D01*
X0038150Y0181651D02*
X0027400Y0181651D01*
X0027400Y0183250D02*
X0038150Y0183250D01*
X0038150Y0184848D02*
X0027400Y0184848D01*
X0027400Y0186447D02*
X0038150Y0186447D01*
X0038150Y0188045D02*
X0036309Y0188045D01*
X0035796Y0187533D02*
X0037160Y0188896D01*
X0037898Y0190678D01*
X0037898Y0192607D01*
X0037160Y0194389D01*
X0035796Y0195752D01*
X0034014Y0196491D01*
X0032086Y0196491D01*
X0030304Y0195752D01*
X0028940Y0194389D01*
X0028202Y0192607D01*
X0028202Y0190678D01*
X0028940Y0188896D01*
X0030304Y0187533D01*
X0032086Y0186794D01*
X0034014Y0186794D01*
X0035796Y0187533D01*
X0037470Y0189644D02*
X0038150Y0189644D01*
X0038150Y0191242D02*
X0037898Y0191242D01*
X0037801Y0192841D02*
X0038150Y0192841D01*
X0038150Y0194439D02*
X0037109Y0194439D01*
X0038150Y0196038D02*
X0035108Y0196038D01*
X0030992Y0196038D02*
X0027400Y0196038D01*
X0027400Y0197636D02*
X0038150Y0197636D01*
X0038150Y0199235D02*
X0027400Y0199235D01*
X0027400Y0200833D02*
X0038150Y0200833D01*
X0038150Y0202432D02*
X0027400Y0202432D01*
X0027400Y0204030D02*
X0038150Y0204030D01*
X0038150Y0205629D02*
X0032519Y0205629D01*
X0034723Y0207227D02*
X0036377Y0207227D01*
X0040550Y0210550D02*
X0040550Y0141800D01*
X0041920Y0138491D02*
X0096569Y0138491D01*
X0095362Y0140090D02*
X0043718Y0140090D01*
X0044131Y0141688D02*
X0095000Y0141688D01*
X0095270Y0143287D02*
X0043810Y0143287D01*
X0042950Y0144885D02*
X0096346Y0144885D01*
X0097200Y0148082D02*
X0042950Y0148082D01*
X0042950Y0146484D02*
X0114400Y0146484D01*
X0114400Y0148082D02*
X0106400Y0148082D01*
X0106779Y0148239D02*
X0105235Y0147600D01*
X0098365Y0147600D01*
X0096821Y0148239D01*
X0095639Y0149421D01*
X0095000Y0150965D01*
X0095000Y0152635D01*
X0095639Y0154179D01*
X0096821Y0155361D01*
X0098365Y0156000D01*
X0105235Y0156000D01*
X0106779Y0155361D01*
X0107961Y0154179D01*
X0108600Y0152635D01*
X0108600Y0150965D01*
X0107961Y0149421D01*
X0106779Y0148239D01*
X0108068Y0149681D02*
X0114400Y0149681D01*
X0114400Y0151279D02*
X0108600Y0151279D01*
X0108500Y0152878D02*
X0114400Y0152878D01*
X0114059Y0154476D02*
X0107663Y0154476D01*
X0105413Y0157673D02*
X0113286Y0157673D01*
X0113224Y0156075D02*
X0052950Y0156075D01*
X0052950Y0157673D02*
X0098187Y0157673D01*
X0095788Y0159272D02*
X0052950Y0159272D01*
X0052950Y0160870D02*
X0095039Y0160870D01*
X0095000Y0162469D02*
X0052950Y0162469D01*
X0052950Y0164068D02*
X0095593Y0164068D01*
X0097558Y0165666D02*
X0052950Y0165666D01*
X0048150Y0165666D02*
X0042950Y0165666D01*
X0042950Y0164068D02*
X0048150Y0164068D01*
X0048150Y0162469D02*
X0042950Y0162469D01*
X0042950Y0160870D02*
X0048150Y0160870D01*
X0048150Y0159272D02*
X0042950Y0159272D01*
X0042950Y0157673D02*
X0048150Y0157673D01*
X0048150Y0156075D02*
X0042950Y0156075D01*
X0042950Y0154476D02*
X0048150Y0154476D01*
X0047120Y0152878D02*
X0042950Y0152878D01*
X0042950Y0151279D02*
X0046969Y0151279D01*
X0047605Y0149681D02*
X0042950Y0149681D01*
X0050550Y0151800D02*
X0050550Y0210550D01*
X0054723Y0207227D02*
X0056166Y0207227D01*
X0058094Y0205629D02*
X0052950Y0205629D01*
X0052950Y0200833D02*
X0062400Y0200833D01*
X0062400Y0199235D02*
X0052950Y0199235D01*
X0052950Y0197636D02*
X0062400Y0197636D01*
X0063840Y0196038D02*
X0052950Y0196038D01*
X0060350Y0205629D02*
X0060750Y0205629D01*
X0060750Y0207227D02*
X0060350Y0207227D01*
X0060350Y0208826D02*
X0060750Y0208826D01*
X0063006Y0205629D02*
X0068581Y0205629D01*
X0066377Y0207227D02*
X0064934Y0207227D01*
X0072519Y0205629D02*
X0078581Y0205629D01*
X0076377Y0207227D02*
X0074723Y0207227D01*
X0082519Y0205629D02*
X0143439Y0205629D01*
X0143727Y0207400D02*
X0145550Y0207400D01*
X0147373Y0207400D01*
X0149950Y0209977D01*
X0149950Y0211800D01*
X0145550Y0211800D01*
X0145550Y0211800D01*
X0145550Y0207400D01*
X0145550Y0211800D01*
X0145550Y0211800D01*
X0145550Y0211800D01*
X0141150Y0211800D01*
X0141150Y0209977D01*
X0143727Y0207400D01*
X0142302Y0208826D02*
X0133132Y0208826D01*
X0133500Y0210424D02*
X0141150Y0210424D01*
X0141150Y0212023D02*
X0133236Y0212023D01*
X0131917Y0207227D02*
X0148850Y0207227D01*
X0148850Y0205629D02*
X0147661Y0205629D01*
X0148798Y0208826D02*
X0149136Y0208826D01*
X0149950Y0210424D02*
X0150735Y0210424D01*
X0149950Y0212023D02*
X0160466Y0212023D01*
X0158357Y0210424D02*
X0155365Y0210424D01*
X0156964Y0208826D02*
X0157233Y0208826D01*
X0166894Y0212023D02*
X0189206Y0212023D01*
X0187098Y0210424D02*
X0169002Y0210424D01*
X0170127Y0208826D02*
X0185973Y0208826D01*
X0185311Y0207227D02*
X0170789Y0207227D01*
X0170890Y0205629D02*
X0185210Y0205629D01*
X0185245Y0204030D02*
X0170855Y0204030D01*
X0170193Y0202432D02*
X0185907Y0202432D01*
X0186940Y0200833D02*
X0169160Y0200833D01*
X0167275Y0199235D02*
X0188825Y0199235D01*
X0194358Y0197636D02*
X0201742Y0197636D01*
X0200144Y0196038D02*
X0195956Y0196038D01*
X0197555Y0194439D02*
X0198545Y0194439D01*
X0198050Y0190550D02*
X0198050Y0170550D01*
X0175650Y0181651D02*
X0173890Y0181651D01*
X0171751Y0181651D02*
X0171751Y0181651D01*
X0171751Y0183250D02*
X0171751Y0183250D01*
X0171751Y0184848D02*
X0171751Y0184848D01*
X0196015Y0199235D02*
X0203378Y0199235D01*
X0204674Y0197174D02*
X0211800Y0197174D01*
X0209307Y0200833D02*
X0197900Y0200833D01*
X0198933Y0202432D02*
X0207636Y0202432D01*
X0206974Y0204030D02*
X0199595Y0204030D01*
X0199630Y0205629D02*
X0206952Y0205629D01*
X0207455Y0207227D02*
X0199530Y0207227D01*
X0198867Y0208826D02*
X0208722Y0208826D01*
X0213050Y0210424D02*
X0197743Y0210424D01*
X0195634Y0212023D02*
X0213050Y0212023D01*
X0145550Y0210424D02*
X0145550Y0210424D01*
X0145550Y0208826D02*
X0145550Y0208826D01*
X0126683Y0207227D02*
X0084723Y0207227D01*
X0085572Y0208826D02*
X0103834Y0208826D01*
X0102600Y0210424D02*
X0085850Y0210424D01*
X0085677Y0212023D02*
X0102600Y0212023D01*
X0109766Y0208826D02*
X0113834Y0208826D01*
X0112600Y0210424D02*
X0111000Y0210424D01*
X0111000Y0212023D02*
X0112600Y0212023D01*
X0119766Y0208826D02*
X0125468Y0208826D01*
X0125100Y0210424D02*
X0121000Y0210424D01*
X0121000Y0212023D02*
X0125364Y0212023D01*
X0114208Y0159272D02*
X0107812Y0159272D01*
X0095937Y0154476D02*
X0052950Y0154476D01*
X0053980Y0152878D02*
X0095100Y0152878D01*
X0095000Y0151279D02*
X0054131Y0151279D01*
X0053495Y0149681D02*
X0095532Y0149681D01*
X0107254Y0144885D02*
X0114400Y0144885D01*
X0114400Y0143287D02*
X0108330Y0143287D01*
X0108600Y0141688D02*
X0114400Y0141688D01*
X0114400Y0140090D02*
X0108238Y0140090D01*
X0119200Y0140090D02*
X0125362Y0140090D01*
X0125000Y0141688D02*
X0119200Y0141688D01*
X0119200Y0143287D02*
X0125270Y0143287D01*
X0126346Y0144885D02*
X0119200Y0144885D01*
X0119200Y0125703D02*
X0127648Y0125703D01*
X0125609Y0124105D02*
X0119200Y0124105D01*
X0119200Y0122506D02*
X0125000Y0122506D01*
X0125024Y0120908D02*
X0119200Y0120908D01*
X0119200Y0119309D02*
X0125751Y0119309D01*
X0128097Y0117711D02*
X0119200Y0117711D01*
X0114400Y0117711D02*
X0105503Y0117711D01*
X0105301Y0116112D02*
X0114400Y0116112D01*
X0114400Y0114514D02*
X0107867Y0114514D01*
X0107756Y0114666D02*
X0107266Y0115156D01*
X0106706Y0115563D01*
X0106089Y0115878D01*
X0105430Y0116092D01*
X0104746Y0116200D01*
X0101800Y0116200D01*
X0101800Y0111800D01*
X0101800Y0111800D01*
X0108800Y0111800D01*
X0108800Y0112146D01*
X0108692Y0112830D01*
X0108478Y0113489D01*
X0108163Y0114106D01*
X0107756Y0114666D01*
X0108664Y0112915D02*
X0114400Y0112915D01*
X0114400Y0111317D02*
X0108778Y0111317D01*
X0108800Y0111454D02*
X0108692Y0110770D01*
X0108478Y0110111D01*
X0108163Y0109494D01*
X0107756Y0108934D01*
X0107266Y0108444D01*
X0106706Y0108037D01*
X0106089Y0107722D01*
X0105430Y0107508D01*
X0104746Y0107400D01*
X0101800Y0107400D01*
X0101800Y0111800D01*
X0101800Y0111800D01*
X0101800Y0111800D01*
X0101800Y0111800D01*
X0094800Y0111800D01*
X0094800Y0112146D01*
X0094908Y0112830D01*
X0095122Y0113489D01*
X0095437Y0114106D01*
X0095844Y0114666D01*
X0096334Y0115156D01*
X0096894Y0115563D01*
X0097511Y0115878D01*
X0098170Y0116092D01*
X0098854Y0116200D01*
X0101800Y0116200D01*
X0101800Y0111800D01*
X0108800Y0111800D01*
X0108800Y0111454D01*
X0108277Y0109718D02*
X0114400Y0109718D01*
X0114400Y0108120D02*
X0106820Y0108120D01*
X0107217Y0104923D02*
X0114400Y0104923D01*
X0114400Y0106521D02*
X0093350Y0106521D01*
X0093322Y0104923D02*
X0096383Y0104923D01*
X0097511Y0107722D02*
X0098170Y0107508D01*
X0098854Y0107400D01*
X0101800Y0107400D01*
X0101800Y0111800D01*
X0094800Y0111800D01*
X0094800Y0111454D01*
X0094908Y0110770D01*
X0095122Y0110111D01*
X0095437Y0109494D01*
X0095844Y0108934D01*
X0096334Y0108444D01*
X0096894Y0108037D01*
X0097511Y0107722D01*
X0096780Y0108120D02*
X0093240Y0108120D01*
X0092578Y0109718D02*
X0095323Y0109718D01*
X0094822Y0111317D02*
X0090995Y0111317D01*
X0094936Y0112915D02*
X0048855Y0112915D01*
X0050453Y0114514D02*
X0095733Y0114514D01*
X0098299Y0116112D02*
X0051000Y0116112D01*
X0051000Y0117711D02*
X0098097Y0117711D01*
X0095751Y0119309D02*
X0050230Y0119309D01*
X0048632Y0120908D02*
X0095024Y0120908D01*
X0101800Y0116112D02*
X0101800Y0116112D01*
X0101800Y0114514D02*
X0101800Y0114514D01*
X0101800Y0112915D02*
X0101800Y0112915D01*
X0101800Y0111317D02*
X0101800Y0111317D01*
X0101800Y0109718D02*
X0101800Y0109718D01*
X0101800Y0108120D02*
X0101800Y0108120D01*
X0101800Y0101800D02*
X0093050Y0101800D01*
X0085602Y0101726D02*
X0028758Y0101726D01*
X0030819Y0103324D02*
X0084031Y0103324D01*
X0083091Y0104923D02*
X0031759Y0104923D01*
X0032100Y0106521D02*
X0082750Y0106521D01*
X0082860Y0108120D02*
X0031990Y0108120D01*
X0031328Y0109718D02*
X0083522Y0109718D01*
X0083669Y0100127D02*
X0030968Y0100127D01*
X0031821Y0098529D02*
X0082829Y0098529D01*
X0093582Y0088937D02*
X0096123Y0088937D01*
X0093350Y0087339D02*
X0114400Y0087339D01*
X0114400Y0088937D02*
X0107477Y0088937D01*
X0108422Y0090536D02*
X0114400Y0090536D01*
X0114400Y0092134D02*
X0108600Y0092134D01*
X0107068Y0098529D02*
X0114400Y0098529D01*
X0114400Y0100127D02*
X0108253Y0100127D01*
X0108600Y0101726D02*
X0114400Y0101726D01*
X0114400Y0103324D02*
X0108315Y0103324D01*
X0107849Y0119309D02*
X0114400Y0119309D01*
X0114400Y0120908D02*
X0108576Y0120908D01*
X0108600Y0122506D02*
X0114400Y0122506D01*
X0114400Y0124105D02*
X0107991Y0124105D01*
X0105952Y0125703D02*
X0114400Y0125703D01*
X0137068Y0098529D02*
X0141632Y0098529D01*
X0146968Y0098529D02*
X0161349Y0098529D01*
X0159900Y0100127D02*
X0148153Y0100127D01*
X0148500Y0101726D02*
X0159900Y0101726D01*
X0159900Y0103324D02*
X0148215Y0103324D01*
X0147117Y0104923D02*
X0161200Y0104923D01*
X0164300Y0104923D02*
X0164300Y0104923D01*
X0138800Y0092134D02*
X0210464Y0092134D01*
X0209008Y0090536D02*
X0138616Y0090536D01*
X0137759Y0088937D02*
X0207966Y0088937D01*
X0207550Y0086600D02*
X0207550Y0086367D01*
X0207685Y0085512D01*
X0207953Y0084689D01*
X0208346Y0083917D01*
X0208855Y0083217D01*
X0209467Y0082605D01*
X0210167Y0082096D01*
X0210939Y0081703D01*
X0211762Y0081435D01*
X0212617Y0081300D01*
X0212850Y0081300D01*
X0212850Y0086600D01*
X0207550Y0086600D01*
X0207649Y0085740D02*
X0135862Y0085740D01*
X0135235Y0086000D02*
X0136779Y0085361D01*
X0137961Y0084179D01*
X0138600Y0082635D01*
X0138600Y0080965D01*
X0137961Y0079421D01*
X0136779Y0078239D01*
X0135235Y0077600D01*
X0128365Y0077600D01*
X0126821Y0078239D01*
X0125639Y0079421D01*
X0125000Y0080965D01*
X0125000Y0082635D01*
X0125639Y0084179D01*
X0126821Y0085361D01*
X0128365Y0086000D01*
X0135235Y0086000D01*
X0137976Y0084142D02*
X0208232Y0084142D01*
X0209552Y0082543D02*
X0138600Y0082543D01*
X0138592Y0080945D02*
X0213050Y0080945D01*
X0213050Y0082543D02*
X0212850Y0082543D01*
X0212850Y0084142D02*
X0213050Y0084142D01*
X0213050Y0085740D02*
X0212850Y0085740D01*
X0213050Y0079346D02*
X0137886Y0079346D01*
X0135592Y0077748D02*
X0213050Y0077748D01*
X0213050Y0076149D02*
X0119200Y0076149D01*
X0119200Y0074551D02*
X0126011Y0074551D01*
X0125639Y0074179D02*
X0125000Y0072635D01*
X0125000Y0070965D01*
X0125639Y0069421D01*
X0126821Y0068239D01*
X0128365Y0067600D01*
X0135235Y0067600D01*
X0136779Y0068239D01*
X0137961Y0069421D01*
X0138600Y0070965D01*
X0138600Y0072635D01*
X0137961Y0074179D01*
X0136779Y0075361D01*
X0135235Y0076000D01*
X0128365Y0076000D01*
X0126821Y0075361D01*
X0125639Y0074179D01*
X0125131Y0072952D02*
X0119200Y0072952D01*
X0119200Y0071354D02*
X0125000Y0071354D01*
X0125501Y0069755D02*
X0119200Y0069755D01*
X0119200Y0068157D02*
X0127020Y0068157D01*
X0136580Y0068157D02*
X0213050Y0068157D01*
X0213050Y0069755D02*
X0138099Y0069755D01*
X0138600Y0071354D02*
X0213050Y0071354D01*
X0213050Y0072952D02*
X0138469Y0072952D01*
X0137589Y0074551D02*
X0213050Y0074551D01*
X0213050Y0056967D02*
X0119200Y0056967D01*
X0114400Y0056967D02*
X0027400Y0056967D01*
X0027400Y0055369D02*
X0096841Y0055369D01*
X0096821Y0055361D02*
X0095639Y0054179D01*
X0095000Y0052635D01*
X0095000Y0050965D01*
X0095639Y0049421D01*
X0096821Y0048239D01*
X0098365Y0047600D01*
X0105235Y0047600D01*
X0106779Y0048239D01*
X0107961Y0049421D01*
X0108600Y0050965D01*
X0108600Y0052635D01*
X0107961Y0054179D01*
X0106779Y0055361D01*
X0105235Y0056000D01*
X0098365Y0056000D01*
X0096821Y0055361D01*
X0095470Y0053770D02*
X0027400Y0053770D01*
X0027400Y0052172D02*
X0095000Y0052172D01*
X0095162Y0050573D02*
X0040323Y0050573D01*
X0041438Y0048975D02*
X0096086Y0048975D01*
X0098365Y0057600D02*
X0105235Y0057600D01*
X0106779Y0058239D01*
X0107961Y0059421D01*
X0108600Y0060965D01*
X0108600Y0062635D01*
X0107961Y0064179D01*
X0106779Y0065361D01*
X0105235Y0066000D01*
X0098365Y0066000D01*
X0096821Y0065361D01*
X0095639Y0064179D01*
X0095000Y0062635D01*
X0095000Y0060965D01*
X0095639Y0059421D01*
X0096821Y0058239D01*
X0098365Y0057600D01*
X0096495Y0058566D02*
X0027400Y0058566D01*
X0027400Y0060164D02*
X0095331Y0060164D01*
X0095000Y0061763D02*
X0027400Y0061763D01*
X0027400Y0063361D02*
X0033225Y0063361D01*
X0032690Y0063896D02*
X0034054Y0062533D01*
X0035836Y0061794D01*
X0037764Y0061794D01*
X0039546Y0062533D01*
X0040910Y0063896D01*
X0041648Y0065678D01*
X0041648Y0067607D01*
X0040910Y0069389D01*
X0039546Y0070752D01*
X0037764Y0071491D01*
X0035836Y0071491D01*
X0034054Y0070752D01*
X0032690Y0069389D01*
X0031952Y0067607D01*
X0031952Y0065678D01*
X0032690Y0063896D01*
X0032250Y0064960D02*
X0027400Y0064960D01*
X0027400Y0066558D02*
X0031952Y0066558D01*
X0032180Y0068157D02*
X0027400Y0068157D01*
X0027400Y0069755D02*
X0033057Y0069755D01*
X0035506Y0071354D02*
X0027400Y0071354D01*
X0027400Y0072952D02*
X0044708Y0072952D01*
X0045060Y0072600D02*
X0048540Y0072600D01*
X0051000Y0075060D01*
X0051000Y0078540D01*
X0048540Y0081000D01*
X0045060Y0081000D01*
X0042600Y0078540D01*
X0042600Y0075060D01*
X0045060Y0072600D01*
X0043109Y0074551D02*
X0027400Y0074551D01*
X0027400Y0076149D02*
X0042600Y0076149D01*
X0042600Y0077748D02*
X0027400Y0077748D01*
X0027400Y0079346D02*
X0043407Y0079346D01*
X0045005Y0080945D02*
X0027400Y0080945D01*
X0030298Y0082543D02*
X0059400Y0082543D01*
X0059400Y0080945D02*
X0048595Y0080945D01*
X0050193Y0079346D02*
X0059400Y0079346D01*
X0059400Y0077748D02*
X0051000Y0077748D01*
X0051000Y0076149D02*
X0059400Y0076149D01*
X0059616Y0074551D02*
X0050491Y0074551D01*
X0048892Y0072952D02*
X0061004Y0072952D01*
X0061969Y0071354D02*
X0038094Y0071354D01*
X0040543Y0069755D02*
X0062530Y0069755D01*
X0065550Y0071800D02*
X0061800Y0075550D01*
X0061800Y0091800D01*
X0058447Y0090536D02*
X0030842Y0090536D01*
X0031884Y0088937D02*
X0059400Y0088937D01*
X0059400Y0087339D02*
X0032283Y0087339D01*
X0032201Y0085740D02*
X0059400Y0085740D01*
X0059400Y0084142D02*
X0031618Y0084142D01*
X0029386Y0092134D02*
X0058219Y0092134D01*
X0058725Y0093733D02*
X0031228Y0093733D01*
X0041420Y0068157D02*
X0097020Y0068157D01*
X0096821Y0068239D02*
X0098365Y0067600D01*
X0105235Y0067600D01*
X0106779Y0068239D01*
X0107961Y0069421D01*
X0108600Y0070965D01*
X0108600Y0072635D01*
X0107961Y0074179D01*
X0106779Y0075361D01*
X0105235Y0076000D01*
X0098365Y0076000D01*
X0096821Y0075361D01*
X0095639Y0074179D01*
X0095000Y0072635D01*
X0095000Y0070965D01*
X0095639Y0069421D01*
X0096821Y0068239D01*
X0095501Y0069755D02*
X0068570Y0069755D01*
X0069131Y0071354D02*
X0095000Y0071354D01*
X0095131Y0072952D02*
X0068949Y0072952D01*
X0067864Y0074551D02*
X0096011Y0074551D01*
X0098007Y0077748D02*
X0064200Y0077748D01*
X0064200Y0079346D02*
X0095714Y0079346D01*
X0095639Y0079421D02*
X0096821Y0078239D01*
X0098365Y0077600D01*
X0105235Y0077600D01*
X0106779Y0078239D01*
X0107961Y0079421D01*
X0108600Y0080965D01*
X0108600Y0082635D01*
X0107961Y0084179D01*
X0106779Y0085361D01*
X0105235Y0086000D01*
X0098365Y0086000D01*
X0096821Y0085361D01*
X0095639Y0084179D01*
X0095000Y0082635D01*
X0095000Y0080965D01*
X0095639Y0079421D01*
X0095008Y0080945D02*
X0064200Y0080945D01*
X0064595Y0076149D02*
X0114400Y0076149D01*
X0114400Y0074551D02*
X0107589Y0074551D01*
X0108469Y0072952D02*
X0114400Y0072952D01*
X0114400Y0071354D02*
X0108600Y0071354D01*
X0108099Y0069755D02*
X0114400Y0069755D01*
X0114400Y0068157D02*
X0106580Y0068157D01*
X0107180Y0064960D02*
X0114400Y0064960D01*
X0114400Y0066558D02*
X0041648Y0066558D01*
X0041350Y0064960D02*
X0096420Y0064960D01*
X0095301Y0063361D02*
X0040375Y0063361D01*
X0036517Y0052005D02*
X0036403Y0052005D01*
X0035618Y0051881D01*
X0034862Y0051636D01*
X0034154Y0051275D01*
X0033511Y0050808D01*
X0032950Y0050246D01*
X0032483Y0049603D01*
X0032122Y0048895D01*
X0031876Y0048140D01*
X0031752Y0047355D01*
X0031752Y0047240D01*
X0036517Y0047240D01*
X0036517Y0052005D01*
X0036517Y0050573D02*
X0037083Y0050573D01*
X0037083Y0048975D02*
X0036517Y0048975D01*
X0036517Y0047376D02*
X0037083Y0047376D01*
X0037083Y0045778D02*
X0036517Y0045778D01*
X0036517Y0044179D02*
X0037083Y0044179D01*
X0037083Y0042581D02*
X0036517Y0042581D01*
X0034271Y0042581D02*
X0027400Y0042581D01*
X0027400Y0044179D02*
X0032579Y0044179D01*
X0031876Y0045778D02*
X0027400Y0045778D01*
X0027400Y0047376D02*
X0031755Y0047376D01*
X0032162Y0048975D02*
X0027400Y0048975D01*
X0027400Y0050573D02*
X0033277Y0050573D01*
X0091289Y0082543D02*
X0095000Y0082543D01*
X0095624Y0084142D02*
X0092686Y0084142D01*
X0093348Y0085740D02*
X0097738Y0085740D01*
X0105862Y0085740D02*
X0114400Y0085740D01*
X0114400Y0084142D02*
X0107976Y0084142D01*
X0108600Y0082543D02*
X0114400Y0082543D01*
X0114400Y0080945D02*
X0108592Y0080945D01*
X0107886Y0079346D02*
X0114400Y0079346D01*
X0114400Y0077748D02*
X0105592Y0077748D01*
X0119200Y0077748D02*
X0128007Y0077748D01*
X0125714Y0079346D02*
X0119200Y0079346D01*
X0119200Y0080945D02*
X0125008Y0080945D01*
X0125000Y0082543D02*
X0119200Y0082543D01*
X0119200Y0084142D02*
X0125624Y0084142D01*
X0127738Y0085740D02*
X0119200Y0085740D01*
X0131800Y0088937D02*
X0131800Y0088937D01*
X0131800Y0090536D02*
X0131800Y0090536D01*
X0131800Y0092134D02*
X0131800Y0092134D01*
X0131800Y0093733D02*
X0131800Y0093733D01*
X0131800Y0095332D02*
X0131800Y0095332D01*
X0114400Y0063361D02*
X0108299Y0063361D01*
X0108600Y0061763D02*
X0114400Y0061763D01*
X0114400Y0060164D02*
X0108268Y0060164D01*
X0107105Y0058566D02*
X0114400Y0058566D01*
X0114400Y0055369D02*
X0106759Y0055369D01*
X0108130Y0053770D02*
X0113740Y0053770D01*
X0113219Y0052172D02*
X0108600Y0052172D01*
X0108438Y0050573D02*
X0113432Y0050573D01*
X0114561Y0048975D02*
X0107514Y0048975D01*
X0048150Y0167265D02*
X0042950Y0167265D01*
X0042950Y0168863D02*
X0048150Y0168863D01*
X0048150Y0170462D02*
X0042950Y0170462D01*
X0042950Y0172060D02*
X0048150Y0172060D01*
X0048150Y0173659D02*
X0042950Y0173659D01*
X0042950Y0175257D02*
X0048150Y0175257D01*
X0048150Y0176856D02*
X0042950Y0176856D01*
X0042950Y0178454D02*
X0042956Y0178454D01*
X0038150Y0175257D02*
X0036889Y0175257D01*
X0037805Y0173659D02*
X0038150Y0173659D01*
X0033333Y0173659D02*
X0032767Y0173659D01*
X0032767Y0175257D02*
X0033333Y0175257D01*
X0033333Y0170462D02*
X0032767Y0170462D01*
X0032767Y0168863D02*
X0033333Y0168863D01*
X0029059Y0168863D02*
X0027400Y0168863D01*
X0027400Y0170462D02*
X0028228Y0170462D01*
X0027400Y0188045D02*
X0029791Y0188045D01*
X0028630Y0189644D02*
X0027400Y0189644D01*
X0027400Y0191242D02*
X0028202Y0191242D01*
X0028299Y0192841D02*
X0027400Y0192841D01*
X0027400Y0194439D02*
X0028991Y0194439D01*
X0028581Y0205629D02*
X0027400Y0205629D01*
X0048144Y0178454D02*
X0048150Y0178454D01*
D11*
X0129300Y0210550D03*
X0144300Y0101800D03*
D12*
X0164300Y0101800D03*
X0153050Y0131800D03*
X0143050Y0131800D03*
X0144300Y0171800D03*
X0144300Y0181800D03*
X0129300Y0190550D03*
X0145550Y0201800D03*
X0153050Y0206800D03*
X0145550Y0211800D03*
X0116800Y0211800D03*
X0106800Y0211800D03*
X0106800Y0199300D03*
X0085550Y0181800D03*
X0066800Y0199300D03*
X0045550Y0181800D03*
X0046800Y0116800D03*
X0046800Y0076800D03*
X0034300Y0034300D03*
X0074300Y0034300D03*
X0084300Y0034300D03*
X0094300Y0034300D03*
X0111800Y0040550D03*
X0121800Y0040550D03*
X0188050Y0170550D03*
X0198050Y0170550D03*
D13*
X0213050Y0156800D03*
X0213050Y0146800D03*
X0213050Y0136800D03*
X0213050Y0126800D03*
X0213050Y0116800D03*
X0213050Y0106800D03*
X0213050Y0096800D03*
X0213050Y0086800D03*
X0088050Y0086800D03*
X0088050Y0096800D03*
X0088050Y0106800D03*
X0026800Y0106800D03*
X0026800Y0096800D03*
X0026800Y0086800D03*
X0026800Y0116800D03*
X0026800Y0126800D03*
X0026800Y0136800D03*
X0026800Y0146800D03*
X0026800Y0156800D03*
X0030550Y0210550D03*
X0040550Y0210550D03*
X0050550Y0210550D03*
X0060550Y0210550D03*
X0070550Y0210550D03*
X0080550Y0210550D03*
D14*
X0099200Y0181800D02*
X0104400Y0181800D01*
X0104400Y0171800D02*
X0099200Y0171800D01*
X0099200Y0161800D02*
X0104400Y0161800D01*
X0104400Y0151800D02*
X0099200Y0151800D01*
X0099200Y0141800D02*
X0104400Y0141800D01*
X0104400Y0131800D02*
X0099200Y0131800D01*
X0099200Y0121800D02*
X0104400Y0121800D01*
X0104400Y0111800D02*
X0099200Y0111800D01*
X0099200Y0101800D02*
X0104400Y0101800D01*
X0104400Y0091800D02*
X0099200Y0091800D01*
X0099200Y0081800D02*
X0104400Y0081800D01*
X0104400Y0071800D02*
X0099200Y0071800D01*
X0099200Y0061800D02*
X0104400Y0061800D01*
X0104400Y0051800D02*
X0099200Y0051800D01*
X0129200Y0051800D02*
X0134400Y0051800D01*
X0134400Y0061800D02*
X0129200Y0061800D01*
X0129200Y0071800D02*
X0134400Y0071800D01*
X0134400Y0081800D02*
X0129200Y0081800D01*
X0129200Y0091800D02*
X0134400Y0091800D01*
X0134400Y0101800D02*
X0129200Y0101800D01*
X0129200Y0111800D02*
X0134400Y0111800D01*
X0134400Y0121800D02*
X0129200Y0121800D01*
X0129200Y0131800D02*
X0134400Y0131800D01*
X0134400Y0141800D02*
X0129200Y0141800D01*
X0129200Y0151800D02*
X0134400Y0151800D01*
X0134400Y0161800D02*
X0129200Y0161800D01*
X0129200Y0171800D02*
X0134400Y0171800D01*
X0134400Y0181800D02*
X0129200Y0181800D01*
D15*
X0171751Y0185471D03*
X0174900Y0190196D03*
X0178050Y0185471D03*
X0181200Y0190196D03*
X0184349Y0185471D03*
X0211800Y0189300D03*
X0211800Y0181426D03*
X0211800Y0197174D03*
D16*
X0192420Y0205550D03*
X0163680Y0205550D03*
D17*
X0211800Y0205048D03*
X0211800Y0173552D03*
X0036800Y0066643D03*
X0036800Y0046957D03*
X0033050Y0171957D03*
X0033050Y0191643D03*
D18*
X0050550Y0151800D03*
X0040550Y0141800D03*
X0061800Y0091800D03*
X0065550Y0071800D03*
X0116800Y0051800D03*
X0173050Y0111800D03*
X0181800Y0121800D03*
X0198050Y0096800D03*
X0171800Y0156800D03*
X0116800Y0156800D03*
M02*
