G75*
%MOIN*%
%OFA0B0*%
%FSLAX25Y25*%
%IPPOS*%
%LPD*%
%AMOC8*
5,1,8,0,0,1.08239X$1,22.5*
%
%ADD10C,0.01600*%
%ADD11C,0.05200*%
%ADD12OC8,0.05200*%
%ADD13C,0.07400*%
%ADD14C,0.05200*%
%ADD15C,0.05150*%
%ADD16C,0.11220*%
%ADD17C,0.06496*%
%ADD18C,0.03962*%
D10*
X0021800Y0021800D02*
X0218650Y0021800D01*
X0218650Y0218650D01*
X0021800Y0218650D01*
X0021800Y0021800D01*
X0027400Y0027400D02*
X0027400Y0081500D01*
X0027854Y0081500D01*
X0029802Y0082307D01*
X0031293Y0083798D01*
X0032100Y0085746D01*
X0032100Y0087854D01*
X0031293Y0089802D01*
X0029802Y0091293D01*
X0028856Y0091685D01*
X0028911Y0091703D01*
X0029683Y0092096D01*
X0030383Y0092605D01*
X0030995Y0093217D01*
X0031504Y0093917D01*
X0031897Y0094689D01*
X0032165Y0095512D01*
X0032300Y0096367D01*
X0032300Y0096600D01*
X0027400Y0096600D01*
X0027400Y0097000D01*
X0032300Y0097000D01*
X0032300Y0097233D01*
X0032165Y0098088D01*
X0031897Y0098911D01*
X0031504Y0099683D01*
X0030995Y0100383D01*
X0030383Y0100995D01*
X0029683Y0101504D01*
X0028911Y0101897D01*
X0028856Y0101915D01*
X0029802Y0102307D01*
X0031293Y0103798D01*
X0031543Y0104400D01*
X0045806Y0104400D01*
X0058219Y0091987D01*
X0058219Y0091088D01*
X0058764Y0089771D01*
X0059771Y0088764D01*
X0061088Y0088219D01*
X0062512Y0088219D01*
X0063829Y0088764D01*
X0064836Y0089771D01*
X0065381Y0091088D01*
X0065381Y0092512D01*
X0064836Y0093829D01*
X0063829Y0094836D01*
X0062512Y0095381D01*
X0061613Y0095381D01*
X0048159Y0108835D01*
X0047277Y0109200D01*
X0031543Y0109200D01*
X0031293Y0109802D01*
X0029802Y0111293D01*
X0028578Y0111800D01*
X0029802Y0112307D01*
X0031293Y0113798D01*
X0031543Y0114400D01*
X0043260Y0114400D01*
X0045060Y0112600D01*
X0047606Y0112600D01*
X0078506Y0081700D01*
X0053823Y0081700D01*
X0052941Y0081335D01*
X0052265Y0080659D01*
X0051015Y0079409D01*
X0050839Y0078984D01*
X0048623Y0081200D01*
X0046800Y0081200D01*
X0046800Y0076800D01*
X0046800Y0076800D01*
X0046800Y0076800D01*
X0042400Y0076800D01*
X0042400Y0078623D01*
X0044977Y0081200D01*
X0046800Y0081200D01*
X0046800Y0076800D01*
X0042400Y0076800D01*
X0042400Y0074977D01*
X0044427Y0072950D01*
X0040230Y0072950D01*
X0039348Y0072585D01*
X0038673Y0071909D01*
X0038111Y0071347D01*
X0037764Y0071491D01*
X0035836Y0071491D01*
X0034054Y0070752D01*
X0032690Y0069389D01*
X0031952Y0067607D01*
X0031952Y0065678D01*
X0032690Y0063896D01*
X0034054Y0062533D01*
X0035836Y0061794D01*
X0037764Y0061794D01*
X0039546Y0062533D01*
X0040910Y0063896D01*
X0041648Y0065678D01*
X0041648Y0067607D01*
X0041505Y0067953D01*
X0041702Y0068150D01*
X0052277Y0068150D01*
X0053159Y0068515D01*
X0054409Y0069765D01*
X0055085Y0070441D01*
X0055450Y0071323D01*
X0055450Y0076900D01*
X0094777Y0076900D01*
X0095659Y0077265D01*
X0096727Y0078333D01*
X0096821Y0078239D01*
X0098365Y0077600D01*
X0105235Y0077600D01*
X0106779Y0078239D01*
X0107961Y0079421D01*
X0108600Y0080965D01*
X0108600Y0082635D01*
X0107961Y0084179D01*
X0106779Y0085361D01*
X0105235Y0086000D01*
X0098365Y0086000D01*
X0096821Y0085361D01*
X0095639Y0084179D01*
X0095508Y0083863D01*
X0095441Y0083835D01*
X0094765Y0083159D01*
X0093306Y0081700D01*
X0089587Y0081700D01*
X0091052Y0082307D01*
X0092543Y0083798D01*
X0093350Y0085746D01*
X0093350Y0087854D01*
X0092543Y0089802D01*
X0091052Y0091293D01*
X0089828Y0091800D01*
X0091052Y0092307D01*
X0092543Y0093798D01*
X0093350Y0095746D01*
X0093350Y0097854D01*
X0092543Y0099802D01*
X0091052Y0101293D01*
X0089828Y0101800D01*
X0091052Y0102307D01*
X0092543Y0103798D01*
X0093350Y0105746D01*
X0093350Y0107854D01*
X0092543Y0109802D01*
X0091052Y0111293D01*
X0089104Y0112100D01*
X0086996Y0112100D01*
X0085048Y0111293D01*
X0083557Y0109802D01*
X0082750Y0107854D01*
X0082750Y0105746D01*
X0083557Y0103798D01*
X0085048Y0102307D01*
X0086272Y0101800D01*
X0085048Y0101293D01*
X0083557Y0099802D01*
X0082750Y0097854D01*
X0082750Y0095746D01*
X0083557Y0093798D01*
X0085048Y0092307D01*
X0086272Y0091800D01*
X0085048Y0091293D01*
X0083557Y0089802D01*
X0082750Y0087854D01*
X0082750Y0085746D01*
X0083557Y0083798D01*
X0085048Y0082307D01*
X0086513Y0081700D01*
X0085294Y0081700D01*
X0051000Y0115994D01*
X0051000Y0118540D01*
X0050140Y0119400D01*
X0095660Y0119400D01*
X0096821Y0118239D01*
X0098365Y0117600D01*
X0105235Y0117600D01*
X0106779Y0118239D01*
X0107961Y0119421D01*
X0108600Y0120965D01*
X0108600Y0122635D01*
X0107961Y0124179D01*
X0106779Y0125361D01*
X0105235Y0126000D01*
X0098365Y0126000D01*
X0096821Y0125361D01*
X0095660Y0124200D01*
X0044044Y0124200D01*
X0040085Y0128159D01*
X0039409Y0128835D01*
X0038527Y0129200D01*
X0031543Y0129200D01*
X0031293Y0129802D01*
X0029802Y0131293D01*
X0028578Y0131800D01*
X0029802Y0132307D01*
X0031293Y0133798D01*
X0031543Y0134400D01*
X0035806Y0134400D01*
X0040441Y0129765D01*
X0041323Y0129400D01*
X0095660Y0129400D01*
X0096821Y0128239D01*
X0098365Y0127600D01*
X0105235Y0127600D01*
X0106779Y0128239D01*
X0107961Y0129421D01*
X0108600Y0130965D01*
X0108600Y0132635D01*
X0107961Y0134179D01*
X0106779Y0135361D01*
X0105235Y0136000D01*
X0098365Y0136000D01*
X0096821Y0135361D01*
X0095660Y0134200D01*
X0042794Y0134200D01*
X0038835Y0138159D01*
X0038159Y0138835D01*
X0037277Y0139200D01*
X0031543Y0139200D01*
X0031293Y0139802D01*
X0029802Y0141293D01*
X0028578Y0141800D01*
X0029802Y0142307D01*
X0031293Y0143798D01*
X0032100Y0145746D01*
X0032100Y0147854D01*
X0031851Y0148456D01*
X0042794Y0159400D01*
X0095660Y0159400D01*
X0096821Y0158239D01*
X0098365Y0157600D01*
X0105235Y0157600D01*
X0106779Y0158239D01*
X0107961Y0159421D01*
X0108600Y0160965D01*
X0108600Y0162635D01*
X0107961Y0164179D01*
X0106779Y0165361D01*
X0105235Y0166000D01*
X0098365Y0166000D01*
X0096821Y0165361D01*
X0095660Y0164200D01*
X0041323Y0164200D01*
X0040441Y0163835D01*
X0031922Y0155316D01*
X0032100Y0155746D01*
X0032100Y0157854D01*
X0031851Y0158456D01*
X0042794Y0169400D01*
X0095660Y0169400D01*
X0096821Y0168239D01*
X0098365Y0167600D01*
X0105235Y0167600D01*
X0106779Y0168239D01*
X0107961Y0169421D01*
X0108600Y0170965D01*
X0108600Y0172635D01*
X0107961Y0174179D01*
X0106779Y0175361D01*
X0105235Y0176000D01*
X0098365Y0176000D01*
X0096821Y0175361D01*
X0095660Y0174200D01*
X0041323Y0174200D01*
X0040441Y0173835D01*
X0037898Y0171292D01*
X0037898Y0172922D01*
X0037160Y0174704D01*
X0035796Y0176067D01*
X0034014Y0176805D01*
X0032086Y0176805D01*
X0030304Y0176067D01*
X0028940Y0174704D01*
X0028202Y0172922D01*
X0028202Y0170993D01*
X0028940Y0169211D01*
X0030304Y0167848D01*
X0032086Y0167109D01*
X0033715Y0167109D01*
X0028456Y0161851D01*
X0027854Y0162100D01*
X0027400Y0162100D01*
X0027400Y0206205D01*
X0027548Y0206057D01*
X0029496Y0205250D01*
X0031604Y0205250D01*
X0033552Y0206057D01*
X0035043Y0207548D01*
X0035550Y0208772D01*
X0036057Y0207548D01*
X0037548Y0206057D01*
X0039496Y0205250D01*
X0041604Y0205250D01*
X0043552Y0206057D01*
X0045043Y0207548D01*
X0045550Y0208772D01*
X0046057Y0207548D01*
X0047548Y0206057D01*
X0049496Y0205250D01*
X0051604Y0205250D01*
X0053552Y0206057D01*
X0055043Y0207548D01*
X0055550Y0208772D01*
X0056057Y0207548D01*
X0057548Y0206057D01*
X0059496Y0205250D01*
X0061604Y0205250D01*
X0063552Y0206057D01*
X0065043Y0207548D01*
X0065435Y0208494D01*
X0065453Y0208439D01*
X0065846Y0207667D01*
X0066355Y0206967D01*
X0066967Y0206355D01*
X0067667Y0205846D01*
X0068439Y0205453D01*
X0069262Y0205185D01*
X0070117Y0205050D01*
X0070350Y0205050D01*
X0070350Y0210350D01*
X0070750Y0210350D01*
X0070750Y0205050D01*
X0070983Y0205050D01*
X0071838Y0205185D01*
X0072661Y0205453D01*
X0073433Y0205846D01*
X0074133Y0206355D01*
X0074745Y0206967D01*
X0075254Y0207667D01*
X0075647Y0208439D01*
X0075665Y0208494D01*
X0076057Y0207548D01*
X0077548Y0206057D01*
X0079496Y0205250D01*
X0081483Y0205250D01*
X0096455Y0184994D01*
X0095660Y0184200D01*
X0089090Y0184200D01*
X0087950Y0185340D01*
X0087950Y0188527D01*
X0087585Y0189409D01*
X0083835Y0193159D01*
X0083159Y0193835D01*
X0082277Y0194200D01*
X0042097Y0194200D01*
X0042076Y0194208D01*
X0041621Y0194200D01*
X0041165Y0194200D01*
X0041144Y0194191D01*
X0037271Y0194120D01*
X0037160Y0194389D01*
X0035796Y0195752D01*
X0034014Y0196491D01*
X0032086Y0196491D01*
X0030304Y0195752D01*
X0028940Y0194389D01*
X0028202Y0192607D01*
X0028202Y0190678D01*
X0028940Y0188896D01*
X0030304Y0187533D01*
X0032086Y0186794D01*
X0034014Y0186794D01*
X0035796Y0187533D01*
X0037160Y0188896D01*
X0037336Y0189321D01*
X0041664Y0189400D01*
X0080806Y0189400D01*
X0083150Y0187056D01*
X0083150Y0185340D01*
X0081350Y0183540D01*
X0081350Y0180060D01*
X0083810Y0177600D01*
X0087290Y0177600D01*
X0089090Y0179400D01*
X0095660Y0179400D01*
X0096821Y0178239D01*
X0098365Y0177600D01*
X0105235Y0177600D01*
X0106779Y0178239D01*
X0107961Y0179421D01*
X0108600Y0180965D01*
X0108600Y0182635D01*
X0107961Y0184179D01*
X0106779Y0185361D01*
X0105235Y0186000D01*
X0101680Y0186000D01*
X0085298Y0208164D01*
X0085850Y0209496D01*
X0085850Y0211604D01*
X0085251Y0213050D01*
X0102600Y0213050D01*
X0102600Y0210060D01*
X0104400Y0208260D01*
X0104400Y0202840D01*
X0102600Y0201040D01*
X0102600Y0197560D01*
X0105060Y0195100D01*
X0108540Y0195100D01*
X0111000Y0197560D01*
X0111000Y0201040D01*
X0109200Y0202840D01*
X0109200Y0208260D01*
X0111000Y0210060D01*
X0111000Y0213050D01*
X0112400Y0213050D01*
X0112400Y0211800D01*
X0116800Y0211800D01*
X0121200Y0211800D01*
X0121200Y0213050D01*
X0125678Y0213050D01*
X0125537Y0212856D01*
X0125222Y0212239D01*
X0125008Y0211580D01*
X0124900Y0210896D01*
X0124900Y0210550D01*
X0129300Y0210550D01*
X0133700Y0210550D01*
X0133700Y0210896D01*
X0133592Y0211580D01*
X0133378Y0212239D01*
X0133063Y0212856D01*
X0132922Y0213050D01*
X0141350Y0213050D01*
X0141350Y0210060D01*
X0143810Y0207600D01*
X0147290Y0207600D01*
X0149750Y0210060D01*
X0149750Y0213050D01*
X0213050Y0213050D01*
X0213050Y0209778D01*
X0212764Y0209896D01*
X0210836Y0209896D01*
X0209054Y0209158D01*
X0207690Y0207794D01*
X0206952Y0206012D01*
X0206952Y0204084D01*
X0207690Y0202302D01*
X0209054Y0200938D01*
X0209516Y0200747D01*
X0209435Y0200713D01*
X0208261Y0199539D01*
X0207625Y0198004D01*
X0207625Y0196344D01*
X0208261Y0194809D01*
X0209435Y0193635D01*
X0210396Y0193237D01*
X0209435Y0192839D01*
X0208296Y0191700D01*
X0205073Y0191700D01*
X0204191Y0191335D01*
X0200806Y0187950D01*
X0187775Y0187950D01*
X0186714Y0189010D01*
X0185374Y0189565D01*
X0185374Y0191026D01*
X0184739Y0192560D01*
X0183564Y0193735D01*
X0182030Y0194370D01*
X0180369Y0194370D01*
X0178835Y0193735D01*
X0178050Y0192950D01*
X0177265Y0193735D01*
X0175731Y0194370D01*
X0174070Y0194370D01*
X0172536Y0193735D01*
X0171361Y0192560D01*
X0170726Y0191026D01*
X0170726Y0189565D01*
X0169386Y0189010D01*
X0168212Y0187836D01*
X0167576Y0186302D01*
X0167576Y0184641D01*
X0168212Y0183106D01*
X0169386Y0181932D01*
X0170920Y0181296D01*
X0172581Y0181296D01*
X0174116Y0181932D01*
X0174900Y0182717D01*
X0175685Y0181932D01*
X0177220Y0181296D01*
X0178880Y0181296D01*
X0180415Y0181932D01*
X0181200Y0182717D01*
X0181984Y0181932D01*
X0183519Y0181296D01*
X0185180Y0181296D01*
X0186714Y0181932D01*
X0187888Y0183106D01*
X0187906Y0183150D01*
X0202277Y0183150D01*
X0203159Y0183515D01*
X0203835Y0184191D01*
X0206544Y0186900D01*
X0208296Y0186900D01*
X0209435Y0185761D01*
X0210396Y0185363D01*
X0209435Y0184965D01*
X0208261Y0183791D01*
X0207625Y0182256D01*
X0207625Y0180596D01*
X0208261Y0179061D01*
X0209435Y0177887D01*
X0209516Y0177853D01*
X0209054Y0177662D01*
X0207690Y0176298D01*
X0206952Y0174516D01*
X0206952Y0172588D01*
X0207690Y0170806D01*
X0209054Y0169442D01*
X0210836Y0168704D01*
X0212764Y0168704D01*
X0213050Y0168822D01*
X0213050Y0162100D01*
X0211996Y0162100D01*
X0210048Y0161293D01*
X0208557Y0159802D01*
X0208307Y0159200D01*
X0207794Y0159200D01*
X0203835Y0163159D01*
X0203159Y0163835D01*
X0202277Y0164200D01*
X0137940Y0164200D01*
X0136779Y0165361D01*
X0135235Y0166000D01*
X0128365Y0166000D01*
X0126821Y0165361D01*
X0125639Y0164179D01*
X0125000Y0162635D01*
X0125000Y0160965D01*
X0125639Y0159421D01*
X0125860Y0159200D01*
X0119464Y0159200D01*
X0118829Y0159836D01*
X0117512Y0160381D01*
X0116088Y0160381D01*
X0114771Y0159836D01*
X0113764Y0158829D01*
X0113219Y0157512D01*
X0113219Y0156088D01*
X0113764Y0154771D01*
X0114771Y0153764D01*
X0116088Y0153219D01*
X0117512Y0153219D01*
X0118829Y0153764D01*
X0119464Y0154400D01*
X0125860Y0154400D01*
X0125639Y0154179D01*
X0125000Y0152635D01*
X0125000Y0150965D01*
X0125639Y0149421D01*
X0126821Y0148239D01*
X0128365Y0147600D01*
X0135235Y0147600D01*
X0136779Y0148239D01*
X0137940Y0149400D01*
X0200806Y0149400D01*
X0205441Y0144765D01*
X0206323Y0144400D01*
X0208307Y0144400D01*
X0208557Y0143798D01*
X0210048Y0142307D01*
X0211272Y0141800D01*
X0210048Y0141293D01*
X0208557Y0139802D01*
X0208307Y0139200D01*
X0207794Y0139200D01*
X0203835Y0143159D01*
X0203835Y0143159D01*
X0203159Y0143835D01*
X0202277Y0144200D01*
X0137940Y0144200D01*
X0136779Y0145361D01*
X0135235Y0146000D01*
X0128365Y0146000D01*
X0126821Y0145361D01*
X0125639Y0144179D01*
X0125000Y0142635D01*
X0125000Y0140965D01*
X0125639Y0139421D01*
X0126821Y0138239D01*
X0128365Y0137600D01*
X0135235Y0137600D01*
X0136779Y0138239D01*
X0137940Y0139400D01*
X0200806Y0139400D01*
X0204765Y0135441D01*
X0204765Y0135441D01*
X0205441Y0134765D01*
X0206323Y0134400D01*
X0208307Y0134400D01*
X0208557Y0133798D01*
X0210048Y0132307D01*
X0211272Y0131800D01*
X0210048Y0131293D01*
X0208557Y0129802D01*
X0208307Y0129200D01*
X0196323Y0129200D01*
X0195441Y0128835D01*
X0168500Y0101894D01*
X0168500Y0103540D01*
X0166040Y0106000D01*
X0162560Y0106000D01*
X0160100Y0103540D01*
X0160100Y0100060D01*
X0162560Y0097600D01*
X0164206Y0097600D01*
X0150806Y0084200D01*
X0137940Y0084200D01*
X0136779Y0085361D01*
X0135235Y0086000D01*
X0128365Y0086000D01*
X0126821Y0085361D01*
X0125639Y0084179D01*
X0125000Y0082635D01*
X0125000Y0080965D01*
X0125639Y0079421D01*
X0126821Y0078239D01*
X0128365Y0077600D01*
X0135235Y0077600D01*
X0136779Y0078239D01*
X0137940Y0079400D01*
X0152277Y0079400D01*
X0153159Y0079765D01*
X0153835Y0080441D01*
X0197794Y0124400D01*
X0208307Y0124400D01*
X0208557Y0123798D01*
X0210048Y0122307D01*
X0211272Y0121800D01*
X0210048Y0121293D01*
X0208557Y0119802D01*
X0208307Y0119200D01*
X0196323Y0119200D01*
X0195441Y0118835D01*
X0150806Y0074200D01*
X0137940Y0074200D01*
X0136779Y0075361D01*
X0135235Y0076000D01*
X0128365Y0076000D01*
X0126821Y0075361D01*
X0125639Y0074179D01*
X0125000Y0072635D01*
X0125000Y0070965D01*
X0125639Y0069421D01*
X0126821Y0068239D01*
X0128365Y0067600D01*
X0135235Y0067600D01*
X0136779Y0068239D01*
X0137940Y0069400D01*
X0152277Y0069400D01*
X0153159Y0069765D01*
X0153835Y0070441D01*
X0197794Y0114400D01*
X0208307Y0114400D01*
X0208557Y0113798D01*
X0210048Y0112307D01*
X0211272Y0111800D01*
X0210048Y0111293D01*
X0208557Y0109802D01*
X0208307Y0109200D01*
X0196323Y0109200D01*
X0195441Y0108835D01*
X0150806Y0064200D01*
X0137940Y0064200D01*
X0136779Y0065361D01*
X0135235Y0066000D01*
X0128365Y0066000D01*
X0126821Y0065361D01*
X0125639Y0064179D01*
X0125000Y0062635D01*
X0125000Y0060965D01*
X0125639Y0059421D01*
X0126821Y0058239D01*
X0128365Y0057600D01*
X0135235Y0057600D01*
X0136779Y0058239D01*
X0137940Y0059400D01*
X0152277Y0059400D01*
X0153159Y0059765D01*
X0153835Y0060441D01*
X0197794Y0104400D01*
X0208307Y0104400D01*
X0208557Y0103798D01*
X0210048Y0102307D01*
X0211272Y0101800D01*
X0210048Y0101293D01*
X0208557Y0099802D01*
X0208307Y0099200D01*
X0200714Y0099200D01*
X0200079Y0099836D01*
X0198762Y0100381D01*
X0197338Y0100381D01*
X0196021Y0099836D01*
X0195014Y0098829D01*
X0194717Y0098111D01*
X0150806Y0054200D01*
X0137940Y0054200D01*
X0136779Y0055361D01*
X0135235Y0056000D01*
X0128365Y0056000D01*
X0126821Y0055361D01*
X0125639Y0054179D01*
X0125000Y0052635D01*
X0125000Y0050965D01*
X0125639Y0049421D01*
X0126821Y0048239D01*
X0128365Y0047600D01*
X0135235Y0047600D01*
X0136779Y0048239D01*
X0137940Y0049400D01*
X0152277Y0049400D01*
X0153159Y0049765D01*
X0153835Y0050441D01*
X0196825Y0093431D01*
X0197338Y0093219D01*
X0198762Y0093219D01*
X0200079Y0093764D01*
X0200714Y0094400D01*
X0208307Y0094400D01*
X0208557Y0093798D01*
X0210048Y0092307D01*
X0211272Y0091800D01*
X0210048Y0091293D01*
X0208557Y0089802D01*
X0207750Y0087854D01*
X0207750Y0085746D01*
X0208557Y0083798D01*
X0210048Y0082307D01*
X0211996Y0081500D01*
X0213050Y0081500D01*
X0213050Y0027400D01*
X0027400Y0027400D01*
X0027400Y0028194D02*
X0213050Y0028194D01*
X0213050Y0029793D02*
X0027400Y0029793D01*
X0027400Y0031391D02*
X0031269Y0031391D01*
X0030100Y0032560D02*
X0032560Y0030100D01*
X0036040Y0030100D01*
X0038500Y0032560D01*
X0038500Y0036040D01*
X0036040Y0038500D01*
X0032560Y0038500D01*
X0030100Y0036040D01*
X0030100Y0032560D01*
X0030100Y0032990D02*
X0027400Y0032990D01*
X0027400Y0034588D02*
X0030100Y0034588D01*
X0030247Y0036187D02*
X0027400Y0036187D01*
X0027400Y0037785D02*
X0031845Y0037785D01*
X0027400Y0039384D02*
X0091900Y0039384D01*
X0091900Y0037840D02*
X0090100Y0036040D01*
X0090100Y0032560D01*
X0092560Y0030100D01*
X0096040Y0030100D01*
X0098500Y0032560D01*
X0098500Y0036040D01*
X0096700Y0037840D01*
X0096700Y0048360D01*
X0096821Y0048239D01*
X0098365Y0047600D01*
X0105235Y0047600D01*
X0106779Y0048239D01*
X0107940Y0049400D01*
X0114136Y0049400D01*
X0114771Y0048764D01*
X0116088Y0048219D01*
X0117512Y0048219D01*
X0118829Y0048764D01*
X0119836Y0049771D01*
X0120381Y0051088D01*
X0120381Y0052512D01*
X0119836Y0053829D01*
X0118829Y0054836D01*
X0117512Y0055381D01*
X0116088Y0055381D01*
X0114771Y0054836D01*
X0114136Y0054200D01*
X0107940Y0054200D01*
X0106779Y0055361D01*
X0105235Y0056000D01*
X0098365Y0056000D01*
X0096821Y0055361D01*
X0096700Y0055240D01*
X0096700Y0058178D01*
X0096894Y0058037D01*
X0097511Y0057722D01*
X0098170Y0057508D01*
X0098854Y0057400D01*
X0101800Y0057400D01*
X0104746Y0057400D01*
X0105430Y0057508D01*
X0106089Y0057722D01*
X0106706Y0058037D01*
X0107266Y0058444D01*
X0107756Y0058934D01*
X0108163Y0059494D01*
X0108478Y0060111D01*
X0108692Y0060770D01*
X0108800Y0061454D01*
X0108800Y0061800D01*
X0108800Y0062146D01*
X0108692Y0062830D01*
X0108478Y0063489D01*
X0108163Y0064106D01*
X0107756Y0064666D01*
X0107266Y0065156D01*
X0106706Y0065563D01*
X0106089Y0065878D01*
X0105430Y0066092D01*
X0104746Y0066200D01*
X0101800Y0066200D01*
X0101800Y0061800D01*
X0101800Y0061800D01*
X0108800Y0061800D01*
X0101800Y0061800D01*
X0101800Y0061800D01*
X0101800Y0066200D01*
X0098854Y0066200D01*
X0098170Y0066092D01*
X0097511Y0065878D01*
X0096894Y0065563D01*
X0096700Y0065422D01*
X0096700Y0068360D01*
X0096821Y0068239D01*
X0098365Y0067600D01*
X0105235Y0067600D01*
X0106779Y0068239D01*
X0107961Y0069421D01*
X0108600Y0070965D01*
X0108600Y0072635D01*
X0107961Y0074179D01*
X0106779Y0075361D01*
X0105235Y0076000D01*
X0098365Y0076000D01*
X0096821Y0075361D01*
X0095660Y0074200D01*
X0068214Y0074200D01*
X0067579Y0074836D01*
X0066262Y0075381D01*
X0064838Y0075381D01*
X0063521Y0074836D01*
X0062514Y0073829D01*
X0061969Y0072512D01*
X0061969Y0071088D01*
X0062514Y0069771D01*
X0063521Y0068764D01*
X0064838Y0068219D01*
X0066262Y0068219D01*
X0067579Y0068764D01*
X0068214Y0069400D01*
X0091900Y0069400D01*
X0091900Y0037840D01*
X0091845Y0037785D02*
X0086755Y0037785D01*
X0086040Y0038500D02*
X0088500Y0036040D01*
X0088500Y0032560D01*
X0086040Y0030100D01*
X0082560Y0030100D01*
X0080760Y0031900D01*
X0077840Y0031900D01*
X0076040Y0030100D01*
X0072560Y0030100D01*
X0070100Y0032560D01*
X0070100Y0036040D01*
X0072560Y0038500D01*
X0076040Y0038500D01*
X0077840Y0036700D01*
X0080760Y0036700D01*
X0082560Y0038500D01*
X0086040Y0038500D01*
X0088353Y0036187D02*
X0090247Y0036187D01*
X0090100Y0034588D02*
X0088500Y0034588D01*
X0088500Y0032990D02*
X0090100Y0032990D01*
X0091269Y0031391D02*
X0087331Y0031391D01*
X0084300Y0034300D02*
X0074300Y0034300D01*
X0077331Y0031391D02*
X0081269Y0031391D01*
X0081845Y0037785D02*
X0076755Y0037785D01*
X0071845Y0037785D02*
X0036755Y0037785D01*
X0038353Y0036187D02*
X0070247Y0036187D01*
X0070100Y0034588D02*
X0038500Y0034588D01*
X0038500Y0032990D02*
X0070100Y0032990D01*
X0071269Y0031391D02*
X0037331Y0031391D01*
X0037764Y0042109D02*
X0039546Y0042848D01*
X0040910Y0044211D01*
X0041648Y0045993D01*
X0041648Y0047922D01*
X0040910Y0049704D01*
X0039546Y0051067D01*
X0037764Y0051805D01*
X0035836Y0051805D01*
X0034054Y0051067D01*
X0032690Y0049704D01*
X0031952Y0047922D01*
X0031952Y0045993D01*
X0032690Y0044211D01*
X0034054Y0042848D01*
X0035836Y0042109D01*
X0037764Y0042109D01*
X0038902Y0042581D02*
X0091900Y0042581D01*
X0091900Y0044179D02*
X0040878Y0044179D01*
X0041559Y0045778D02*
X0091900Y0045778D01*
X0091900Y0047376D02*
X0041648Y0047376D01*
X0041212Y0048975D02*
X0091900Y0048975D01*
X0091900Y0050573D02*
X0040040Y0050573D01*
X0033560Y0050573D02*
X0027400Y0050573D01*
X0027400Y0048975D02*
X0032388Y0048975D01*
X0031952Y0047376D02*
X0027400Y0047376D01*
X0027400Y0045778D02*
X0032041Y0045778D01*
X0032722Y0044179D02*
X0027400Y0044179D01*
X0027400Y0042581D02*
X0034698Y0042581D01*
X0027400Y0040982D02*
X0091900Y0040982D01*
X0096700Y0040982D02*
X0107600Y0040982D01*
X0107600Y0042290D02*
X0107600Y0038810D01*
X0110060Y0036350D01*
X0113540Y0036350D01*
X0116000Y0038810D01*
X0116000Y0042290D01*
X0113540Y0044750D01*
X0110060Y0044750D01*
X0107600Y0042290D01*
X0107891Y0042581D02*
X0096700Y0042581D01*
X0096700Y0044179D02*
X0109489Y0044179D01*
X0114111Y0044179D02*
X0119207Y0044179D01*
X0119977Y0044950D02*
X0117400Y0042373D01*
X0117400Y0040550D01*
X0121800Y0040550D01*
X0126200Y0040550D01*
X0126200Y0042373D01*
X0123623Y0044950D01*
X0121800Y0044950D01*
X0121800Y0040550D01*
X0121800Y0040550D01*
X0121800Y0040550D01*
X0126200Y0040550D01*
X0126200Y0038727D01*
X0123623Y0036150D01*
X0121800Y0036150D01*
X0121800Y0040550D01*
X0121800Y0040550D01*
X0121800Y0040550D01*
X0121800Y0044950D01*
X0119977Y0044950D01*
X0121800Y0044179D02*
X0121800Y0044179D01*
X0121800Y0042581D02*
X0121800Y0042581D01*
X0121800Y0040982D02*
X0121800Y0040982D01*
X0121800Y0040550D02*
X0117400Y0040550D01*
X0117400Y0038727D01*
X0119977Y0036150D01*
X0121800Y0036150D01*
X0121800Y0040550D01*
X0121800Y0039384D02*
X0121800Y0039384D01*
X0121800Y0037785D02*
X0121800Y0037785D01*
X0121800Y0036187D02*
X0121800Y0036187D01*
X0123659Y0036187D02*
X0213050Y0036187D01*
X0213050Y0037785D02*
X0125258Y0037785D01*
X0126200Y0039384D02*
X0213050Y0039384D01*
X0213050Y0040982D02*
X0126200Y0040982D01*
X0125992Y0042581D02*
X0213050Y0042581D01*
X0213050Y0044179D02*
X0124393Y0044179D01*
X0126086Y0048975D02*
X0119039Y0048975D01*
X0120168Y0050573D02*
X0125162Y0050573D01*
X0125000Y0052172D02*
X0120381Y0052172D01*
X0119860Y0053770D02*
X0125470Y0053770D01*
X0126841Y0055369D02*
X0117542Y0055369D01*
X0116058Y0055369D02*
X0106759Y0055369D01*
X0107388Y0058566D02*
X0126495Y0058566D01*
X0125331Y0060164D02*
X0108495Y0060164D01*
X0108800Y0061763D02*
X0125000Y0061763D01*
X0125301Y0063361D02*
X0108519Y0063361D01*
X0107463Y0064960D02*
X0126420Y0064960D01*
X0127020Y0068157D02*
X0106580Y0068157D01*
X0108099Y0069755D02*
X0125501Y0069755D01*
X0125000Y0071354D02*
X0108600Y0071354D01*
X0108469Y0072952D02*
X0125131Y0072952D01*
X0126011Y0074551D02*
X0107589Y0074551D01*
X0105592Y0077748D02*
X0128007Y0077748D01*
X0125714Y0079346D02*
X0107886Y0079346D01*
X0108592Y0080945D02*
X0125008Y0080945D01*
X0125000Y0082543D02*
X0108600Y0082543D01*
X0107976Y0084142D02*
X0125624Y0084142D01*
X0127738Y0085740D02*
X0105862Y0085740D01*
X0105235Y0087600D02*
X0106779Y0088239D01*
X0107961Y0089421D01*
X0108600Y0090965D01*
X0108600Y0092635D01*
X0107961Y0094179D01*
X0106779Y0095361D01*
X0105235Y0096000D01*
X0098365Y0096000D01*
X0096821Y0095361D01*
X0095639Y0094179D01*
X0095000Y0092635D01*
X0095000Y0090965D01*
X0095639Y0089421D01*
X0096821Y0088239D01*
X0098365Y0087600D01*
X0105235Y0087600D01*
X0107477Y0088937D02*
X0126123Y0088937D01*
X0125639Y0089421D02*
X0126821Y0088239D01*
X0128365Y0087600D01*
X0135235Y0087600D01*
X0136779Y0088239D01*
X0137961Y0089421D01*
X0138600Y0090965D01*
X0138600Y0092635D01*
X0137961Y0094179D01*
X0136779Y0095361D01*
X0135235Y0096000D01*
X0128365Y0096000D01*
X0126821Y0095361D01*
X0125639Y0094179D01*
X0125000Y0092635D01*
X0125000Y0090965D01*
X0125639Y0089421D01*
X0125178Y0090536D02*
X0108422Y0090536D01*
X0108600Y0092134D02*
X0125000Y0092134D01*
X0125455Y0093733D02*
X0108145Y0093733D01*
X0106808Y0095332D02*
X0126792Y0095332D01*
X0128365Y0097600D02*
X0135235Y0097600D01*
X0136779Y0098239D01*
X0137961Y0099421D01*
X0138600Y0100965D01*
X0138600Y0102635D01*
X0137961Y0104179D01*
X0136779Y0105361D01*
X0135235Y0106000D01*
X0128365Y0106000D01*
X0126821Y0105361D01*
X0125639Y0104179D01*
X0125000Y0102635D01*
X0125000Y0100965D01*
X0125639Y0099421D01*
X0126821Y0098239D01*
X0128365Y0097600D01*
X0126532Y0098529D02*
X0107068Y0098529D01*
X0106779Y0098239D02*
X0107961Y0099421D01*
X0108600Y0100965D01*
X0108600Y0102635D01*
X0107961Y0104179D01*
X0106779Y0105361D01*
X0105235Y0106000D01*
X0098365Y0106000D01*
X0096821Y0105361D01*
X0095639Y0104179D01*
X0095000Y0102635D01*
X0095000Y0100965D01*
X0095639Y0099421D01*
X0096821Y0098239D01*
X0098365Y0097600D01*
X0105235Y0097600D01*
X0106779Y0098239D01*
X0108253Y0100127D02*
X0125347Y0100127D01*
X0125000Y0101726D02*
X0108600Y0101726D01*
X0108315Y0103324D02*
X0125285Y0103324D01*
X0126383Y0104923D02*
X0107217Y0104923D01*
X0106490Y0108120D02*
X0127110Y0108120D01*
X0126821Y0108239D02*
X0128365Y0107600D01*
X0135235Y0107600D01*
X0136779Y0108239D01*
X0137940Y0109400D01*
X0170386Y0109400D01*
X0171021Y0108764D01*
X0172338Y0108219D01*
X0173762Y0108219D01*
X0175079Y0108764D01*
X0176086Y0109771D01*
X0176631Y0111088D01*
X0176631Y0112512D01*
X0176086Y0113829D01*
X0175079Y0114836D01*
X0173762Y0115381D01*
X0172338Y0115381D01*
X0171021Y0114836D01*
X0170386Y0114200D01*
X0137940Y0114200D01*
X0136779Y0115361D01*
X0135235Y0116000D01*
X0128365Y0116000D01*
X0126821Y0115361D01*
X0125639Y0114179D01*
X0125000Y0112635D01*
X0125000Y0110965D01*
X0125639Y0109421D01*
X0126821Y0108239D01*
X0125516Y0109718D02*
X0108084Y0109718D01*
X0107961Y0109421D02*
X0108600Y0110965D01*
X0108600Y0112635D01*
X0107961Y0114179D01*
X0106779Y0115361D01*
X0105235Y0116000D01*
X0098365Y0116000D01*
X0096821Y0115361D01*
X0095639Y0114179D01*
X0095000Y0112635D01*
X0095000Y0110965D01*
X0095639Y0109421D01*
X0096821Y0108239D01*
X0098365Y0107600D01*
X0105235Y0107600D01*
X0106779Y0108239D01*
X0107961Y0109421D01*
X0108600Y0111317D02*
X0125000Y0111317D01*
X0125116Y0112915D02*
X0108484Y0112915D01*
X0107626Y0114514D02*
X0125974Y0114514D01*
X0126821Y0118239D02*
X0128365Y0117600D01*
X0135235Y0117600D01*
X0136779Y0118239D01*
X0137940Y0119400D01*
X0179136Y0119400D01*
X0179771Y0118764D01*
X0181088Y0118219D01*
X0182512Y0118219D01*
X0183829Y0118764D01*
X0184836Y0119771D01*
X0185381Y0121088D01*
X0185381Y0122512D01*
X0184836Y0123829D01*
X0183829Y0124836D01*
X0182512Y0125381D01*
X0181088Y0125381D01*
X0179771Y0124836D01*
X0179136Y0124200D01*
X0137940Y0124200D01*
X0136779Y0125361D01*
X0135235Y0126000D01*
X0128365Y0126000D01*
X0126821Y0125361D01*
X0125639Y0124179D01*
X0125000Y0122635D01*
X0125000Y0120965D01*
X0125639Y0119421D01*
X0126821Y0118239D01*
X0128097Y0117711D02*
X0105503Y0117711D01*
X0107849Y0119309D02*
X0125751Y0119309D01*
X0125024Y0120908D02*
X0108576Y0120908D01*
X0108600Y0122506D02*
X0125000Y0122506D01*
X0125609Y0124105D02*
X0107991Y0124105D01*
X0105952Y0125703D02*
X0127648Y0125703D01*
X0128170Y0127508D02*
X0128854Y0127400D01*
X0131800Y0127400D01*
X0134746Y0127400D01*
X0135430Y0127508D01*
X0136089Y0127722D01*
X0136706Y0128037D01*
X0137266Y0128444D01*
X0137756Y0128934D01*
X0138163Y0129494D01*
X0138478Y0130111D01*
X0138650Y0130642D01*
X0138650Y0129977D01*
X0141227Y0127400D01*
X0143050Y0127400D01*
X0144873Y0127400D01*
X0147450Y0129977D01*
X0147450Y0131800D01*
X0147450Y0133623D01*
X0144873Y0136200D01*
X0143050Y0136200D01*
X0143050Y0131800D01*
X0143050Y0131800D01*
X0147450Y0131800D01*
X0143050Y0131800D01*
X0143050Y0131800D01*
X0143050Y0136200D01*
X0141227Y0136200D01*
X0138650Y0133623D01*
X0138650Y0132958D01*
X0138478Y0133489D01*
X0138163Y0134106D01*
X0137756Y0134666D01*
X0137266Y0135156D01*
X0136706Y0135563D01*
X0136089Y0135878D01*
X0135430Y0136092D01*
X0134746Y0136200D01*
X0131800Y0136200D01*
X0131800Y0131800D01*
X0131800Y0131800D01*
X0138650Y0131800D01*
X0143050Y0131800D01*
X0143050Y0127400D01*
X0143050Y0131800D01*
X0143050Y0131800D01*
X0143050Y0131800D01*
X0131800Y0131800D01*
X0131800Y0131800D01*
X0131800Y0136200D01*
X0128854Y0136200D01*
X0128170Y0136092D01*
X0127511Y0135878D01*
X0126894Y0135563D01*
X0126334Y0135156D01*
X0125844Y0134666D01*
X0125437Y0134106D01*
X0125122Y0133489D01*
X0124908Y0132830D01*
X0124800Y0132146D01*
X0124800Y0131800D01*
X0131800Y0131800D01*
X0131800Y0127400D01*
X0131800Y0131800D01*
X0131800Y0131800D01*
X0131800Y0131800D01*
X0124800Y0131800D01*
X0124800Y0131454D01*
X0124908Y0130770D01*
X0125122Y0130111D01*
X0125437Y0129494D01*
X0125844Y0128934D01*
X0126334Y0128444D01*
X0126894Y0128037D01*
X0127511Y0127722D01*
X0128170Y0127508D01*
X0125877Y0128900D02*
X0107440Y0128900D01*
X0108407Y0130499D02*
X0124996Y0130499D01*
X0124800Y0132097D02*
X0108600Y0132097D01*
X0108161Y0133696D02*
X0125228Y0133696D01*
X0126524Y0135294D02*
X0106845Y0135294D01*
X0105235Y0137600D02*
X0106779Y0138239D01*
X0107961Y0139421D01*
X0108600Y0140965D01*
X0108600Y0142635D01*
X0107961Y0144179D01*
X0106779Y0145361D01*
X0105235Y0146000D01*
X0098365Y0146000D01*
X0096821Y0145361D01*
X0095660Y0144200D01*
X0043214Y0144200D01*
X0042579Y0144836D01*
X0041262Y0145381D01*
X0039838Y0145381D01*
X0038521Y0144836D01*
X0037514Y0143829D01*
X0036969Y0142512D01*
X0036969Y0141088D01*
X0037514Y0139771D01*
X0038521Y0138764D01*
X0039838Y0138219D01*
X0041262Y0138219D01*
X0042579Y0138764D01*
X0043214Y0139400D01*
X0095660Y0139400D01*
X0096821Y0138239D01*
X0098365Y0137600D01*
X0105235Y0137600D01*
X0107031Y0138491D02*
X0126569Y0138491D01*
X0125362Y0140090D02*
X0108238Y0140090D01*
X0108600Y0141688D02*
X0125000Y0141688D01*
X0125270Y0143287D02*
X0108330Y0143287D01*
X0107254Y0144885D02*
X0126346Y0144885D01*
X0127200Y0148082D02*
X0106400Y0148082D01*
X0106779Y0148239D02*
X0105235Y0147600D01*
X0098365Y0147600D01*
X0096821Y0148239D01*
X0095660Y0149400D01*
X0053214Y0149400D01*
X0052579Y0148764D01*
X0051262Y0148219D01*
X0049838Y0148219D01*
X0048521Y0148764D01*
X0047514Y0149771D01*
X0046969Y0151088D01*
X0046969Y0152512D01*
X0047514Y0153829D01*
X0048521Y0154836D01*
X0049838Y0155381D01*
X0051262Y0155381D01*
X0052579Y0154836D01*
X0053214Y0154200D01*
X0095660Y0154200D01*
X0096821Y0155361D01*
X0098365Y0156000D01*
X0105235Y0156000D01*
X0106779Y0155361D01*
X0107961Y0154179D01*
X0108600Y0152635D01*
X0108600Y0150965D01*
X0107961Y0149421D01*
X0106779Y0148239D01*
X0108068Y0149681D02*
X0125532Y0149681D01*
X0125000Y0151279D02*
X0108600Y0151279D01*
X0108500Y0152878D02*
X0125100Y0152878D01*
X0125788Y0159272D02*
X0119392Y0159272D01*
X0116800Y0156800D02*
X0171800Y0156800D01*
X0183850Y0168810D02*
X0186310Y0166350D01*
X0189790Y0166350D01*
X0192250Y0168810D01*
X0192250Y0172290D01*
X0189790Y0174750D01*
X0186310Y0174750D01*
X0183850Y0172290D01*
X0183850Y0168810D01*
X0183850Y0168863D02*
X0147303Y0168863D01*
X0148500Y0170060D02*
X0146040Y0167600D01*
X0142560Y0167600D01*
X0140100Y0170060D01*
X0140100Y0173540D01*
X0142560Y0176000D01*
X0146040Y0176000D01*
X0148500Y0173540D01*
X0148500Y0170060D01*
X0148500Y0170462D02*
X0183850Y0170462D01*
X0183850Y0172060D02*
X0148500Y0172060D01*
X0148381Y0173659D02*
X0185219Y0173659D01*
X0190881Y0173659D02*
X0195219Y0173659D01*
X0196310Y0174750D02*
X0193850Y0172290D01*
X0193850Y0168810D01*
X0196310Y0166350D01*
X0199790Y0166350D01*
X0202250Y0168810D01*
X0202250Y0172290D01*
X0199790Y0174750D01*
X0196310Y0174750D01*
X0193850Y0172060D02*
X0192250Y0172060D01*
X0192250Y0170462D02*
X0193850Y0170462D01*
X0193850Y0168863D02*
X0192250Y0168863D01*
X0190704Y0167265D02*
X0195396Y0167265D01*
X0200704Y0167265D02*
X0213050Y0167265D01*
X0213050Y0165666D02*
X0136042Y0165666D01*
X0135235Y0167600D02*
X0136779Y0168239D01*
X0137961Y0169421D01*
X0138600Y0170965D01*
X0138600Y0172635D01*
X0137961Y0174179D01*
X0136779Y0175361D01*
X0135235Y0176000D01*
X0128365Y0176000D01*
X0126821Y0175361D01*
X0125639Y0174179D01*
X0125000Y0172635D01*
X0125000Y0170965D01*
X0125639Y0169421D01*
X0126821Y0168239D01*
X0128365Y0167600D01*
X0135235Y0167600D01*
X0137403Y0168863D02*
X0141297Y0168863D01*
X0140100Y0170462D02*
X0138392Y0170462D01*
X0138600Y0172060D02*
X0140100Y0172060D01*
X0140219Y0173659D02*
X0138176Y0173659D01*
X0136883Y0175257D02*
X0141817Y0175257D01*
X0142477Y0177400D02*
X0139900Y0179977D01*
X0139900Y0181800D01*
X0144300Y0181800D01*
X0144300Y0181800D01*
X0144300Y0186200D01*
X0146123Y0186200D01*
X0148700Y0183623D01*
X0148700Y0181800D01*
X0144300Y0181800D01*
X0144300Y0181800D01*
X0144300Y0181800D01*
X0144300Y0186200D01*
X0142477Y0186200D01*
X0139900Y0183623D01*
X0139900Y0181800D01*
X0144300Y0181800D01*
X0148700Y0181800D01*
X0148700Y0179977D01*
X0146123Y0177400D01*
X0144300Y0177400D01*
X0144300Y0181800D01*
X0144300Y0181800D01*
X0144300Y0177400D01*
X0142477Y0177400D01*
X0141423Y0178454D02*
X0137277Y0178454D01*
X0137266Y0178444D02*
X0137756Y0178934D01*
X0138163Y0179494D01*
X0138478Y0180111D01*
X0138692Y0180770D01*
X0138800Y0181454D01*
X0138800Y0181800D01*
X0138800Y0182146D01*
X0138692Y0182830D01*
X0138478Y0183489D01*
X0138163Y0184106D01*
X0137756Y0184666D01*
X0137266Y0185156D01*
X0136706Y0185563D01*
X0136089Y0185878D01*
X0135430Y0186092D01*
X0134746Y0186200D01*
X0131800Y0186200D01*
X0131800Y0181800D01*
X0131800Y0181800D01*
X0138800Y0181800D01*
X0131800Y0181800D01*
X0131800Y0181800D01*
X0131800Y0177400D01*
X0134746Y0177400D01*
X0135430Y0177508D01*
X0136089Y0177722D01*
X0136706Y0178037D01*
X0137266Y0178444D01*
X0138448Y0180053D02*
X0139900Y0180053D01*
X0139900Y0181651D02*
X0138800Y0181651D01*
X0138555Y0183250D02*
X0139900Y0183250D01*
X0141126Y0184848D02*
X0137574Y0184848D01*
X0133500Y0188810D02*
X0131040Y0186350D01*
X0127560Y0186350D01*
X0125100Y0188810D01*
X0125100Y0192290D01*
X0127560Y0194750D01*
X0131040Y0194750D01*
X0133500Y0192290D01*
X0133500Y0188810D01*
X0133500Y0189644D02*
X0170726Y0189644D01*
X0170815Y0191242D02*
X0133500Y0191242D01*
X0132949Y0192841D02*
X0171641Y0192841D01*
X0168421Y0188045D02*
X0132735Y0188045D01*
X0131800Y0186200D02*
X0128854Y0186200D01*
X0128170Y0186092D01*
X0127511Y0185878D01*
X0126894Y0185563D01*
X0126334Y0185156D01*
X0125844Y0184666D01*
X0125437Y0184106D01*
X0125122Y0183489D01*
X0124908Y0182830D01*
X0124800Y0182146D01*
X0124800Y0181800D01*
X0131800Y0181800D01*
X0131800Y0181800D01*
X0131800Y0181800D01*
X0131800Y0186200D01*
X0131136Y0186447D02*
X0167636Y0186447D01*
X0167576Y0184848D02*
X0147474Y0184848D01*
X0148700Y0183250D02*
X0168152Y0183250D01*
X0170064Y0181651D02*
X0148700Y0181651D01*
X0148700Y0180053D02*
X0207850Y0180053D01*
X0207625Y0181651D02*
X0186036Y0181651D01*
X0182663Y0181651D02*
X0179737Y0181651D01*
X0176363Y0181651D02*
X0173437Y0181651D01*
X0184349Y0185471D02*
X0184428Y0185550D01*
X0201800Y0185550D01*
X0205550Y0189300D01*
X0211800Y0189300D01*
X0208749Y0186447D02*
X0206091Y0186447D01*
X0204492Y0184848D02*
X0209318Y0184848D01*
X0208037Y0183250D02*
X0202518Y0183250D01*
X0200901Y0188045D02*
X0187679Y0188045D01*
X0185374Y0189644D02*
X0202500Y0189644D01*
X0204098Y0191242D02*
X0185285Y0191242D01*
X0184459Y0192841D02*
X0209439Y0192841D01*
X0208631Y0194439D02*
X0131350Y0194439D01*
X0127250Y0194439D02*
X0095442Y0194439D01*
X0094261Y0196038D02*
X0104123Y0196038D01*
X0102600Y0197636D02*
X0093079Y0197636D01*
X0091898Y0199235D02*
X0102600Y0199235D01*
X0102600Y0200833D02*
X0090716Y0200833D01*
X0089535Y0202432D02*
X0103992Y0202432D01*
X0104400Y0204030D02*
X0088353Y0204030D01*
X0087172Y0205629D02*
X0104400Y0205629D01*
X0104400Y0207227D02*
X0085990Y0207227D01*
X0085572Y0208826D02*
X0103834Y0208826D01*
X0102600Y0210424D02*
X0085850Y0210424D01*
X0085677Y0212023D02*
X0102600Y0212023D01*
X0106800Y0211800D02*
X0106800Y0199300D01*
X0111000Y0199235D02*
X0141893Y0199235D01*
X0141150Y0199977D02*
X0143727Y0197400D01*
X0145550Y0197400D01*
X0147373Y0197400D01*
X0149950Y0199977D01*
X0149950Y0201800D01*
X0149950Y0203623D01*
X0147373Y0206200D01*
X0145550Y0206200D01*
X0145550Y0201800D01*
X0145550Y0201800D01*
X0149950Y0201800D01*
X0145550Y0201800D01*
X0145550Y0201800D01*
X0145550Y0201800D01*
X0141150Y0201800D01*
X0141150Y0203623D01*
X0143727Y0206200D01*
X0145550Y0206200D01*
X0145550Y0201800D01*
X0145550Y0197400D01*
X0145550Y0201800D01*
X0145550Y0201800D01*
X0141150Y0201800D01*
X0141150Y0199977D01*
X0141150Y0200833D02*
X0111000Y0200833D01*
X0109608Y0202432D02*
X0141150Y0202432D01*
X0141558Y0204030D02*
X0109200Y0204030D01*
X0109200Y0205629D02*
X0143156Y0205629D01*
X0145550Y0205629D02*
X0145550Y0205629D01*
X0145550Y0204030D02*
X0145550Y0204030D01*
X0145550Y0202432D02*
X0145550Y0202432D01*
X0145550Y0200833D02*
X0145550Y0200833D01*
X0145550Y0199235D02*
X0145550Y0199235D01*
X0145550Y0197636D02*
X0145550Y0197636D01*
X0147609Y0197636D02*
X0207625Y0197636D01*
X0207752Y0196038D02*
X0109477Y0196038D01*
X0111000Y0197636D02*
X0143491Y0197636D01*
X0149207Y0199235D02*
X0160085Y0199235D01*
X0159596Y0199437D02*
X0162246Y0198340D01*
X0165114Y0198340D01*
X0167764Y0199437D01*
X0169792Y0201466D01*
X0170890Y0204116D01*
X0170890Y0206984D01*
X0169792Y0209634D01*
X0167764Y0211663D01*
X0165114Y0212760D01*
X0162246Y0212760D01*
X0159596Y0211663D01*
X0157567Y0209634D01*
X0157154Y0208636D01*
X0154790Y0211000D01*
X0151310Y0211000D01*
X0148850Y0208540D01*
X0148850Y0205060D01*
X0151310Y0202600D01*
X0154790Y0202600D01*
X0156470Y0204280D01*
X0156470Y0204116D01*
X0157567Y0201466D01*
X0159596Y0199437D01*
X0158200Y0200833D02*
X0149950Y0200833D01*
X0149950Y0202432D02*
X0157167Y0202432D01*
X0156505Y0204030D02*
X0156220Y0204030D01*
X0156964Y0208826D02*
X0157233Y0208826D01*
X0158357Y0210424D02*
X0155365Y0210424D01*
X0150735Y0210424D02*
X0149750Y0210424D01*
X0149750Y0212023D02*
X0160466Y0212023D01*
X0166894Y0212023D02*
X0189206Y0212023D01*
X0188336Y0211663D02*
X0186308Y0209634D01*
X0185210Y0206984D01*
X0185210Y0204116D01*
X0186308Y0201466D01*
X0188336Y0199437D01*
X0190986Y0198340D01*
X0193854Y0198340D01*
X0196504Y0199437D01*
X0198533Y0201466D01*
X0199630Y0204116D01*
X0199630Y0206984D01*
X0198533Y0209634D01*
X0196504Y0211663D01*
X0193854Y0212760D01*
X0190986Y0212760D01*
X0188336Y0211663D01*
X0187098Y0210424D02*
X0169002Y0210424D01*
X0170127Y0208826D02*
X0185973Y0208826D01*
X0185311Y0207227D02*
X0170789Y0207227D01*
X0170890Y0205629D02*
X0185210Y0205629D01*
X0185245Y0204030D02*
X0170855Y0204030D01*
X0170193Y0202432D02*
X0185907Y0202432D01*
X0186940Y0200833D02*
X0169160Y0200833D01*
X0167275Y0199235D02*
X0188825Y0199235D01*
X0196015Y0199235D02*
X0208135Y0199235D01*
X0209307Y0200833D02*
X0197900Y0200833D01*
X0198933Y0202432D02*
X0207636Y0202432D01*
X0206974Y0204030D02*
X0199595Y0204030D01*
X0199630Y0205629D02*
X0206952Y0205629D01*
X0207455Y0207227D02*
X0199530Y0207227D01*
X0198867Y0208826D02*
X0208722Y0208826D01*
X0213050Y0210424D02*
X0197743Y0210424D01*
X0195634Y0212023D02*
X0213050Y0212023D01*
X0208868Y0178454D02*
X0147177Y0178454D01*
X0146783Y0175257D02*
X0207259Y0175257D01*
X0206952Y0173659D02*
X0200881Y0173659D01*
X0202250Y0172060D02*
X0207170Y0172060D01*
X0208034Y0170462D02*
X0202250Y0170462D01*
X0202250Y0168863D02*
X0210452Y0168863D01*
X0213050Y0164068D02*
X0202597Y0164068D01*
X0201800Y0161800D02*
X0131800Y0161800D01*
X0127558Y0165666D02*
X0106042Y0165666D01*
X0108007Y0164068D02*
X0125593Y0164068D01*
X0125000Y0162469D02*
X0108600Y0162469D01*
X0108561Y0160870D02*
X0125039Y0160870D01*
X0126197Y0168863D02*
X0107403Y0168863D01*
X0108392Y0170462D02*
X0125208Y0170462D01*
X0125000Y0172060D02*
X0108600Y0172060D01*
X0108176Y0173659D02*
X0125424Y0173659D01*
X0126717Y0175257D02*
X0106883Y0175257D01*
X0106994Y0178454D02*
X0126323Y0178454D01*
X0126334Y0178444D02*
X0126894Y0178037D01*
X0127511Y0177722D01*
X0128170Y0177508D01*
X0128854Y0177400D01*
X0131800Y0177400D01*
X0131800Y0181800D01*
X0124800Y0181800D01*
X0124800Y0181454D01*
X0124908Y0180770D01*
X0125122Y0180111D01*
X0125437Y0179494D01*
X0125844Y0178934D01*
X0126334Y0178444D01*
X0125152Y0180053D02*
X0108222Y0180053D01*
X0108600Y0181651D02*
X0124800Y0181651D01*
X0125045Y0183250D02*
X0108346Y0183250D01*
X0107292Y0184848D02*
X0126026Y0184848D01*
X0127464Y0186447D02*
X0101350Y0186447D01*
X0100168Y0188045D02*
X0125865Y0188045D01*
X0125100Y0189644D02*
X0098987Y0189644D01*
X0097805Y0191242D02*
X0125100Y0191242D01*
X0125651Y0192841D02*
X0096624Y0192841D01*
X0093018Y0189644D02*
X0087350Y0189644D01*
X0087950Y0188045D02*
X0094200Y0188045D01*
X0095381Y0186447D02*
X0087950Y0186447D01*
X0088442Y0184848D02*
X0096308Y0184848D01*
X0096606Y0178454D02*
X0088144Y0178454D01*
X0085550Y0181800D02*
X0085550Y0188050D01*
X0081800Y0191800D01*
X0041643Y0191800D01*
X0033050Y0191643D01*
X0036309Y0188045D02*
X0082161Y0188045D01*
X0083150Y0186447D02*
X0027400Y0186447D01*
X0027400Y0188045D02*
X0029791Y0188045D01*
X0028630Y0189644D02*
X0027400Y0189644D01*
X0027400Y0191242D02*
X0028202Y0191242D01*
X0028299Y0192841D02*
X0027400Y0192841D01*
X0027400Y0194439D02*
X0028991Y0194439D01*
X0027400Y0196038D02*
X0030992Y0196038D01*
X0035108Y0196038D02*
X0064123Y0196038D01*
X0065060Y0195100D02*
X0068540Y0195100D01*
X0071000Y0197560D01*
X0071000Y0201040D01*
X0068540Y0203500D01*
X0065060Y0203500D01*
X0062600Y0201040D01*
X0062600Y0197560D01*
X0065060Y0195100D01*
X0062600Y0197636D02*
X0027400Y0197636D01*
X0027400Y0199235D02*
X0062600Y0199235D01*
X0062600Y0200833D02*
X0027400Y0200833D01*
X0027400Y0202432D02*
X0063992Y0202432D01*
X0062519Y0205629D02*
X0068094Y0205629D01*
X0070350Y0205629D02*
X0070750Y0205629D01*
X0070750Y0207227D02*
X0070350Y0207227D01*
X0070350Y0208826D02*
X0070750Y0208826D01*
X0073006Y0205629D02*
X0078581Y0205629D01*
X0076377Y0207227D02*
X0074934Y0207227D01*
X0080550Y0210550D02*
X0101800Y0181800D01*
X0085550Y0181800D01*
X0082658Y0184848D02*
X0048724Y0184848D01*
X0049950Y0183623D02*
X0047373Y0186200D01*
X0045550Y0186200D01*
X0045550Y0181800D01*
X0049950Y0181800D01*
X0049950Y0183623D01*
X0049950Y0183250D02*
X0081350Y0183250D01*
X0081350Y0181651D02*
X0049950Y0181651D01*
X0049950Y0181800D02*
X0045550Y0181800D01*
X0045550Y0181800D01*
X0045550Y0181800D01*
X0045550Y0177400D01*
X0047373Y0177400D01*
X0049950Y0179977D01*
X0049950Y0181800D01*
X0049950Y0180053D02*
X0081358Y0180053D01*
X0082956Y0178454D02*
X0048427Y0178454D01*
X0045550Y0178454D02*
X0045550Y0178454D01*
X0045550Y0177400D02*
X0045550Y0181800D01*
X0045550Y0181800D01*
X0045550Y0181800D01*
X0041150Y0181800D01*
X0041150Y0183623D01*
X0043727Y0186200D01*
X0045550Y0186200D01*
X0045550Y0181800D01*
X0041150Y0181800D01*
X0041150Y0179977D01*
X0043727Y0177400D01*
X0045550Y0177400D01*
X0045550Y0180053D02*
X0045550Y0180053D01*
X0045550Y0181651D02*
X0045550Y0181651D01*
X0045550Y0183250D02*
X0045550Y0183250D01*
X0045550Y0184848D02*
X0045550Y0184848D01*
X0042376Y0184848D02*
X0027400Y0184848D01*
X0027400Y0183250D02*
X0041150Y0183250D01*
X0041150Y0181651D02*
X0027400Y0181651D01*
X0027400Y0180053D02*
X0041150Y0180053D01*
X0042673Y0178454D02*
X0027400Y0178454D01*
X0027400Y0176856D02*
X0208247Y0176856D01*
X0204525Y0162469D02*
X0213050Y0162469D01*
X0209625Y0160870D02*
X0206124Y0160870D01*
X0207722Y0159272D02*
X0208337Y0159272D01*
X0206800Y0156800D02*
X0201800Y0161800D01*
X0206800Y0156800D02*
X0213050Y0156800D01*
X0213050Y0146800D02*
X0206800Y0146800D01*
X0201800Y0151800D01*
X0131800Y0151800D01*
X0136400Y0148082D02*
X0202123Y0148082D01*
X0203722Y0146484D02*
X0032100Y0146484D01*
X0032005Y0148082D02*
X0097200Y0148082D01*
X0096346Y0144885D02*
X0042459Y0144885D01*
X0038641Y0144885D02*
X0031744Y0144885D01*
X0030782Y0143287D02*
X0037290Y0143287D01*
X0036969Y0141688D02*
X0028848Y0141688D01*
X0031005Y0140090D02*
X0037382Y0140090D01*
X0038503Y0138491D02*
X0039180Y0138491D01*
X0040101Y0136893D02*
X0203313Y0136893D01*
X0201715Y0138491D02*
X0137031Y0138491D01*
X0137076Y0135294D02*
X0140322Y0135294D01*
X0138723Y0133696D02*
X0138372Y0133696D01*
X0138604Y0130499D02*
X0138650Y0130499D01*
X0137723Y0128900D02*
X0139727Y0128900D01*
X0143050Y0128900D02*
X0143050Y0128900D01*
X0143050Y0130499D02*
X0143050Y0130499D01*
X0143050Y0132097D02*
X0143050Y0132097D01*
X0143050Y0133696D02*
X0143050Y0133696D01*
X0143050Y0135294D02*
X0143050Y0135294D01*
X0145778Y0135294D02*
X0150605Y0135294D01*
X0151310Y0136000D02*
X0148850Y0133540D01*
X0148850Y0130060D01*
X0151310Y0127600D01*
X0154790Y0127600D01*
X0157250Y0130060D01*
X0157250Y0133540D01*
X0154790Y0136000D01*
X0151310Y0136000D01*
X0149006Y0133696D02*
X0147377Y0133696D01*
X0147450Y0132097D02*
X0148850Y0132097D01*
X0148850Y0130499D02*
X0147450Y0130499D01*
X0146373Y0128900D02*
X0150010Y0128900D01*
X0156090Y0128900D02*
X0195599Y0128900D01*
X0193908Y0127302D02*
X0040942Y0127302D01*
X0042541Y0125703D02*
X0097648Y0125703D01*
X0096160Y0128900D02*
X0039251Y0128900D01*
X0039707Y0130499D02*
X0030597Y0130499D01*
X0029296Y0132097D02*
X0038109Y0132097D01*
X0036510Y0133696D02*
X0031191Y0133696D01*
X0026800Y0136800D02*
X0036800Y0136800D01*
X0041800Y0131800D01*
X0101800Y0131800D01*
X0096755Y0135294D02*
X0041700Y0135294D01*
X0041920Y0138491D02*
X0096569Y0138491D01*
X0101800Y0141800D02*
X0040550Y0141800D01*
X0047605Y0149681D02*
X0033075Y0149681D01*
X0034674Y0151279D02*
X0046969Y0151279D01*
X0047120Y0152878D02*
X0036272Y0152878D01*
X0037871Y0154476D02*
X0048162Y0154476D01*
X0050550Y0151800D02*
X0101800Y0151800D01*
X0107663Y0154476D02*
X0114059Y0154476D01*
X0113224Y0156075D02*
X0039469Y0156075D01*
X0041068Y0157673D02*
X0098187Y0157673D01*
X0095788Y0159272D02*
X0042666Y0159272D01*
X0041800Y0161800D02*
X0026800Y0146800D01*
X0026800Y0156800D02*
X0041800Y0171800D01*
X0101800Y0171800D01*
X0096717Y0175257D02*
X0036607Y0175257D01*
X0037593Y0173659D02*
X0040264Y0173659D01*
X0038666Y0172060D02*
X0037898Y0172060D01*
X0042257Y0168863D02*
X0096197Y0168863D01*
X0097558Y0165666D02*
X0039060Y0165666D01*
X0037462Y0164068D02*
X0041003Y0164068D01*
X0041800Y0161800D02*
X0101800Y0161800D01*
X0105413Y0157673D02*
X0113286Y0157673D01*
X0114208Y0159272D02*
X0107812Y0159272D01*
X0095937Y0154476D02*
X0052938Y0154476D01*
X0039075Y0162469D02*
X0035863Y0162469D01*
X0034265Y0160870D02*
X0037476Y0160870D01*
X0035878Y0159272D02*
X0032666Y0159272D01*
X0032100Y0157673D02*
X0034279Y0157673D01*
X0032681Y0156075D02*
X0032100Y0156075D01*
X0029075Y0162469D02*
X0027400Y0162469D01*
X0027400Y0164068D02*
X0030673Y0164068D01*
X0032272Y0165666D02*
X0027400Y0165666D01*
X0027400Y0167265D02*
X0031711Y0167265D01*
X0029288Y0168863D02*
X0027400Y0168863D01*
X0027400Y0170462D02*
X0028422Y0170462D01*
X0028202Y0172060D02*
X0027400Y0172060D01*
X0027400Y0173659D02*
X0028507Y0173659D01*
X0029493Y0175257D02*
X0027400Y0175257D01*
X0040659Y0167265D02*
X0185396Y0167265D01*
X0205321Y0144885D02*
X0137254Y0144885D01*
X0131800Y0141800D02*
X0201800Y0141800D01*
X0206800Y0136800D01*
X0213050Y0136800D01*
X0210554Y0132097D02*
X0157250Y0132097D01*
X0157250Y0130499D02*
X0209253Y0130499D01*
X0208659Y0133696D02*
X0157094Y0133696D01*
X0155495Y0135294D02*
X0204912Y0135294D01*
X0206904Y0140090D02*
X0208845Y0140090D01*
X0211002Y0141688D02*
X0205306Y0141688D01*
X0203707Y0143287D02*
X0209068Y0143287D01*
X0213050Y0126800D02*
X0196800Y0126800D01*
X0151800Y0081800D01*
X0131800Y0081800D01*
X0135592Y0077748D02*
X0154354Y0077748D01*
X0155952Y0079346D02*
X0137886Y0079346D01*
X0137589Y0074551D02*
X0151157Y0074551D01*
X0152755Y0076149D02*
X0055450Y0076149D01*
X0055450Y0074551D02*
X0063236Y0074551D01*
X0062151Y0072952D02*
X0055450Y0072952D01*
X0055450Y0071354D02*
X0061969Y0071354D01*
X0062530Y0069755D02*
X0054399Y0069755D01*
X0053050Y0071800D02*
X0053050Y0078050D01*
X0054300Y0079300D01*
X0084300Y0079300D01*
X0094300Y0079300D01*
X0096800Y0081800D01*
X0101800Y0081800D01*
X0098007Y0077748D02*
X0096142Y0077748D01*
X0096011Y0074551D02*
X0067864Y0074551D01*
X0065550Y0071800D02*
X0101800Y0071800D01*
X0094300Y0071800D01*
X0094300Y0034300D01*
X0097331Y0031391D02*
X0213050Y0031391D01*
X0213050Y0032990D02*
X0098500Y0032990D01*
X0098500Y0034588D02*
X0213050Y0034588D01*
X0213050Y0045778D02*
X0096700Y0045778D01*
X0096700Y0047376D02*
X0213050Y0047376D01*
X0213050Y0048975D02*
X0137514Y0048975D01*
X0136759Y0055369D02*
X0151975Y0055369D01*
X0153573Y0056967D02*
X0096700Y0056967D01*
X0096700Y0055369D02*
X0096841Y0055369D01*
X0091900Y0055369D02*
X0027400Y0055369D01*
X0027400Y0056967D02*
X0091900Y0056967D01*
X0091900Y0058566D02*
X0027400Y0058566D01*
X0027400Y0060164D02*
X0091900Y0060164D01*
X0091900Y0061763D02*
X0027400Y0061763D01*
X0027400Y0063361D02*
X0033225Y0063361D01*
X0032250Y0064960D02*
X0027400Y0064960D01*
X0027400Y0066558D02*
X0031952Y0066558D01*
X0032180Y0068157D02*
X0027400Y0068157D01*
X0027400Y0069755D02*
X0033057Y0069755D01*
X0035506Y0071354D02*
X0027400Y0071354D01*
X0027400Y0072952D02*
X0044425Y0072952D01*
X0042827Y0074551D02*
X0027400Y0074551D01*
X0027400Y0076149D02*
X0042400Y0076149D01*
X0042400Y0077748D02*
X0027400Y0077748D01*
X0027400Y0079346D02*
X0043124Y0079346D01*
X0044722Y0080945D02*
X0027400Y0080945D01*
X0030039Y0082543D02*
X0077662Y0082543D01*
X0076064Y0084142D02*
X0031436Y0084142D01*
X0032098Y0085740D02*
X0074465Y0085740D01*
X0072867Y0087339D02*
X0032100Y0087339D01*
X0031651Y0088937D02*
X0059598Y0088937D01*
X0058447Y0090536D02*
X0030559Y0090536D01*
X0029736Y0092134D02*
X0058071Y0092134D01*
X0056473Y0093733D02*
X0031370Y0093733D01*
X0032106Y0095332D02*
X0054874Y0095332D01*
X0053276Y0096930D02*
X0027400Y0096930D01*
X0032021Y0098529D02*
X0051677Y0098529D01*
X0050079Y0100127D02*
X0031181Y0100127D01*
X0029248Y0101726D02*
X0048480Y0101726D01*
X0046882Y0103324D02*
X0030819Y0103324D01*
X0026800Y0106800D02*
X0046800Y0106800D01*
X0061800Y0091800D01*
X0065153Y0090536D02*
X0069670Y0090536D01*
X0071268Y0088937D02*
X0064002Y0088937D01*
X0065381Y0092134D02*
X0068071Y0092134D01*
X0066473Y0093733D02*
X0064875Y0093733D01*
X0064874Y0095332D02*
X0062632Y0095332D01*
X0063276Y0096930D02*
X0060064Y0096930D01*
X0058466Y0098529D02*
X0061677Y0098529D01*
X0060079Y0100127D02*
X0056867Y0100127D01*
X0055269Y0101726D02*
X0058480Y0101726D01*
X0056882Y0103324D02*
X0053670Y0103324D01*
X0052072Y0104923D02*
X0055283Y0104923D01*
X0053685Y0106521D02*
X0050473Y0106521D01*
X0048874Y0108120D02*
X0052086Y0108120D01*
X0050488Y0109718D02*
X0031328Y0109718D01*
X0029745Y0111317D02*
X0048889Y0111317D01*
X0044745Y0112915D02*
X0030410Y0112915D01*
X0026800Y0116800D02*
X0046800Y0116800D01*
X0084300Y0079300D01*
X0084451Y0082543D02*
X0084811Y0082543D01*
X0083414Y0084142D02*
X0082852Y0084142D01*
X0082752Y0085740D02*
X0081254Y0085740D01*
X0082750Y0087339D02*
X0079655Y0087339D01*
X0078057Y0088937D02*
X0083199Y0088937D01*
X0084291Y0090536D02*
X0076458Y0090536D01*
X0074860Y0092134D02*
X0085464Y0092134D01*
X0083622Y0093733D02*
X0073261Y0093733D01*
X0071663Y0095332D02*
X0082922Y0095332D01*
X0082750Y0096930D02*
X0070064Y0096930D01*
X0068466Y0098529D02*
X0083029Y0098529D01*
X0083882Y0100127D02*
X0066867Y0100127D01*
X0065269Y0101726D02*
X0086092Y0101726D01*
X0084031Y0103324D02*
X0063670Y0103324D01*
X0062072Y0104923D02*
X0083091Y0104923D01*
X0082750Y0106521D02*
X0060473Y0106521D01*
X0058874Y0108120D02*
X0082860Y0108120D01*
X0083522Y0109718D02*
X0057276Y0109718D01*
X0055677Y0111317D02*
X0085105Y0111317D01*
X0090995Y0111317D02*
X0095000Y0111317D01*
X0095116Y0112915D02*
X0054079Y0112915D01*
X0052480Y0114514D02*
X0095974Y0114514D01*
X0098097Y0117711D02*
X0051000Y0117711D01*
X0051000Y0116112D02*
X0182718Y0116112D01*
X0181120Y0114514D02*
X0175401Y0114514D01*
X0176464Y0112915D02*
X0179521Y0112915D01*
X0177923Y0111317D02*
X0176631Y0111317D01*
X0176324Y0109718D02*
X0176033Y0109718D01*
X0174726Y0108120D02*
X0136490Y0108120D01*
X0137217Y0104923D02*
X0141483Y0104923D01*
X0141921Y0105361D02*
X0140739Y0104179D01*
X0140100Y0102635D01*
X0140100Y0100965D01*
X0140739Y0099421D01*
X0141921Y0098239D01*
X0143465Y0097600D01*
X0145135Y0097600D01*
X0146679Y0098239D01*
X0147861Y0099421D01*
X0148500Y0100965D01*
X0148500Y0102635D01*
X0147861Y0104179D01*
X0146679Y0105361D01*
X0145135Y0106000D01*
X0143465Y0106000D01*
X0141921Y0105361D01*
X0140385Y0103324D02*
X0138315Y0103324D01*
X0138600Y0101726D02*
X0140100Y0101726D01*
X0140447Y0100127D02*
X0138253Y0100127D01*
X0137068Y0098529D02*
X0141632Y0098529D01*
X0146968Y0098529D02*
X0161632Y0098529D01*
X0160100Y0100127D02*
X0148153Y0100127D01*
X0148500Y0101726D02*
X0160100Y0101726D01*
X0160100Y0103324D02*
X0148215Y0103324D01*
X0147117Y0104923D02*
X0161483Y0104923D01*
X0167117Y0104923D02*
X0171528Y0104923D01*
X0169930Y0103324D02*
X0168500Y0103324D01*
X0173127Y0106521D02*
X0093350Y0106521D01*
X0093240Y0108120D02*
X0097110Y0108120D01*
X0095516Y0109718D02*
X0092578Y0109718D01*
X0093009Y0104923D02*
X0096383Y0104923D01*
X0095285Y0103324D02*
X0092069Y0103324D01*
X0090008Y0101726D02*
X0095000Y0101726D01*
X0095347Y0100127D02*
X0092218Y0100127D01*
X0093071Y0098529D02*
X0096532Y0098529D01*
X0096792Y0095332D02*
X0093178Y0095332D01*
X0093350Y0096930D02*
X0163536Y0096930D01*
X0161937Y0095332D02*
X0136808Y0095332D01*
X0138145Y0093733D02*
X0160339Y0093733D01*
X0158740Y0092134D02*
X0138600Y0092134D01*
X0138422Y0090536D02*
X0157142Y0090536D01*
X0155543Y0088937D02*
X0137477Y0088937D01*
X0135862Y0085740D02*
X0152346Y0085740D01*
X0153945Y0087339D02*
X0093350Y0087339D01*
X0093348Y0085740D02*
X0097738Y0085740D01*
X0095624Y0084142D02*
X0092686Y0084142D01*
X0091289Y0082543D02*
X0094149Y0082543D01*
X0092901Y0088937D02*
X0096123Y0088937D01*
X0095178Y0090536D02*
X0091809Y0090536D01*
X0090636Y0092134D02*
X0095000Y0092134D01*
X0095455Y0093733D02*
X0092478Y0093733D01*
X0091900Y0068157D02*
X0052294Y0068157D01*
X0051800Y0070550D02*
X0053050Y0071800D01*
X0051800Y0070550D02*
X0040707Y0070550D01*
X0036800Y0066643D01*
X0041648Y0066558D02*
X0091900Y0066558D01*
X0091900Y0064960D02*
X0041350Y0064960D01*
X0040375Y0063361D02*
X0091900Y0063361D01*
X0096700Y0066558D02*
X0153164Y0066558D01*
X0151566Y0064960D02*
X0137180Y0064960D01*
X0136580Y0068157D02*
X0154763Y0068157D01*
X0156361Y0069755D02*
X0153135Y0069755D01*
X0154748Y0071354D02*
X0157960Y0071354D01*
X0159558Y0072952D02*
X0156346Y0072952D01*
X0157945Y0074551D02*
X0161157Y0074551D01*
X0162755Y0076149D02*
X0159543Y0076149D01*
X0161142Y0077748D02*
X0164354Y0077748D01*
X0165952Y0079346D02*
X0162741Y0079346D01*
X0164339Y0080945D02*
X0167551Y0080945D01*
X0169149Y0082543D02*
X0165938Y0082543D01*
X0167536Y0084142D02*
X0170748Y0084142D01*
X0172346Y0085740D02*
X0169135Y0085740D01*
X0170733Y0087339D02*
X0173945Y0087339D01*
X0175543Y0088937D02*
X0172332Y0088937D01*
X0173930Y0090536D02*
X0177142Y0090536D01*
X0178740Y0092134D02*
X0175529Y0092134D01*
X0177127Y0093733D02*
X0180339Y0093733D01*
X0181937Y0095332D02*
X0178726Y0095332D01*
X0180324Y0096930D02*
X0183536Y0096930D01*
X0185134Y0098529D02*
X0181923Y0098529D01*
X0183521Y0100127D02*
X0186733Y0100127D01*
X0188331Y0101726D02*
X0185120Y0101726D01*
X0186718Y0103324D02*
X0189930Y0103324D01*
X0191528Y0104923D02*
X0188317Y0104923D01*
X0189915Y0106521D02*
X0193127Y0106521D01*
X0194726Y0108120D02*
X0191514Y0108120D01*
X0193112Y0109718D02*
X0208522Y0109718D01*
X0210105Y0111317D02*
X0194711Y0111317D01*
X0196309Y0112915D02*
X0209440Y0112915D01*
X0213050Y0116800D02*
X0196800Y0116800D01*
X0151800Y0071800D01*
X0131800Y0071800D01*
X0131800Y0061800D02*
X0151800Y0061800D01*
X0196800Y0106800D01*
X0213050Y0106800D01*
X0209031Y0103324D02*
X0196718Y0103324D01*
X0195120Y0101726D02*
X0211092Y0101726D01*
X0208882Y0100127D02*
X0199376Y0100127D01*
X0196724Y0100127D02*
X0193521Y0100127D01*
X0194890Y0098529D02*
X0191923Y0098529D01*
X0190324Y0096930D02*
X0193536Y0096930D01*
X0191937Y0095332D02*
X0188726Y0095332D01*
X0187127Y0093733D02*
X0190339Y0093733D01*
X0188740Y0092134D02*
X0185529Y0092134D01*
X0183930Y0090536D02*
X0187142Y0090536D01*
X0185543Y0088937D02*
X0182332Y0088937D01*
X0180733Y0087339D02*
X0183945Y0087339D01*
X0182346Y0085740D02*
X0179135Y0085740D01*
X0177536Y0084142D02*
X0180748Y0084142D01*
X0179149Y0082543D02*
X0175938Y0082543D01*
X0174339Y0080945D02*
X0177551Y0080945D01*
X0175952Y0079346D02*
X0172741Y0079346D01*
X0171142Y0077748D02*
X0174354Y0077748D01*
X0172755Y0076149D02*
X0169543Y0076149D01*
X0167945Y0074551D02*
X0171157Y0074551D01*
X0169558Y0072952D02*
X0166346Y0072952D01*
X0164748Y0071354D02*
X0167960Y0071354D01*
X0166361Y0069755D02*
X0163149Y0069755D01*
X0161551Y0068157D02*
X0164763Y0068157D01*
X0163164Y0066558D02*
X0159952Y0066558D01*
X0158354Y0064960D02*
X0161566Y0064960D01*
X0159967Y0063361D02*
X0156755Y0063361D01*
X0155157Y0061763D02*
X0158369Y0061763D01*
X0156770Y0060164D02*
X0153558Y0060164D01*
X0155172Y0058566D02*
X0137105Y0058566D01*
X0131800Y0051800D02*
X0151800Y0051800D01*
X0196800Y0096800D01*
X0198050Y0096800D01*
X0213050Y0096800D01*
X0210464Y0092134D02*
X0195529Y0092134D01*
X0193930Y0090536D02*
X0209291Y0090536D01*
X0208199Y0088937D02*
X0192332Y0088937D01*
X0190733Y0087339D02*
X0207750Y0087339D01*
X0207752Y0085740D02*
X0189135Y0085740D01*
X0187536Y0084142D02*
X0208414Y0084142D01*
X0209811Y0082543D02*
X0185938Y0082543D01*
X0184339Y0080945D02*
X0213050Y0080945D01*
X0213050Y0079346D02*
X0182741Y0079346D01*
X0181142Y0077748D02*
X0213050Y0077748D01*
X0213050Y0076149D02*
X0179543Y0076149D01*
X0177945Y0074551D02*
X0213050Y0074551D01*
X0213050Y0072952D02*
X0176346Y0072952D01*
X0174748Y0071354D02*
X0213050Y0071354D01*
X0213050Y0069755D02*
X0173149Y0069755D01*
X0171551Y0068157D02*
X0213050Y0068157D01*
X0213050Y0066558D02*
X0169952Y0066558D01*
X0168354Y0064960D02*
X0213050Y0064960D01*
X0213050Y0063361D02*
X0166755Y0063361D01*
X0165157Y0061763D02*
X0213050Y0061763D01*
X0213050Y0060164D02*
X0163558Y0060164D01*
X0161960Y0058566D02*
X0213050Y0058566D01*
X0213050Y0056967D02*
X0160361Y0056967D01*
X0158763Y0055369D02*
X0213050Y0055369D01*
X0213050Y0053770D02*
X0157164Y0053770D01*
X0155566Y0052172D02*
X0213050Y0052172D01*
X0213050Y0050573D02*
X0153967Y0050573D01*
X0154339Y0080945D02*
X0157551Y0080945D01*
X0159149Y0082543D02*
X0155938Y0082543D01*
X0157536Y0084142D02*
X0160748Y0084142D01*
X0162346Y0085740D02*
X0159135Y0085740D01*
X0160733Y0087339D02*
X0163945Y0087339D01*
X0165543Y0088937D02*
X0162332Y0088937D01*
X0163930Y0090536D02*
X0167142Y0090536D01*
X0168740Y0092134D02*
X0165529Y0092134D01*
X0167127Y0093733D02*
X0170339Y0093733D01*
X0171937Y0095332D02*
X0168726Y0095332D01*
X0170324Y0096930D02*
X0173536Y0096930D01*
X0175134Y0098529D02*
X0171923Y0098529D01*
X0173521Y0100127D02*
X0176733Y0100127D01*
X0178331Y0101726D02*
X0175120Y0101726D01*
X0176718Y0103324D02*
X0179930Y0103324D01*
X0181528Y0104923D02*
X0178317Y0104923D01*
X0179915Y0106521D02*
X0183127Y0106521D01*
X0184726Y0108120D02*
X0181514Y0108120D01*
X0183112Y0109718D02*
X0186324Y0109718D01*
X0187923Y0111317D02*
X0184711Y0111317D01*
X0186309Y0112915D02*
X0189521Y0112915D01*
X0191120Y0114514D02*
X0187908Y0114514D01*
X0189506Y0116112D02*
X0192718Y0116112D01*
X0194317Y0117711D02*
X0191105Y0117711D01*
X0192703Y0119309D02*
X0208353Y0119309D01*
X0209662Y0120908D02*
X0194302Y0120908D01*
X0195900Y0122506D02*
X0209848Y0122506D01*
X0208430Y0124105D02*
X0197499Y0124105D01*
X0192309Y0125703D02*
X0135952Y0125703D01*
X0131800Y0128900D02*
X0131800Y0128900D01*
X0131800Y0130499D02*
X0131800Y0130499D01*
X0131800Y0132097D02*
X0131800Y0132097D01*
X0131800Y0133696D02*
X0131800Y0133696D01*
X0131800Y0135294D02*
X0131800Y0135294D01*
X0131800Y0121800D02*
X0181800Y0121800D01*
X0179226Y0119309D02*
X0137849Y0119309D01*
X0135503Y0117711D02*
X0184317Y0117711D01*
X0184374Y0119309D02*
X0185915Y0119309D01*
X0185307Y0120908D02*
X0187514Y0120908D01*
X0189112Y0122506D02*
X0185381Y0122506D01*
X0184560Y0124105D02*
X0190711Y0124105D01*
X0173050Y0111800D02*
X0131800Y0111800D01*
X0137626Y0114514D02*
X0170699Y0114514D01*
X0200003Y0093733D02*
X0208622Y0093733D01*
X0144300Y0178454D02*
X0144300Y0178454D01*
X0144300Y0180053D02*
X0144300Y0180053D01*
X0144300Y0181651D02*
X0144300Y0181651D01*
X0144300Y0183250D02*
X0144300Y0183250D01*
X0144300Y0184848D02*
X0144300Y0184848D01*
X0131800Y0184848D02*
X0131800Y0184848D01*
X0131800Y0183250D02*
X0131800Y0183250D01*
X0131800Y0181651D02*
X0131800Y0181651D01*
X0131800Y0180053D02*
X0131800Y0180053D01*
X0131800Y0178454D02*
X0131800Y0178454D01*
X0149542Y0204030D02*
X0149880Y0204030D01*
X0148850Y0205629D02*
X0147944Y0205629D01*
X0148850Y0207227D02*
X0132200Y0207227D01*
X0132166Y0207194D02*
X0132656Y0207684D01*
X0133063Y0208244D01*
X0133378Y0208861D01*
X0133592Y0209520D01*
X0133700Y0210204D01*
X0133700Y0210550D01*
X0129300Y0210550D01*
X0129300Y0210550D01*
X0129300Y0206150D01*
X0129646Y0206150D01*
X0130330Y0206258D01*
X0130989Y0206472D01*
X0131606Y0206787D01*
X0132166Y0207194D01*
X0133360Y0208826D02*
X0142584Y0208826D01*
X0141350Y0210424D02*
X0133700Y0210424D01*
X0133448Y0212023D02*
X0141350Y0212023D01*
X0148516Y0208826D02*
X0149136Y0208826D01*
X0129300Y0208826D02*
X0129300Y0208826D01*
X0129300Y0210424D02*
X0129300Y0210424D01*
X0129300Y0210550D02*
X0129300Y0206150D01*
X0128954Y0206150D01*
X0128270Y0206258D01*
X0127611Y0206472D01*
X0126994Y0206787D01*
X0126434Y0207194D01*
X0125944Y0207684D01*
X0125537Y0208244D01*
X0125222Y0208861D01*
X0125008Y0209520D01*
X0124900Y0210204D01*
X0124900Y0210550D01*
X0129300Y0210550D01*
X0129300Y0210550D01*
X0129300Y0210550D01*
X0125152Y0212023D02*
X0121200Y0212023D01*
X0121200Y0211800D02*
X0116800Y0211800D01*
X0116800Y0211800D01*
X0116800Y0207400D01*
X0118623Y0207400D01*
X0121200Y0209977D01*
X0121200Y0211800D01*
X0121200Y0210424D02*
X0124900Y0210424D01*
X0125240Y0208826D02*
X0120048Y0208826D01*
X0116800Y0208826D02*
X0116800Y0208826D01*
X0116800Y0207400D02*
X0114977Y0207400D01*
X0112400Y0209977D01*
X0112400Y0211800D01*
X0116800Y0211800D01*
X0116800Y0211800D01*
X0116800Y0211800D01*
X0116800Y0207400D01*
X0116800Y0210424D02*
X0116800Y0210424D01*
X0113552Y0208826D02*
X0109766Y0208826D01*
X0109200Y0207227D02*
X0126400Y0207227D01*
X0129300Y0207227D02*
X0129300Y0207227D01*
X0112400Y0210424D02*
X0111000Y0210424D01*
X0111000Y0212023D02*
X0112400Y0212023D01*
X0091837Y0191242D02*
X0085752Y0191242D01*
X0084153Y0192841D02*
X0090655Y0192841D01*
X0089474Y0194439D02*
X0037109Y0194439D01*
X0027400Y0204030D02*
X0082384Y0204030D01*
X0083566Y0202432D02*
X0069608Y0202432D01*
X0071000Y0200833D02*
X0084748Y0200833D01*
X0085929Y0199235D02*
X0071000Y0199235D01*
X0071000Y0197636D02*
X0087111Y0197636D01*
X0088292Y0196038D02*
X0069477Y0196038D01*
X0066166Y0207227D02*
X0064723Y0207227D01*
X0058581Y0205629D02*
X0052519Y0205629D01*
X0054723Y0207227D02*
X0056377Y0207227D01*
X0048581Y0205629D02*
X0042519Y0205629D01*
X0044723Y0207227D02*
X0046377Y0207227D01*
X0038581Y0205629D02*
X0032519Y0205629D01*
X0034723Y0207227D02*
X0036377Y0207227D01*
X0028581Y0205629D02*
X0027400Y0205629D01*
X0026800Y0126800D02*
X0038050Y0126800D01*
X0043050Y0121800D01*
X0101800Y0121800D01*
X0095751Y0119309D02*
X0050230Y0119309D01*
X0048878Y0080945D02*
X0052551Y0080945D01*
X0050989Y0079346D02*
X0050476Y0079346D01*
X0046800Y0079346D02*
X0046800Y0079346D01*
X0046800Y0077748D02*
X0046800Y0077748D01*
X0046800Y0080945D02*
X0046800Y0080945D01*
X0038117Y0071354D02*
X0038094Y0071354D01*
X0027400Y0053770D02*
X0091900Y0053770D01*
X0091900Y0052172D02*
X0027400Y0052172D01*
X0096700Y0039384D02*
X0107600Y0039384D01*
X0108625Y0037785D02*
X0096755Y0037785D01*
X0098353Y0036187D02*
X0119941Y0036187D01*
X0118342Y0037785D02*
X0114975Y0037785D01*
X0116000Y0039384D02*
X0117400Y0039384D01*
X0117400Y0040982D02*
X0116000Y0040982D01*
X0115709Y0042581D02*
X0117608Y0042581D01*
X0114561Y0048975D02*
X0107514Y0048975D01*
X0101800Y0051800D02*
X0116800Y0051800D01*
X0101800Y0057400D02*
X0101800Y0061800D01*
X0101800Y0061800D01*
X0101800Y0057400D01*
X0101800Y0058566D02*
X0101800Y0058566D01*
X0101800Y0060164D02*
X0101800Y0060164D01*
X0101800Y0061763D02*
X0101800Y0061763D01*
X0101800Y0063361D02*
X0101800Y0063361D01*
X0101800Y0064960D02*
X0101800Y0064960D01*
X0097020Y0068157D02*
X0096700Y0068157D01*
D11*
X0144300Y0101800D03*
X0129300Y0210550D03*
D12*
X0116800Y0211800D03*
X0106800Y0211800D03*
X0106800Y0199300D03*
X0129300Y0190550D03*
X0144300Y0181800D03*
X0144300Y0171800D03*
X0145550Y0201800D03*
X0153050Y0206800D03*
X0145550Y0211800D03*
X0188050Y0170550D03*
X0198050Y0170550D03*
X0153050Y0131800D03*
X0143050Y0131800D03*
X0164300Y0101800D03*
X0121800Y0040550D03*
X0111800Y0040550D03*
X0094300Y0034300D03*
X0084300Y0034300D03*
X0074300Y0034300D03*
X0034300Y0034300D03*
X0046800Y0076800D03*
X0046800Y0116800D03*
X0045550Y0181800D03*
X0066800Y0199300D03*
X0085550Y0181800D03*
D13*
X0080550Y0210550D03*
X0070550Y0210550D03*
X0060550Y0210550D03*
X0050550Y0210550D03*
X0040550Y0210550D03*
X0030550Y0210550D03*
X0026800Y0156800D03*
X0026800Y0146800D03*
X0026800Y0136800D03*
X0026800Y0126800D03*
X0026800Y0116800D03*
X0026800Y0106800D03*
X0026800Y0096800D03*
X0026800Y0086800D03*
X0088050Y0086800D03*
X0088050Y0096800D03*
X0088050Y0106800D03*
X0213050Y0106800D03*
X0213050Y0096800D03*
X0213050Y0086800D03*
X0213050Y0116800D03*
X0213050Y0126800D03*
X0213050Y0136800D03*
X0213050Y0146800D03*
X0213050Y0156800D03*
D14*
X0134400Y0151800D02*
X0129200Y0151800D01*
X0129200Y0141800D02*
X0134400Y0141800D01*
X0134400Y0131800D02*
X0129200Y0131800D01*
X0129200Y0121800D02*
X0134400Y0121800D01*
X0134400Y0111800D02*
X0129200Y0111800D01*
X0129200Y0101800D02*
X0134400Y0101800D01*
X0134400Y0091800D02*
X0129200Y0091800D01*
X0129200Y0081800D02*
X0134400Y0081800D01*
X0134400Y0071800D02*
X0129200Y0071800D01*
X0129200Y0061800D02*
X0134400Y0061800D01*
X0134400Y0051800D02*
X0129200Y0051800D01*
X0104400Y0051800D02*
X0099200Y0051800D01*
X0099200Y0061800D02*
X0104400Y0061800D01*
X0104400Y0071800D02*
X0099200Y0071800D01*
X0099200Y0081800D02*
X0104400Y0081800D01*
X0104400Y0091800D02*
X0099200Y0091800D01*
X0099200Y0101800D02*
X0104400Y0101800D01*
X0104400Y0111800D02*
X0099200Y0111800D01*
X0099200Y0121800D02*
X0104400Y0121800D01*
X0104400Y0131800D02*
X0099200Y0131800D01*
X0099200Y0141800D02*
X0104400Y0141800D01*
X0104400Y0151800D02*
X0099200Y0151800D01*
X0099200Y0161800D02*
X0104400Y0161800D01*
X0104400Y0171800D02*
X0099200Y0171800D01*
X0099200Y0181800D02*
X0104400Y0181800D01*
X0129200Y0181800D02*
X0134400Y0181800D01*
X0134400Y0171800D02*
X0129200Y0171800D01*
X0129200Y0161800D02*
X0134400Y0161800D01*
D15*
X0171751Y0185471D03*
X0174900Y0190196D03*
X0178050Y0185471D03*
X0181200Y0190196D03*
X0184349Y0185471D03*
X0211800Y0189300D03*
X0211800Y0181426D03*
X0211800Y0197174D03*
D16*
X0192420Y0205550D03*
X0163680Y0205550D03*
D17*
X0211800Y0205048D03*
X0211800Y0173552D03*
X0036800Y0066643D03*
X0036800Y0046957D03*
X0033050Y0171957D03*
X0033050Y0191643D03*
D18*
X0050550Y0151800D03*
X0040550Y0141800D03*
X0061800Y0091800D03*
X0065550Y0071800D03*
X0116800Y0051800D03*
X0173050Y0111800D03*
X0181800Y0121800D03*
X0198050Y0096800D03*
X0171800Y0156800D03*
X0116800Y0156800D03*
M02*
