G75*
%MOIN*%
%OFA0B0*%
%FSLAX25Y25*%
%IPPOS*%
%LPD*%
%AMOC8*
5,1,8,0,0,1.08239X$1,22.5*
%
%ADD10C,0.01600*%
%ADD11C,0.00600*%
%ADD12C,0.00500*%
D10*
X0021800Y0021800D02*
X0218650Y0021800D01*
X0218650Y0218650D01*
X0021800Y0218650D01*
X0021800Y0021800D01*
X0093050Y0205550D02*
X0088050Y0210550D01*
X0093050Y0215550D01*
X0093050Y0205550D01*
X0093050Y0205629D02*
X0092971Y0205629D01*
X0093050Y0207227D02*
X0091373Y0207227D01*
X0089774Y0208826D02*
X0093050Y0208826D01*
X0093050Y0210424D02*
X0088176Y0210424D01*
X0089523Y0212023D02*
X0093050Y0212023D01*
X0093050Y0213621D02*
X0091121Y0213621D01*
X0092720Y0215220D02*
X0093050Y0215220D01*
D11*
X0052992Y0099005D02*
X0050857Y0099005D01*
X0049789Y0097938D01*
X0049789Y0096870D01*
X0050857Y0095803D01*
X0049789Y0094735D01*
X0049789Y0093668D01*
X0050857Y0092600D01*
X0052992Y0092600D01*
X0054059Y0093668D01*
X0051924Y0095803D02*
X0050857Y0095803D01*
X0054059Y0097938D02*
X0052992Y0099005D01*
X0047614Y0093668D02*
X0046546Y0093668D01*
X0046546Y0092600D01*
X0047614Y0092600D01*
X0047614Y0093668D01*
X0044391Y0093668D02*
X0043323Y0092600D01*
X0041188Y0092600D01*
X0040121Y0093668D01*
X0040121Y0094735D01*
X0041188Y0095803D01*
X0042256Y0095803D01*
X0041188Y0095803D02*
X0040121Y0096870D01*
X0040121Y0097938D01*
X0041188Y0099005D01*
X0043323Y0099005D01*
X0044391Y0097938D01*
X0037946Y0099005D02*
X0037946Y0094735D01*
X0035810Y0092600D01*
X0033675Y0094735D01*
X0033675Y0099005D01*
X0034156Y0089755D02*
X0037359Y0089755D01*
X0037359Y0083350D01*
X0034156Y0083350D01*
X0033089Y0084418D01*
X0033089Y0088688D01*
X0034156Y0089755D01*
X0039534Y0089755D02*
X0039534Y0083350D01*
X0043805Y0089755D01*
X0043805Y0083350D01*
X0045980Y0084418D02*
X0045980Y0086553D01*
X0048115Y0086553D01*
X0050250Y0088688D02*
X0050250Y0084418D01*
X0049182Y0083350D01*
X0047047Y0083350D01*
X0045980Y0084418D01*
X0045980Y0088688D02*
X0047047Y0089755D01*
X0049182Y0089755D01*
X0050250Y0088688D01*
X0195784Y0089235D02*
X0195784Y0093505D01*
X0195784Y0089235D02*
X0197919Y0087100D01*
X0200055Y0089235D01*
X0200055Y0093505D01*
X0202230Y0093505D02*
X0206500Y0093505D01*
X0206500Y0090303D01*
X0204365Y0091370D01*
X0203297Y0091370D01*
X0202230Y0090303D01*
X0202230Y0088168D01*
X0203297Y0087100D01*
X0205432Y0087100D01*
X0206500Y0088168D01*
X0204534Y0079755D02*
X0204534Y0073350D01*
X0208805Y0079755D01*
X0208805Y0073350D01*
X0210980Y0074418D02*
X0210980Y0076553D01*
X0213115Y0076553D01*
X0215250Y0078688D02*
X0215250Y0074418D01*
X0214182Y0073350D01*
X0212047Y0073350D01*
X0210980Y0074418D01*
X0210980Y0078688D02*
X0212047Y0079755D01*
X0214182Y0079755D01*
X0215250Y0078688D01*
X0202359Y0079755D02*
X0202359Y0073350D01*
X0199156Y0073350D01*
X0198089Y0074418D01*
X0198089Y0078688D01*
X0199156Y0079755D01*
X0202359Y0079755D01*
D12*
X0193404Y0184881D02*
X0162696Y0184881D01*
X0162696Y0220314D01*
X0193404Y0220314D01*
X0193404Y0184881D01*
X0181003Y0198660D02*
X0175097Y0198660D01*
X0173129Y0218345D01*
X0170176Y0218345D02*
X0172144Y0200629D01*
X0164270Y0200629D02*
X0166239Y0218345D01*
X0170176Y0218345D01*
X0182971Y0218345D02*
X0181003Y0198660D01*
X0183956Y0202597D02*
X0185924Y0218345D01*
X0189861Y0218345D01*
X0191830Y0202597D01*
M02*
