G75*
%MOIN*%
%OFA0B0*%
%FSLAX25Y25*%
%IPPOS*%
%LPD*%
%AMOC8*
5,1,8,0,0,1.08239X$1,22.5*
%
%ADD10C,0.01600*%
%ADD11C,0.00600*%
%ADD12C,0.00500*%
D10*
X0021800Y0021800D02*
X0218650Y0021800D01*
X0218650Y0218650D01*
X0021800Y0218650D01*
X0021800Y0021800D01*
X0093050Y0205550D02*
X0088050Y0210550D01*
X0093050Y0215550D01*
X0093050Y0205550D01*
X0093050Y0205629D02*
X0092971Y0205629D01*
X0093050Y0207227D02*
X0091373Y0207227D01*
X0089774Y0208826D02*
X0093050Y0208826D01*
X0093050Y0210424D02*
X0088176Y0210424D01*
X0089523Y0212023D02*
X0093050Y0212023D01*
X0093050Y0213621D02*
X0091121Y0213621D01*
X0092720Y0215220D02*
X0093050Y0215220D01*
D11*
X0050615Y0163255D02*
X0048480Y0161120D01*
X0048480Y0156850D01*
X0046305Y0157918D02*
X0042034Y0162188D01*
X0042034Y0157918D01*
X0043102Y0156850D01*
X0045237Y0156850D01*
X0046305Y0157918D01*
X0046305Y0162188D01*
X0045237Y0163255D01*
X0043102Y0163255D01*
X0042034Y0162188D01*
X0048480Y0160053D02*
X0052750Y0160053D01*
X0052750Y0161120D02*
X0050615Y0163255D01*
X0052750Y0161120D02*
X0052750Y0156850D01*
X0050615Y0152755D02*
X0048480Y0150620D01*
X0048480Y0146350D01*
X0046305Y0146350D02*
X0042034Y0146350D01*
X0044169Y0146350D02*
X0044169Y0152755D01*
X0046305Y0150620D01*
X0048480Y0149553D02*
X0052750Y0149553D01*
X0052750Y0150620D02*
X0052750Y0146350D01*
X0052750Y0142255D02*
X0049547Y0142255D01*
X0048480Y0141188D01*
X0048480Y0140120D01*
X0049547Y0139053D01*
X0052750Y0139053D01*
X0052750Y0142255D02*
X0052750Y0135850D01*
X0049547Y0135850D01*
X0048480Y0136918D01*
X0048480Y0137985D01*
X0049547Y0139053D01*
X0046305Y0141188D02*
X0045237Y0142255D01*
X0043102Y0142255D01*
X0042034Y0141188D01*
X0042034Y0140120D01*
X0046305Y0135850D01*
X0042034Y0135850D01*
X0043102Y0131755D02*
X0042034Y0130688D01*
X0042034Y0129620D01*
X0043102Y0128553D01*
X0042034Y0127485D01*
X0042034Y0126418D01*
X0043102Y0125350D01*
X0045237Y0125350D01*
X0046305Y0126418D01*
X0048480Y0126418D02*
X0048480Y0127485D01*
X0049547Y0128553D01*
X0052750Y0128553D01*
X0052750Y0131755D02*
X0049547Y0131755D01*
X0048480Y0130688D01*
X0048480Y0129620D01*
X0049547Y0128553D01*
X0048480Y0126418D02*
X0049547Y0125350D01*
X0052750Y0125350D01*
X0052750Y0131755D01*
X0046305Y0130688D02*
X0045237Y0131755D01*
X0043102Y0131755D01*
X0043102Y0128553D02*
X0044169Y0128553D01*
X0043102Y0121255D02*
X0046305Y0118053D01*
X0042034Y0118053D01*
X0043102Y0121255D02*
X0043102Y0114850D01*
X0043102Y0110755D02*
X0046305Y0107553D01*
X0042034Y0107553D01*
X0043102Y0110755D02*
X0043102Y0104350D01*
X0042014Y0100255D02*
X0039879Y0100255D01*
X0038811Y0099188D01*
X0038811Y0098120D01*
X0039879Y0097053D01*
X0038811Y0095985D01*
X0038811Y0094918D01*
X0039879Y0093850D01*
X0042014Y0093850D01*
X0043082Y0094918D01*
X0045237Y0094918D02*
X0045237Y0093850D01*
X0046305Y0093850D01*
X0046305Y0094918D01*
X0045237Y0094918D01*
X0040947Y0097053D02*
X0039879Y0097053D01*
X0036636Y0095985D02*
X0034501Y0093850D01*
X0032366Y0095985D01*
X0032366Y0100255D01*
X0036636Y0100255D02*
X0036636Y0095985D01*
X0036656Y0089755D02*
X0039859Y0089755D01*
X0039859Y0083350D01*
X0036656Y0083350D01*
X0035589Y0084418D01*
X0035589Y0088688D01*
X0036656Y0089755D01*
X0042034Y0089755D02*
X0042034Y0083350D01*
X0046305Y0089755D01*
X0046305Y0083350D01*
X0048480Y0084418D02*
X0048480Y0086553D01*
X0050615Y0086553D01*
X0052750Y0088688D02*
X0052750Y0084418D01*
X0051682Y0083350D01*
X0049547Y0083350D01*
X0048480Y0084418D01*
X0048480Y0088688D02*
X0049547Y0089755D01*
X0051682Y0089755D01*
X0052750Y0088688D01*
X0051682Y0093850D02*
X0049547Y0093850D01*
X0048480Y0094918D01*
X0048480Y0095985D01*
X0049547Y0097053D01*
X0050615Y0097053D01*
X0049547Y0097053D02*
X0048480Y0098120D01*
X0048480Y0099188D01*
X0049547Y0100255D01*
X0051682Y0100255D01*
X0052750Y0099188D01*
X0052750Y0094918D02*
X0051682Y0093850D01*
X0043082Y0099188D02*
X0042014Y0100255D01*
X0048480Y0104350D02*
X0048480Y0108620D01*
X0050615Y0110755D01*
X0052750Y0108620D01*
X0052750Y0104350D01*
X0052750Y0107553D02*
X0048480Y0107553D01*
X0049547Y0114850D02*
X0052750Y0114850D01*
X0052750Y0121255D01*
X0049547Y0121255D01*
X0048480Y0120188D01*
X0048480Y0119120D01*
X0049547Y0118053D01*
X0052750Y0118053D01*
X0049547Y0118053D02*
X0048480Y0116985D01*
X0048480Y0115918D01*
X0049547Y0114850D01*
X0052750Y0150620D02*
X0050615Y0152755D01*
X0189339Y0156668D02*
X0190406Y0155600D01*
X0192541Y0155600D01*
X0193609Y0156668D01*
X0193609Y0158803D02*
X0191474Y0159870D01*
X0190406Y0159870D01*
X0189339Y0158803D01*
X0189339Y0156668D01*
X0193609Y0158803D02*
X0193609Y0162005D01*
X0189339Y0162005D01*
X0195784Y0155600D02*
X0200055Y0155600D01*
X0197919Y0155600D02*
X0197919Y0162005D01*
X0200055Y0159870D01*
X0202230Y0159870D02*
X0203297Y0158803D01*
X0206500Y0158803D01*
X0206500Y0162005D02*
X0203297Y0162005D01*
X0202230Y0160938D01*
X0202230Y0159870D01*
X0203297Y0158803D02*
X0202230Y0157735D01*
X0202230Y0156668D01*
X0203297Y0155600D01*
X0206500Y0155600D01*
X0206500Y0162005D01*
X0206500Y0151505D02*
X0203297Y0151505D01*
X0202230Y0150438D01*
X0202230Y0149370D01*
X0203297Y0148303D01*
X0206500Y0148303D01*
X0206500Y0151505D02*
X0206500Y0145100D01*
X0203297Y0145100D01*
X0202230Y0146168D01*
X0202230Y0147235D01*
X0203297Y0148303D01*
X0200055Y0149370D02*
X0197919Y0151505D01*
X0197919Y0145100D01*
X0195784Y0145100D02*
X0200055Y0145100D01*
X0197919Y0141005D02*
X0197919Y0134600D01*
X0195784Y0134600D02*
X0200055Y0134600D01*
X0202230Y0135668D02*
X0203297Y0134600D01*
X0206500Y0134600D01*
X0206500Y0141005D01*
X0203297Y0141005D01*
X0202230Y0139938D01*
X0202230Y0138870D01*
X0203297Y0137803D01*
X0206500Y0137803D01*
X0203297Y0137803D02*
X0202230Y0136735D01*
X0202230Y0135668D01*
X0200055Y0138870D02*
X0197919Y0141005D01*
X0193609Y0139938D02*
X0192541Y0141005D01*
X0190406Y0141005D01*
X0189339Y0139938D01*
X0189339Y0138870D01*
X0190406Y0137803D01*
X0189339Y0136735D01*
X0189339Y0135668D01*
X0190406Y0134600D01*
X0192541Y0134600D01*
X0193609Y0135668D01*
X0191474Y0137803D02*
X0190406Y0137803D01*
X0190406Y0145100D02*
X0190406Y0151505D01*
X0193609Y0148303D01*
X0189339Y0148303D01*
X0196852Y0130505D02*
X0198987Y0130505D01*
X0200055Y0129438D01*
X0200055Y0128370D01*
X0198987Y0127303D01*
X0195784Y0127303D01*
X0195784Y0125168D02*
X0195784Y0129438D01*
X0196852Y0130505D01*
X0195784Y0125168D02*
X0196852Y0124100D01*
X0198987Y0124100D01*
X0200055Y0125168D01*
X0202230Y0125168D02*
X0203297Y0124100D01*
X0206500Y0124100D01*
X0206500Y0130505D01*
X0203297Y0130505D01*
X0202230Y0129438D01*
X0202230Y0128370D01*
X0203297Y0127303D01*
X0206500Y0127303D01*
X0203297Y0127303D02*
X0202230Y0126235D01*
X0202230Y0125168D01*
X0203297Y0120005D02*
X0202230Y0118938D01*
X0202230Y0117870D01*
X0203297Y0116803D01*
X0206500Y0116803D01*
X0206500Y0120005D02*
X0203297Y0120005D01*
X0203297Y0116803D02*
X0202230Y0115735D01*
X0202230Y0114668D01*
X0203297Y0113600D01*
X0206500Y0113600D01*
X0206500Y0120005D01*
X0200055Y0118938D02*
X0200055Y0117870D01*
X0198987Y0116803D01*
X0196852Y0116803D01*
X0195784Y0115735D01*
X0195784Y0114668D01*
X0196852Y0113600D01*
X0198987Y0113600D01*
X0200055Y0114668D01*
X0200055Y0115735D01*
X0198987Y0116803D01*
X0196852Y0116803D02*
X0195784Y0117870D01*
X0195784Y0118938D01*
X0196852Y0120005D01*
X0198987Y0120005D01*
X0200055Y0118938D01*
X0200055Y0109505D02*
X0195784Y0109505D01*
X0195784Y0108438D01*
X0200055Y0104168D01*
X0200055Y0103100D01*
X0202230Y0104168D02*
X0203297Y0103100D01*
X0206500Y0103100D01*
X0206500Y0109505D01*
X0203297Y0109505D01*
X0202230Y0108438D01*
X0202230Y0107370D01*
X0203297Y0106303D01*
X0206500Y0106303D01*
X0203297Y0106303D02*
X0202230Y0105235D01*
X0202230Y0104168D01*
X0202230Y0099005D02*
X0206500Y0099005D01*
X0206500Y0095803D01*
X0204365Y0096870D01*
X0203297Y0096870D01*
X0202230Y0095803D01*
X0202230Y0093668D01*
X0203297Y0092600D01*
X0205432Y0092600D01*
X0206500Y0093668D01*
X0205432Y0088505D02*
X0203297Y0088505D01*
X0202230Y0087438D01*
X0202230Y0085303D02*
X0204365Y0085303D01*
X0202230Y0085303D02*
X0202230Y0083168D01*
X0203297Y0082100D01*
X0205432Y0082100D01*
X0206500Y0083168D01*
X0206500Y0087438D01*
X0205432Y0088505D01*
X0200055Y0088505D02*
X0200055Y0082100D01*
X0195784Y0082100D02*
X0195784Y0088505D01*
X0193609Y0088505D02*
X0190406Y0088505D01*
X0189339Y0087438D01*
X0189339Y0083168D01*
X0190406Y0082100D01*
X0193609Y0082100D01*
X0193609Y0088505D01*
X0197919Y0092600D02*
X0195784Y0094735D01*
X0195784Y0099005D01*
X0200055Y0099005D02*
X0200055Y0094735D01*
X0197919Y0092600D01*
X0200055Y0088505D02*
X0195784Y0082100D01*
D12*
X0193404Y0184881D02*
X0162696Y0184881D01*
X0162696Y0220314D01*
X0193404Y0220314D01*
X0193404Y0184881D01*
X0181003Y0198660D02*
X0175097Y0198660D01*
X0173129Y0218345D01*
X0170176Y0218345D02*
X0172144Y0200629D01*
X0164270Y0200629D02*
X0166239Y0218345D01*
X0170176Y0218345D01*
X0182971Y0218345D02*
X0181003Y0198660D01*
X0183956Y0202597D02*
X0185924Y0218345D01*
X0189861Y0218345D01*
X0191830Y0202597D01*
M02*
